<svg xmlns="http://www.w3.org/2000/svg" width="30" height="30"><path fill="#5F5F66" fill-rule="evenodd" d="M29.187 28.514h-.859l1.287-2.823a.471.471 0 00-.856-.393l-1.058 2.321c-1.2-1.058-4.552-4.295-7.5-9.875C16.745 11.206 15.45 6.712 15.3 6.172V4.849h4.84a.47.47 0 00.418-.25.461.461 0 00-.027-.48L19.325 2.34 20.422.734a.47.47 0 00-.39-.734h-5.204a.468.468 0 00-.469.472v3.783a.48.48 0 000 .248v1.669c-.15.54-1.443 5.026-4.9 11.572-2.944 5.569-6.298 8.814-7.5 9.875L.9 25.3a.471.471 0 00-.856.393l1.287 2.822H.47a.47.47 0 100 .94h28.716a.471.471 0 100-.94zM15.3.94h3.84l-.775 1.137a.469.469 0 000 .53l.887 1.303H15.3V.94zm-5.01 17.242c2.528-4.778 3.903-8.433 4.538-10.345.638 1.912 2.013 5.567 4.541 10.345 3.235 6.125 6.878 9.45 7.926 10.33H2.365c1.047-.88 4.69-4.205 7.925-10.33zm6.453.207c-.887-.914-1.601-2.138-2.111-3.603-.507 1.465-1.225 2.69-2.108 3.603l-.03.033a.468.468 0 01-.371.177.527.527 0 01-.202-.044.477.477 0 01-.221-.632c.035-.074.082-.12.147-.189 1.061-1.093 1.888-2.795 2.327-4.789a.47.47 0 01.919 0c.439 1.994 1.265 3.696 2.326 4.792.066.066.11.112.145.186a.471.471 0 01-.791.499l-.03-.033zm-2.717 6.728a.35.35 0 00-.24.082 1.31 1.31 0 00-.237.322c-.166.286-.36.504-.578.643a1.451 1.451 0 01-.802.221 1.6 1.6 0 01-.638-.133 1.364 1.364 0 01-.502-.401 1.737 1.737 0 01-.305-.611 2.619 2.619 0 01-.104-.761c0-.59.136-1.064.41-1.41.283-.363.66-.543 1.12-.543.316 0 .584.077.796.224.2.136.393.346.568.61.103.15.177.216.22.249.044.038.101.055.178.055a.46.46 0 00.324-.123.387.387 0 00.129-.295.88.88 0 00-.14-.43 1.867 1.867 0 00-.43-.478 2.487 2.487 0 00-.704-.374 2.758 2.758 0 00-.922-.144c-.54 0-1.009.109-1.394.33a2.154 2.154 0 00-.878.933c-.204.403-.308.88-.308 1.412 0 .783.224 1.413.666 1.874.441.455 1.069.687 1.862.687.38 0 .723-.052 1.023-.152a2.23 2.23 0 00.736-.393c.191-.161.336-.33.426-.502.09-.17.133-.327.133-.472a.443.443 0 00-.122-.289.356.356 0 00-.287-.13zm5.995 1.257a.339.339 0 01.049.161c0 .175-.044.306-.13.399a.462.462 0 01-.345.133c-.12 0-.207-.027-.264-.087-.057-.055-.161-.183-.344-.461l-1.322-2.176-.958.905v1.165c0 .223-.052.381-.16.49a.48.48 0 01-.355.164.463.463 0 01-.366-.15c-.092-.109-.139-.28-.139-.51v-5.863c0-.268.047-.467.142-.595.085-.115.2-.164.363-.164.158 0 .28.047.37.153.096.112.145.29.145.526v3.772l1.847-1.939c.226-.24.351-.346.414-.395a.473.473 0 01.265-.074c.125 0 .226.036.308.117a.36.36 0 01.114.281c0 .068-.049.27-.499.674l-.84.774 1.49 2.338c.1.16.171.28.215.362z"/></svg>