<svg xmlns="http://www.w3.org/2000/svg" xmlns:xlink="http://www.w3.org/1999/xlink" width="28" height="28"><defs><path id="a" d="M1.902 2.375H28.9v27.002H1.902z"/></defs><g fill="none" fill-rule="evenodd" transform="translate(-1 -2)"><mask id="b" fill="#fff"><use xlink:href="#a"/></mask><path fill="#5F5F66" d="M28.774 8.32l-5.82-5.818a.434.434 0 00-.305-.127.434.434 0 00-.305.127l-3.58 3.578c-.002.002-.005.002-.007.005 0 .002-.003.005-.005.007L3.657 21.185a.177.177 0 00-.025.035.07.07 0 00-.022.03c-.01.012-.015.025-.023.037a.16.16 0 00-.02.035l-.015.045c-.002.013-.007.023-.01.033l-1.63 7.452a.434.434 0 00.42.525c.03 0 .062-.005.092-.012l7.453-1.63c.012-.003.022-.008.035-.01.015-.005.027-.008.04-.015.018-.008.03-.018.045-.025.01-.005.02-.01.03-.018l.04-.03a.137.137 0 01.022-.017l.008-.008L28.775 8.93a.433.433 0 000-.61zm-9.71-1.315l1.93 1.927-14.49 14.49-1.93-1.927 14.49-14.49zM3.167 27.145l1.05-4.79 4.702 4.705-4.887 1.07-.865-.985zm6.617-.44l-2.67-2.673 14.49-14.49 2.67 2.67-14.49 14.493zm15.1-15.105l-5.21-5.208 2.976-2.977 5.21 5.21-2.976 2.975z" mask="url(#b)"/></g></svg>