<svg xmlns="http://www.w3.org/2000/svg" width="30" height="27"><path fill="#5F5F66" fill-rule="evenodd" d="M23.087 13.287a1.193 1.193 0 10.002 2.383 1.193 1.193 0 00-.002-2.383zm5.945 1.64v3.56c0 .556-.51 1.006-1.14 1.006H26.73c-.753 1.512-2.128 2.845-3.913 3.797l-.56 2.81c-.1.502-.577.897-1.095.897h-2.817a1.052 1.052 0 01-1.04-.97l-.083-1.212c-.71.047-1.395.045-2.095-.008l-.08 1.22c-.032.538-.5.97-1.037.97h-2.823c-.512 0-.992-.395-1.092-.897l-.57-2.873-.005-.022c-2.48-1.37-4.058-3.44-4.373-5.688-.16-.274-.35-.427-.802-.427-.56 0-.92.415-1.018.54-.27.353-.707.832-1.422.945-.11.018-.225.027-.345.027-.513 0-1.093-.167-1.443-.59a.492.492 0 11.75-.633c.155.183.54.281.885.229.285-.048.525-.216.795-.573.443-.578 1.115-.925 1.798-.925.285 0 .54.043.762.128.325-4.288 5.198-7.703 11.14-7.703 1.443 0 2.845.2 4.18.592 1.18-.745 3.443-1.617 3.545-1.657.405-.167.81-.138 1.1.09.293.228.423.618.358 1.065l-.448 2.985c.763.7 1.358 1.478 1.765 2.315h1.145c.63 0 1.14.452 1.14 1.002zm-.982.028a.234.234 0 00-.158-.05h-1.46a.488.488 0 01-.45-.295c-.385-.89-1.005-1.71-1.847-2.44a.49.49 0 01-.163-.445l.488-3.245a.393.393 0 00.002-.133.362.362 0 00-.127.036c-.038.012-2.545.982-3.553 1.685a.492.492 0 01-.425.065 13.759 13.759 0 00-4.11-.615c-5.612 0-10.18 3.217-10.18 7.174 0 2.27 1.56 4.43 4.173 5.785a.49.49 0 01.247.566l.57 2.864c.008.048.085.11.13.11h2.823c.025 0 .06-.032.06-.052l.11-1.723a.496.496 0 01.543-.457 14.167 14.167 0 002.91.012l.047-.002c.12 0 .232.042.317.117.103.085.165.21.173.343l.112 1.707c.003.026.038.055.063.055h2.817c.05 0 .123-.062.133-.11l.572-2.872a.484.484 0 01.263-.497c1.822-.916 3.187-2.24 3.837-3.736a.496.496 0 01.45-.292h1.475c.083 0 .14-.03.158-.048v-3.507zm-8.355-3.078c-.873-.407-2.053-.627-3.318-.627-1.265 0-2.447.22-3.32.627a.486.486 0 00-.235.648c.11.248.405.355.648.24.735-.34 1.795-.535 2.907-.535 1.113 0 2.17.195 2.905.535a.487.487 0 00.65-.24.489.489 0 00-.237-.647zM13.117 3.18a3.182 3.182 0 016.363 0 3.188 3.188 0 01-3.183 3.182 3.184 3.184 0 01-3.18-3.182zm.98 0a2.2 2.2 0 104.4 0 2.2 2.2 0 00-4.4 0z"/></svg>