<svg xmlns="http://www.w3.org/2000/svg" xmlns:xlink="http://www.w3.org/1999/xlink" width="44" height="44"><defs><path id="a" d="M22 0c12.15 0 22 9.85 22 22s-9.85 22-22 22S0 34.15 0 22 9.85 0 22 0z"/></defs><g fill="none" fill-rule="evenodd"><mask id="b" fill="#fff"><use xlink:href="#a"/></mask><g fill="#0097DB" mask="url(#b)"><path d="M0 0h44v44H0z"/></g><path fill="#FFF" d="M16 22h13v-.5c0-3.584-2.916-6.5-6.5-6.5a6.508 6.508 0 00-6.5 6.5v.5zm13.5 1h-14a.5.5 0 01-.5-.5v-1c0-4.136 3.364-7.5 7.5-7.5s7.5 3.364 7.5 7.5v1a.5.5 0 01-.5.5z"/><path fill="#FFF" d="M17.601 21a.5.5 0 01-.49-.599A5.517 5.517 0 0122.501 16a.5.5 0 010 1 4.516 4.516 0 00-4.41 3.6.499.499 0 01-.49.4m3.899-6a.5.5 0 01-.5-.5v-2a.5.5 0 011 0v2a.5.5 0 01-.5.5m2 0a.5.5 0 01-.5-.5v-2a.5.5 0 011 0v2a.5.5 0 01-.5.5"/><path fill="#FFF" d="M21.5 11a.5.5 0 000 1h2a.5.5 0 000-1h-2zm2 2h-2c-.827 0-1.5-.673-1.5-1.5s.673-1.5 1.5-1.5h2c.827 0 1.5.673 1.5 1.5s-.673 1.5-1.5 1.5zm-8.174 13h13.748c-.7-.594-1.074-1.439-1.074-2.5V23H16.972a4.5 4.5 0 01-1.646 3M32.5 27h-20a.5.5 0 010-1c1.93 0 3.5-1.57 3.5-3.5a.5.5 0 01.5-.5h12a.5.5 0 01.5.5v1c0 1.659 1.178 2.5 3.5 2.5a.5.5 0 010 1"/><path fill="#FFF" d="M33.5 29h-22a.5.5 0 01-.5-.5v-1c0-.827.673-1.5 1.5-1.5a.5.5 0 010 1 .5.5 0 00-.5.5v.5h21v-.5a.5.5 0 00-.5-.5.5.5 0 010-1c.827 0 1.5.673 1.5 1.5v1a.5.5 0 01-.5.5"/></g></svg>