<svg width="40" height="40" xmlns="http://www.w3.org/2000/svg" xmlns:xlink="http://www.w3.org/1999/xlink"><defs><path id="a" d="M0 0h15.8v15.798H0z"/></defs><g fill="none" fill-rule="evenodd"><path fill-opacity=".8" fill="#000" opacity=".8" d="M0 0h40v40H0z"/><g transform="translate(12 12)"><mask id="b" fill="#fff"><use xlink:href="#a"/></mask><path d="M1.904 6.186a4.282 4.282 0 014.282-4.283c2.366 0 4.474 2.107 4.474 4.474a4.284 4.284 0 01-4.283 4.283c-2.366 0-4.473-2.109-4.473-4.474m13.54 7.18l-3.778-3.779a6.15 6.15 0 00.898-3.21C12.564 2.96 9.603 0 6.186 0A6.185 6.185 0 000 6.186c0 3.416 2.96 6.377 6.377 6.377a6.15 6.15 0 003.115-.844l3.799 3.801a.953.953 0 001.346 0l.943-.943c.37-.37.236-.84-.135-1.21" fill="#FFF" mask="url(#b)"/></g></g></svg>