<svg width="23" height="19" xmlns="http://www.w3.org/2000/svg" xmlns:xlink="http://www.w3.org/1999/xlink"><defs><path id="a" d="M0 0h21v12H0z"/><path id="c" d="M0 .174h23V7H0z"/></defs><g fill="none" fill-rule="evenodd"><g transform="translate(1 7)"><mask id="b" fill="#fff"><use xlink:href="#a"/></mask><path d="M17.98 2.637l-2 7a.5.5 0 01-.961-.274l2-7a.5.5 0 11.962.274zm-4.485 6.934a.5.5 0 11-.99-.142l1-7a.5.5 0 01.99.142l-1 7zM11 9.501a.5.5 0 01-1 0v-7a.5.5 0 111 0v7zm-2.93.494a.5.5 0 01-.566-.424l-1-7a.5.5 0 11.99-.142l1 7a.5.5 0 01-.423.566zm-2.433-.014a.5.5 0 01-.618-.344l-2-7a.5.5 0 11.962-.274l2 7a.5.5 0 01-.344.618zM20.63.017a.5.5 0 00-.613.351L19.982.5H1.019L.982.368a.5.5 0 00-.964.263l2.598 9.527A2.506 2.506 0 005.028 12h10.944a2.506 2.506 0 002.412-1.842L20.982.631a.5.5 0 00-.351-.614z" fill="#FFF" mask="url(#b)"/></g><g transform="translate(0 1)"><mask id="d" fill="#fff"><use xlink:href="#c"/></mask><path d="M22.5 6h-.52C21.764 3.144 19.689.805 16.968.174 16.98.282 17 .388 17 .5c0 .245-.046.476-.112.7 2.203.578 3.879 2.472 4.09 4.8H2.022c.21-2.328 1.887-4.222 4.09-4.8A2.458 2.458 0 016 .5c0-.112.019-.218.033-.326C3.312.805 1.238 3.144 1.019 6h-.52a.5.5 0 000 1h22a.5.5 0 000-1" fill="#FFF" mask="url(#d)"/></g><path d="M15 1.5a.5.5 0 00.5.5c.136 0 .263.028.396.038A1.48 1.48 0 0016 1.5c0-.169-.034-.329-.086-.48-.137-.009-.274-.02-.414-.02a.5.5 0 00-.5.5m-7 0a.5.5 0 00-.5-.5c-.14 0-.276.011-.414.02A1.468 1.468 0 007 1.5c0 .19.039.371.104.538.133-.01.26-.038.396-.038a.5.5 0 00.5-.5" fill="#FFF"/><path d="M14.5 3h-6C7.673 3 7 2.327 7 1.5S7.673 0 8.5 0h6c.827 0 1.5.673 1.5 1.5S15.327 3 14.5 3z" fill="#FFF"/></g></svg>