<svg width="24" height="22" xmlns="http://www.w3.org/2000/svg" xmlns:xlink="http://www.w3.org/1999/xlink"><defs><path id="a" d="M.995 0H6v2H.995z"/></defs><g fill="none" fill-rule="evenodd"><path d="M23.5 14H.5a.5.5 0 000 1h23a.5.5 0 000-1M11 16.5a.5.5 0 00-.5-.5h-4a.5.5 0 000 1h4a.5.5 0 00.5-.5m7.5.5h-4a.5.5 0 000 1h4a.5.5 0 000-1M13 19.5a.5.5 0 00-.5-.5h-3a.5.5 0 000 1h3a.5.5 0 00.5-.5m-.48-2.5h-.01l-.005.001-.006-.001a.5.5 0 000 1l.01-.002.01.002a.5.5 0 000-1m2.001 2h-.01l-.005.001-.006-.001a.5.5 0 000 1l.01-.002.01.002a.5.5 0 000-1M7.52 19h-.01l-.005.001L7.5 19a.5.5 0 000 1l.01-.002.01.002a.5.5 0 000-1m3 2h-.01l-.005.001-.006-.001a.5.5 0 000 1l.01-.002.01.002a.5.5 0 000-1m2.001 0h-.01l-.005.001-.006-.001a.5.5 0 000 1l.01-.002.01.002a.5.5 0 000-1m2.001 0h-.01l-.005.001-.006-.001a.5.5 0 000 1l.01-.002.01.002a.5.5 0 000-1" fill="#FFF"/><g transform="translate(18 2)"><mask id="b" fill="#fff"><use xlink:href="#a"/></mask><path d="M1.49 1c.208.02 1.02.45 1.736.919a.498.498 0 00.601-.04C4.158 1.59 5.003.999 5.5.999a.5.5 0 100-1c-.742 0-1.589.553-2.032.887C2.835.49 1.958 0 1.5 0a.504.504 0 00-.505.5c0 .275.22.5.495.5" fill="#FFF" mask="url(#b)"/></g><path d="M11.5 13c2.481 0 4.5-2.019 4.5-4.5S13.981 4 11.5 4A4.505 4.505 0 007 8.5c0 2.481 2.019 4.5 4.5 4.5m0-10a.5.5 0 00.5-.5v-2a.5.5 0 00-1 0v2a.5.5 0 00.5.5m-3.433.554a.498.498 0 00.683.183.499.499 0 00.182-.683l-1-1.732a.499.499 0 10-.865.5l1 1.732zM4.322 4.933l1.731 1a.498.498 0 00.683-.183.498.498 0 00-.183-.683l-1.73-1a.5.5 0 10-.5.866m12.123 7l1.731 1a.498.498 0 00.683-.183.498.498 0 00-.183-.683l-1.73-1a.5.5 0 00-.5.866M3.5 9h2a.5.5 0 000-1h-2a.5.5 0 000 1m14-1a.5.5 0 000 1h2a.5.5 0 000-1h-2zM6.054 11.067l-1.731 1a.498.498 0 00.25.933c.085 0 .17-.021.25-.067l1.73-1a.5.5 0 00-.5-.866M16.696 6a.494.494 0 00.25-.067l1.731-1a.498.498 0 00.183-.683.499.499 0 00-.683-.183l-1.73 1a.5.5 0 00.25.933M14.25 3.737a.498.498 0 00.683-.183l1-1.732a.5.5 0 00-.866-.5l-1 1.732a.5.5 0 00.183.683M4.5 16a.5.5 0 100 1 .5.5 0 000-1" fill="#FFF"/></g></svg>