<svg width="24" height="24" xmlns="http://www.w3.org/2000/svg" xmlns:xlink="http://www.w3.org/1999/xlink"><defs><path id="a" d="M.767.42H11V10H.767z"/></defs><g fill="none" fill-rule="evenodd"><path d="M23.678 2.185c-.001-.814-.277-1.5-.821-2.04a.5.5 0 00-.664-.036C22.098.185 20.432 1.837.94 21.356a1.506 1.506 0 00-.003 2.125c.285.285.662.441 1.062.441s.776-.156 1.058-.439l6.365-6.366c2.452-2.452 3.514-2.792 4.099-2.834 1.099-.079 2.047-.489 2.743-1.184 3.185-3.186 7.42-7.783 7.413-10.914M4.024 8.966l.005.01c.681.669 1.617 1.065 2.705 1.144.579.043 1.31.42 2.239 1.153a.503.503 0 00.663-.039l1.599-1.598a.501.501 0 00.038-.664c-1.046-1.324-1.162-1.999-1.157-2.391.01-.889-.364-1.778-1.051-2.464l-.13-.109-.002-.001-4.5-3.813a.5.5 0 10-.645.763l4.087 3.462L6.5 5.793 2.353 1.647a.5.5 0 00-.707.707L5.794 6.5 4.388 7.904.863 4.157a.5.5 0 00-.729.686l3.878 4.116c.003.003.008.004.01.007" fill="#FFF"/><g transform="translate(13 14)"><mask id="b" fill="#fff"><use xlink:href="#a"/></mask><path d="M10.56 7.44L3.689.566a.497.497 0 00-.615-.072c-.553.34-1.19.573-1.891.694a.5.5 0 00-.268.845L8.44 9.562c.283.283.66.44 1.06.44s.778-.157 1.06-.44A1.49 1.49 0 0011 8.5a1.49 1.49 0 00-.44-1.061" fill="#FFF" mask="url(#b)"/></g></g></svg>