<svg xmlns="http://www.w3.org/2000/svg" xmlns:xlink="http://www.w3.org/1999/xlink" width="18" height="18"><defs><path id="a" d="M0 0h18v18H0z"/></defs><g fill="none" fill-rule="evenodd"><mask id="b" fill="#fff"><use xlink:href="#a"/></mask><path fill="#FFF" d="M14.884 4.196a1.08 1.08 0 11-2.158.002 1.08 1.08 0 012.158-.002M9 12a3 3 0 110-6 3 3 0 010 6m0-7.621a4.621 4.621 0 100 9.242A4.621 4.621 0 009 4.38m7.326 8.258a4.97 4.97 0 01-.31 1.67 2.98 2.98 0 01-1.708 1.709 4.97 4.97 0 01-1.671.31c-.95.043-1.233.052-3.637.052-2.403 0-2.688-.01-3.637-.052a4.97 4.97 0 01-1.671-.31 2.789 2.789 0 01-1.035-.673 2.806 2.806 0 01-.673-1.035 4.995 4.995 0 01-.31-1.671c-.043-.95-.052-1.233-.052-3.637 0-2.403.009-2.687.052-3.637.007-.57.112-1.136.31-1.671.145-.391.375-.744.673-1.035a2.814 2.814 0 011.035-.673 4.995 4.995 0 011.67-.31c.95-.043 1.235-.052 3.638-.052 2.404 0 2.688.009 3.637.052.57.007 1.136.112 1.67.31.392.145.746.375 1.036.673.299.29.529.644.673 1.035a4.97 4.97 0 01.31 1.67c.043.95.052 1.235.052 3.638 0 2.404-.01 2.688-.052 3.637m1.62-7.347a6.656 6.656 0 00-.418-2.185 4.403 4.403 0 00-1.04-1.594A4.392 4.392 0 0014.897.473a6.635 6.635 0 00-2.185-.42C11.75.01 11.445 0 9 0 6.556 0 6.25.01 5.29.054a6.63 6.63 0 00-2.185.419A4.388 4.388 0 001.51 1.51 4.388 4.388 0 00.473 3.105a6.63 6.63 0 00-.42 2.185C.01 6.25 0 6.556 0 9c0 2.445.01 2.75.054 3.71a6.64 6.64 0 00.419 2.186c.225.6.58 1.144 1.038 1.593.449.458.993.813 1.594 1.039a6.629 6.629 0 002.185.418C6.25 17.989 6.556 18 9 18c2.445 0 2.75-.011 3.71-.054a6.634 6.634 0 002.186-.418 4.604 4.604 0 002.632-2.632c.26-.7.403-1.44.419-2.185.042-.96.053-1.266.053-3.711 0-2.444-.011-2.75-.053-3.71" mask="url(#b)"/></g></svg>