<svg xmlns="http://www.w3.org/2000/svg" width="19" height="15"><path fill="#FFF" fill-rule="evenodd" d="M16.516 3.722c.008.162.011.326.011.488 0 4.99-3.797 10.741-10.74 10.741A10.69 10.69 0 010 13.255a7.583 7.583 0 005.589-1.562 3.78 3.78 0 01-3.527-2.62 3.866 3.866 0 001.705-.066A3.778 3.778 0 01.74 5.304v-.047a3.759 3.759 0 001.71.473A3.773 3.773 0 011.281.69a10.713 10.713 0 007.78 3.944 3.813 3.813 0 01-.096-.86A3.773 3.773 0 0112.74 0a3.77 3.77 0 012.756 1.191 7.602 7.602 0 002.397-.916 3.793 3.793 0 01-1.66 2.088A7.56 7.56 0 0018.4 1.77a7.64 7.64 0 01-1.884 1.953"/></svg>