<svg xmlns="http://www.w3.org/2000/svg" xmlns:xlink="http://www.w3.org/1999/xlink" width="100" height="55"><defs><path id="a" d="M0 .247h99.401v50.405H0z"/></defs><g fill="none" fill-rule="evenodd"><path fill="#5D5D66" d="M15.81 51.254c2.503 0 3.497-.726 3.497-1.971 0-1.261-1.043-1.994-3.498-1.994h-1.12v3.965h1.12zm5.659 3.29h-2.276l-2.26-2.213c-.343.03-.7.051-1.06.051H14.69v2.161h-1.971V46.14h3.154c3.497 0 5.433 1.215 5.433 3.144 0 1.3-.863 2.183-2.52 2.664l2.683 2.596zm2.522-8.405h8.014v1.149h-6.048v3.264h5.351v1.123h-5.351v1.718h6.309v1.15h-8.275zm9.885 6.774l1.611-.59c.601.652 1.365 1.168 2.893 1.168 1.287 0 2.194-.455 2.194-1.145 0-.73-.748-1.05-2.112-1.456l-.83-.25c-1.838-.546-2.958-1.16-2.958-2.46 0-1.25 1.447-2.139 3.543-2.139 1.676 0 2.8.42 3.562 1.32l-1.545.63c-.473-.555-1.04-.814-2.017-.814-1.008 0-1.626.41-1.626.977 0 .633.538.92 1.806 1.285l.83.25c2.146.629 3.302 1.298 3.302 2.642 0 1.475-1.726 2.324-4.098 2.324-2.41 0-3.856-.79-4.555-1.742m21.48-2.568c0-1.796-1.852-3.139-4.487-3.139-2.636 0-4.502 1.343-4.502 3.14 0 1.79 1.866 3.137 4.502 3.137 2.635 0 4.487-1.347 4.487-3.138m-10.991 0c0-2.509 2.894-4.316 6.504-4.316 3.59 0 6.488 1.807 6.488 4.316 0 2.508-2.898 4.31-6.488 4.31-3.61 0-6.504-1.802-6.504-4.31m18.44.909c2.505 0 3.496-.726 3.496-1.971 0-1.261-1.022-1.994-3.495-1.994H61.7v3.965h1.105zm5.66 3.29h-2.261L63.94 52.33c-.353.03-.711.051-1.069.051h-1.17v2.161h-1.968V46.14h3.138c3.496 0 5.448 1.215 5.448 3.144 0 1.3-.878 2.183-2.522 2.664l2.667 2.596zm5.154-7.256h-3.74v-1.149h9.43v1.149h-3.738v7.255h-1.952zm6.634 5.625l1.61-.59c.587.652 1.351 1.168 2.896 1.168 1.268 0 2.18-.455 2.18-1.145 0-.73-.733-1.05-2.116-1.456l-.83-.25c-1.837-.546-2.943-1.16-2.943-2.46 0-1.25 1.449-2.139 3.531-2.139 1.674 0 2.81.42 3.557 1.32l-1.527.63c-.485-.555-1.04-.814-2.03-.814-.994 0-1.627.41-1.627.977 0 .633.534.92 1.822 1.285l.814.25c2.144.629 3.299 1.298 3.299 2.642 0 1.475-1.725 2.324-4.098 2.324-2.391 0-3.839-.79-4.538-1.742"/><g transform="translate(0 -.282)"><mask id="b" fill="#fff"><use xlink:href="#a"/></mask><path fill="#5D5D66" d="M68.563 33.558c4.28-15.422 11.346-23.076 13.78-22.69.003 0 .309.11.309.11.302.19.47.572.5 1.136.003.056.003.115.003.174 0 3.72-5.35 14.692-14.173 21.548l-.634.494.215-.772zM53.88 34.796c-.323-6.502 3.777-19.154 12.03-25.033.843-.599 1.497-.713 1.951-.344.335.291.5.837.496 1.631-.04 4.384-5.401 16.803-14.043 23.935l-.407.34-.027-.53zm-8.146-9.86c.619.026 1.053.33 1.256.88.727 1.986-1.839 7.087-5.759 9.994a29.494 29.494 0 01-2.194 1.456l-.356.215-.047-.412a7.25 7.25 0 01-.04-.763 9.1 9.1 0 01.07-1.096c.564-4.589 4.092-10.395 7.07-10.275zM66.825 7.04C59.495 11.338 53 23.972 51.53 33.08c-.236 1.465-.342 2.802-.31 3.976l.002.157-.685.397c-2.341 1.31-4.732 2.09-7.105 2.322-.627.062-1.265.084-1.894.067l-.234-.017c-.561-.055-1.004-.2-1.368-.448l-.312-.21.302-.223c.744-.553 1.128-.897 1.23-1.024l.02-.025.026-.02c5.072-3.84 8.688-10.038 8.762-13.201.02-.838-.192-1.45-.632-1.815-.33-.276-.791-.42-1.373-.427-1.89-.026-4.347 1.411-6.74 3.944-2.992 3.166-5.886 8.209-5.886 12 0 .168.005.333.016.498l.014.182-.292.135c-.687.313-1.451.61-2.266.88l-1.07.32c.077.299.244.848.549 1.3.299.46.649.692 1.043.692.453 0 1.447-.355 2.661-.947l.187-.092.133.16c.884 1.056 2.375 1.616 4.433 1.662 3.447.063 7.189-1.235 10.53-3.652l.321-.23.093.383c.539 2.218 1.637 3.222 3.672 3.36l.28.019c2.333.085 7.469-3.099 9.574-4.742l.39-.306.037.495c.184 2.49.833 4.371 1.694 4.91.113.075.342.166.792.189.958.049 2.208-.235 2.926-.555a10.471 10.471 0 01-1.179-1.158v-.002c0-.016-.163-.227-.163-.227l-.032-.044-.11-.168-.054-.104v.002c0-.002-.075-.146-.075-.149l-.05-.115-.054-.14a5.55 5.55 0 01-.039-.119 4.945 4.945 0 01-.043-.128l-.002-.01-.062-.277-.02-.13c.005.038-.022-.13-.022-.13a4.621 4.621 0 01-.024-.302.266.266 0 01-.005-.047l-.003-.05-.002-.18.005-.142v.002l.007-.152.01-.142.012-.133.007-.043c.003-.033.02-.14.02-.14l.027-.179.013-.086c.003-.022.054-.261.054-.261a.357.357 0 00.013-.05c.002-.02.18-.663.18-.663l.11-.328a4.23 4.23 0 01.036-.082c-.013.027.062-.173.062-.173l.021-.061a2.77 2.77 0 00.034-.078l.112-.26a234.5 234.5 0 01.126-.286l.023-.053.042-.075c-.003.002.065-.14.065-.14l.049-.1.137-.26.039-.075a14.149 14.149 0 00.168-.302l.021-.037.05-.083.158-.266.034-.065.043-.062.134-.21a.476.476 0 00.053-.073v-.003l-.028.04.206-.31a17.82 17.82 0 011.806-2.235c.017-.02 2.033-1.825 2.033-1.825.018-.016.853-.591.853-.591.427-.268.849-.5 1.255-.688l.04-.02.815-.322a.769.769 0 01.077-.022c-.02.005.062-.023.062-.023l.283-.08c.039-.011.445-.097.445-.097l.043-.01.046-.007.297-.042.051-.007c.029-.005.782-.02.782-.02l.1.009.29.035.085.013a45.559 45.559 0 00.419.098l.27.09.09.036.346.157c1.006.537 1.477 1.07 1.443 1.635-.072 1.14-2.183 1.943-4.858 2.962-2.956 1.128-6.31 2.408-6.807 4.21-.178.635.02 1.304.6 2.041 3.944 5.02 22.095 3.1 26.756 1.37a.856.856 0 00.554-.551 1.45 1.45 0 00.072-.487c0-.974-.654-2.334-1.135-3.15-1.26.779-7.718 4.499-16.15 4.666-5.814.117-7.6-1.27-8.075-2.454-.409-1.023.08-2.097.746-2.706 1.13-1.056 2.377-1.32 4.27-1.717 1.362-.286 3.056-.644 5.317-1.421.028-.008.364-.133.364-.133.024-.006.11-.04.11-.04l.248-.1a2.926 2.926 0 00.168-.071l.143-.065c.015-.01.1-.045.1-.045.022-.007.135-.067.135-.067l.071-.036.07-.038.126-.065.08-.044.074-.044.043-.024.15-.093.087-.056c.01-.004.2-.13.2-.13s.039-.031.041-.031l.187-.15.038-.027c.006-.008.148-.132.148-.132.024-.02.049-.044.049-.044l.123-.119a.26.26 0 01.028-.033c.022-.021.066-.074.066-.074l.097-.109.122-.17.06-.096a.787.787 0 01.03-.045 9.73 9.73 0 01.064-.122l.034-.068c-.005.01.112-.308.112-.308l.01-.05.023-.106.008-.043.01-.099.005-.039.003-.027c.002-.024.002-.11.002-.11l-.002-.072-.008-.11-.005-.049a9.983 9.983 0 01-.018-.104l-.015-.069a1.662 1.662 0 00-.018-.069l-.01-.044c-.013-.034-.052-.155-.052-.155a.843.843 0 00-.021-.05l-.054-.124-.042-.084-.031-.061-.041-.066-.026-.043-.099-.155a.918.918 0 01-.031-.041l-.04-.053-.028-.034a12.274 12.274 0 00-.142-.178c-.025-.021-.55-.505-.55-.505a1.938 1.938 0 00-.1-.075l-.074-.056a8.068 8.068 0 00-.17-.117l-.037-.028c-.004-.004-.165-.101-.165-.101l-.207-.125c-1.796-1.001-4.23-1.29-6.519-.772l-.857.195.609-.637c3.242-3.396 5.486-6.588 7.061-10.042.974-2.139 1.467-3.955 1.467-5.399 0-2.839-1.872-3.252-2.68-3.298a4.128 4.128 0 00-2.138.492c-4.438 2.444-14.298 13.446-16.965 27.808l-.023.108-.089.062c-1.014.702-6.21 4.184-9.02 3.671a2.948 2.948 0 01-.986-.345c-.616-.374-1.002-.994-1.29-2.08l-.044-.158.123-.11c3.082-2.747 6.371-6.344 9.776-10.69 7.908-10.059 9.292-16.57 8.079-19.088a4.942 4.942 0 01-.1-.196 2.215 2.215 0 00-1.394-1.075c-1.052-.278-2.435.062-4.002.984zM38.544.476c-.632.195-2.042.97-2.562 1.261.948 2 1.559 4.889 1.559 7.397 0 .12 0 .238-.004.356-.172 7.052-1.527 13.67-4.033 19.674-2.308 5.49-4.467 8.477-6.603 9.126-.49.146-.925.076-1.3-.21-1.134-.87-1.625-3.82-1.5-9.023l.06-1.782.147-2.999c.072-2.98.25-7.14 1-12.831.088-.61.15-1.375.16-1.76.003-.142-.042-.24-.151-.314-.578-.39-2.364.021-2.816.182-3.414 7.702-7.902 18.398-13.347 31.802l-.51-.094c-.27-10.516-.905-18.745-1.887-24.458-.782-4.615-1.31-6.351-1.613-6.994-.4-.81-1.01-1.058-1.918-.782C2.554 9.23 1.46 9.76 0 10.58c.48 1.039 1.398 3.574 1.44 3.691.772 2.534 1.41 5.716 1.96 9.745.693 5.173 1.042 10.695 1.042 16.457 0 1.16-.014 2.332-.043 3.51-.062 2.61-.298 4.837-.687 6.67 2.094-.948 3.486-1.767 4.079-2.426.634-.7 1.54-2.494 2.695-5.328l.812-2.126c2.1-5.321 5.15-12.252 9.068-20.604l.63-1.403-.125 1.537c-.35 4.386-.564 7.882-.619 10.11-.132 5.375.14 9.084.807 11.026.624 1.852 1.721 2.506 3.353 2.002 1.546-.465 3.419-2.115 5.564-4.902 2.175-2.833 4.173-6.234 5.934-10.106 3.86-8.448 5.904-16.323 6.076-23.404l-.014-1.362c-.05-1.372-.286-2.332-.702-2.848-.49-.62-1.408-.736-2.726-.342z" mask="url(#b)"/></g><path fill="#5D5D66" d="M92.48 45.523c-.105-.058-.275-.088-.506-.088h-.356v.857h.378c.177 0 .307-.015.397-.053.162-.064.244-.187.244-.371 0-.17-.051-.286-.157-.345zm-.45-.372c.293 0 .51.028.645.084.246.102.367.304.367.599 0 .213-.076.369-.23.47-.083.05-.198.09-.343.115.187.027.321.106.406.232.086.125.13.247.13.363v.175c0 .054 0 .112.006.176.005.062.01.103.019.122l.014.031h-.388a.316.316 0 00-.008-.025c0-.007-.003-.014-.005-.025l-.01-.078v-.186c0-.273-.075-.455-.222-.54-.088-.05-.243-.076-.466-.076h-.327v.93H91.2v-2.367h.83zm-1.27-.122c-.36.363-.54.8-.54 1.313 0 .517.18.958.538 1.32.359.366.8.55 1.312.55a1.77 1.77 0 001.313-.55 1.8 1.8 0 00.54-1.32c0-.513-.179-.95-.54-1.313a1.782 1.782 0 00-1.313-.544c-.511 0-.948.18-1.31.544zm2.838 2.84a2.083 2.083 0 01-1.528.635 2.065 2.065 0 01-1.524-.634 2.092 2.092 0 01-.625-1.53c0-.594.212-1.1.631-1.523.42-.42.924-.627 1.518-.627a2.09 2.09 0 011.528.627c.42.42.632.928.632 1.523 0 .598-.212 1.107-.632 1.53z"/></g></svg>