<svg xmlns="http://www.w3.org/2000/svg" xmlns:xlink="http://www.w3.org/1999/xlink" width="21" height="23" viewBox="0 0 21 23">
  <defs>
    <polygon id="entertainment-a" points=".276 0 9 0 9 9 .276 9"/>
  </defs>
  <g fill="none" fill-rule="evenodd">
    <path fill="#FFF" d="M1.5401,5 L8.5001,13.699 L15.4601,5 L1.5401,5 Z M8.5001,15 C8.3481,15 8.2041,14.932 8.1091,14.813 L0.1091,4.813 C-0.0109,4.662 -0.0339,4.456 0.0501,4.283 C0.1331,4.11 0.3081,4 0.5001,4 L16.5001,4 C16.6921,4 16.8671,4.11 16.9501,4.283 C17.0341,4.456 17.0111,4.662 16.8911,4.813 L8.8911,14.813 C8.7961,14.932 8.6521,15 8.5001,15 L8.5001,15 Z"/>
    <g transform="translate(12)">
      <mask id="entertainment-b" fill="#fff">
        <use xlink:href="#entertainment-a"/>
      </mask>
      <path fill="#FFF" d="M4.5001,0 C2.5471,0 0.8971,1.258 0.2761,3 L6.5811,3 C6.7731,3 6.9481,3.11 7.0311,3.283 C7.1151,3.456 7.0921,3.662 6.9721,3.813 L3.0251,8.745 C3.4961,8.913 3.9921,9 4.5001,9 C6.9811,9 9.0001,6.981 9.0001,4.5 C9.0001,2.019 6.9811,0 4.5001,0" mask="url(#entertainment-b)"/>
    </g>
    <path fill="#FFF" d="M8.5001,23 C8.2241,23 8.0001,22.776 8.0001,22.5 L8.0001,14.5 C8.0001,14.224 8.2241,14 8.5001,14 C8.7761,14 9.0001,14.224 9.0001,14.5 L9.0001,22.5 C9.0001,22.776 8.7761,23 8.5001,23"/>
    <path fill="#FFF" d="M13.0001 23L4.5001 23C4.2241 23 4.0001 22.776 4.0001 22.5 4.0001 22.224 4.2241 22 4.5001 22L13.0001 22C13.2761 22 13.5001 22.224 13.5001 22.5 13.5001 22.776 13.2761 23 13.0001 23M14.6598 6L2.3398 6 1.0598 6 1.8598 7 8.1098 14.813C8.2038 14.932 8.3478 15 8.4998 15 8.6528 15 8.7958 14.932 8.8908 14.813L15.1408 7 15.9408 6 14.6598 6z"/>
  </g>
</svg>
