<svg xmlns="http://www.w3.org/2000/svg" xmlns:xlink="http://www.w3.org/1999/xlink" width="24" height="22" viewBox="0 0 24 22">
  <defs>
    <polygon id="outdoor-a" points=".995 -.001 6 -.001 6 2 .995 2"/>
  </defs>
  <g fill="none" fill-rule="evenodd">
    <path fill="#FFF" d="M23.5 14L.5 14C.224 14 0 14.224 0 14.5 0 14.776.224 15 .5 15L23.5 15C23.776 15 24 14.776 24 14.5 24 14.224 23.776 14 23.5 14M11 16.5C11 16.224 10.776 16 10.5 16L6.5 16C6.224 16 6 16.224 6 16.5 6 16.776 6.224 17 6.5 17L10.5 17C10.776 17 11 16.776 11 16.5M18.5 17L14.5 17C14.224 17 14 17.224 14 17.5 14 17.776 14.224 18 14.5 18L18.5 18C18.776 18 19 17.776 19 17.5 19 17.224 18.776 17 18.5 17M13 19.5C13 19.224 12.776 19 12.5 19L9.5 19C9.224 19 9 19.224 9 19.5 9 19.776 9.224 20 9.5 20L12.5 20C12.776 20 13 19.776 13 19.5M12.5195 17L12.5095 17C12.5075 17 12.5065 17.001 12.5045 17.001 12.5025 17.001 12.5015 17 12.4995 17 12.2235 17 11.9995 17.224 11.9995 17.5 11.9995 17.776 12.2235 18 12.4995 18 12.5035 18 12.5055 17.998 12.5095 17.998 12.5135 17.998 12.5155 18 12.5195 18 12.7955 18 13.0195 17.776 13.0195 17.5 13.0195 17.224 12.7955 17 12.5195 17M14.5195 19L14.5095 19C14.5075 19 14.5065 19.001 14.5045 19.001 14.5025 19.001 14.5015 19 14.4995 19 14.2235 19 13.9995 19.224 13.9995 19.5 13.9995 19.776 14.2235 20 14.4995 20 14.5035 20 14.5055 19.998 14.5095 19.998 14.5135 19.998 14.5155 20 14.5195 20 14.7955 20 15.0195 19.776 15.0195 19.5 15.0195 19.224 14.7955 19 14.5195 19M7.5195 19L7.5095 19C7.5075 19 7.5065 19.001 7.5045 19.001 7.5025 19.001 7.5015 19 7.4995 19 7.2235 19 6.9995 19.224 6.9995 19.5 6.9995 19.776 7.2235 20 7.4995 20 7.5035 20 7.5055 19.998 7.5095 19.998 7.5135 19.998 7.5155 20 7.5195 20 7.7955 20 8.0195 19.776 8.0195 19.5 8.0195 19.224 7.7955 19 7.5195 19M10.5195 21L10.5095 21C10.5075 21 10.5065 21.001 10.5045 21.001 10.5025 21.001 10.5015 21 10.4995 21 10.2235 21 9.9995 21.224 9.9995 21.5 9.9995 21.776 10.2235 22 10.4995 22 10.5035 22 10.5055 21.998 10.5095 21.998 10.5135 21.998 10.5155 22 10.5195 22 10.7955 22 11.0195 21.776 11.0195 21.5 11.0195 21.224 10.7955 21 10.5195 21M12.5195 21L12.5095 21C12.5075 21 12.5065 21.001 12.5045 21.001 12.5025 21.001 12.5015 21 12.4995 21 12.2235 21 11.9995 21.224 11.9995 21.5 11.9995 21.776 12.2235 22 12.4995 22 12.5035 22 12.5055 21.998 12.5095 21.998 12.5135 21.998 12.5155 22 12.5195 22 12.7955 22 13.0195 21.776 13.0195 21.5 13.0195 21.224 12.7955 21 12.5195 21M14.5195 21L14.5095 21C14.5075 21 14.5065 21.001 14.5045 21.001 14.5025 21.001 14.5015 21 14.4995 21 14.2235 21 13.9995 21.224 13.9995 21.5 13.9995 21.776 14.2235 22 14.4995 22 14.5035 22 14.5055 21.998 14.5095 21.998 14.5135 21.998 14.5155 22 14.5195 22 14.7955 22 15.0195 21.776 15.0195 21.5 15.0195 21.224 14.7955 21 14.5195 21"/>
    <g transform="translate(18 2)">
      <mask id="outdoor-b" fill="#fff">
        <use xlink:href="#outdoor-a"/>
      </mask>
      <path fill="#FFF" d="M1.4902,0.9995 C1.6982,1.0205 2.5102,1.4505 3.2262,1.9185 C3.3102,1.9735 3.4052,1.9995 3.5002,1.9995 C3.6172,1.9995 3.7332,1.9585 3.8272,1.8785 C4.1582,1.5915 5.0032,0.9995 5.5002,0.9995 C5.7762,0.9995 6.0002,0.7765 6.0002,0.4995 C6.0002,0.2235 5.7762,-0.0005 5.5002,-0.0005 C4.7582,-0.0005 3.9112,0.5525 3.4682,0.8865 C2.8352,0.4905 1.9572,-0.0005 1.5002,-0.0005 C1.2232,-0.0005 0.9952,0.2235 0.9952,0.4995 C0.9952,0.7755 1.2142,0.9995 1.4902,0.9995" mask="url(#outdoor-b)"/>
    </g>
    <path fill="#FFF" d="M11.5 13C13.981 13 16 10.981 16 8.5 16 6.019 13.981 4 11.5 4 9.019 4 7 6.019 7 8.5 7 10.981 9.019 13 11.5 13M11.5 3C11.776 3 12 2.776 12 2.5L12 .5C12 .224 11.776 0 11.5 0 11.224 0 11 .224 11 .5L11 2.5C11 2.776 11.224 3 11.5 3M8.0674 3.5537C8.1594 3.7147 8.3284 3.8037 8.5004 3.8037 8.5854 3.8037 8.6714 3.7827 8.7504 3.7367 8.9894 3.5987 9.0714 3.2927 8.9324 3.0537L7.9324 1.3217C7.7954 1.0817 7.4884 1.0017 7.2504 1.1387 7.0104 1.2767 6.9284 1.5827 7.0674 1.8217L8.0674 3.5537zM4.3223 4.9331L6.0533 5.9331C6.1333 5.9781 6.2183 6.0001 6.3033 6.0001 6.4753 6.0001 6.6443 5.9111 6.7363 5.7501 6.8753 5.5111 6.7933 5.2051 6.5533 5.0671L4.8223 4.0671C4.5833 3.9301 4.2763 4.0101 4.1393 4.2501 4.0013 4.4891 4.0833 4.7951 4.3223 4.9331M16.4463 11.9331L18.1773 12.9331C18.2573 12.9781 18.3423 13.0001 18.4273 13.0001 18.5993 13.0001 18.7683 12.9111 18.8603 12.7501 18.9993 12.5111 18.9173 12.2051 18.6773 12.0671L16.9463 11.0671C16.7083 10.9311 16.4013 11.0101 16.2633 11.2501 16.1253 11.4891 16.2073 11.7951 16.4463 11.9331M3.5 9L5.5 9C5.776 9 6 8.776 6 8.5 6 8.224 5.776 8 5.5 8L3.5 8C3.224 8 3 8.224 3 8.5 3 8.776 3.224 9 3.5 9M17.5 8C17.224 8 17 8.224 17 8.5 17 8.776 17.224 9 17.5 9L19.5 9C19.776 9 20 8.776 20 8.5 20 8.224 19.776 8 19.5 8L17.5 8zM6.0537 11.0669L4.3227 12.0669C4.0827 12.2049 4.0007 12.5109 4.1397 12.7499 4.2317 12.9109 4.4007 12.9999 4.5727 12.9999 4.6577 12.9999 4.7427 12.9789 4.8227 12.9329L6.5537 11.9329C6.7927 11.7949 6.8747 11.4889 6.7367 11.2499 6.5997 11.0099 6.2927 10.9289 6.0537 11.0669M16.6963 6C16.7813 6 16.8673 5.979 16.9463 5.933L18.6773 4.933C18.9173 4.795 18.9993 4.489 18.8603 4.25 18.7223 4.01 18.4153 3.928 18.1773 4.067L16.4463 5.067C16.2073 5.205 16.1253 5.511 16.2633 5.75 16.3553 5.911 16.5243 6 16.6963 6M14.25 3.7368C14.329 3.7818 14.415 3.8038 14.5 3.8038 14.672 3.8038 14.841 3.7148 14.933 3.5538L15.933 1.8218C16.071 1.5828 15.989 1.2768 15.75 1.1388 15.512 1.0028 15.205 1.0818 15.067 1.3218L14.067 3.0538C13.929 3.2928 14.011 3.5988 14.25 3.7368M4.5 16C4.224 16 4 16.224 4 16.5 4 16.776 4.224 17 4.5 17 4.776 17 5 16.776 5 16.5 5 16.224 4.776 16 4.5 16"/>
  </g>
</svg>
