<?xml version="1.0" encoding="UTF-8"?>
<svg width="32px" height="37px" viewBox="0 0 32 37" version="1.1" xmlns="http://www.w3.org/2000/svg" xmlns:xlink="http://www.w3.org/1999/xlink">
    <!-- Generator: sketchtool 57 (101010) - https://sketch.com -->
    <title>2B53F62E-9669-41FD-B813-DDD904A4AA15</title>
    <desc>Created with sketchtool.</desc>
    <defs>
        <polygon id="path-1" points="0 0.000172943128 24 0.000172943128 24 24.0008 0 24.0008"></polygon>
    </defs>
    <g id="Batch-1-Desktop" stroke="none" stroke-width="1" fill="none" fill-rule="evenodd">
        <g id="-Local-Area-Desktop" transform="translate(-722.000000, -3906.000000)">
            <g id="Desktop-/-Pattern-/-Explore-The-Area" transform="translate(0.000000, 3109.000000)">
                <g id="Bitmap">
                    <g transform="translate(405.000000, 426.000000)">
                        <g id="Desktop-/-Icon-/-Map-/-Resort" transform="translate(317.000000, 371.000000)">
                            <g>
                                <path d="M32,0 L32,32 L20.485,32 L16,36.4852814 L11.514,32 L0,32 L0,0 L32,0 Z" id="Combined-Shape" fill="#5D5D66"></path>
                                <g id="Group-3" transform="translate(4.000000, 4.000000)">
                                    <mask id="mask-2" fill="white">
                                        <use xlink:href="#path-1"></use>
                                    </mask>
                                    <g id="Clip-2"></g>
                                    <path d="M21,9.501 C21,9.777 20.776,10.001 20.5,10.001 L18.5,10.001 C18.224,10.001 18,9.777 18,9.501 L18,5.501 C18,5.225 18.224,5.001 18.5,5.001 L20.5,5.001 C20.776,5.001 21,5.225 21,5.501 L21,9.501 Z M21,15.501 C21,15.777 20.776,16.001 20.5,16.001 L18.5,16.001 C18.224,16.001 18,15.777 18,15.501 L18,11.501 C18,11.225 18.224,11.001 18.5,11.001 L20.5,11.001 C20.776,11.001 21,11.225 21,11.501 L21,15.501 Z M21,21.501 C21,21.777 20.776,22.001 20.5,22.001 L18.5,22.001 C18.224,22.001 18,21.777 18,21.501 L18,17.501 C18,17.225 18.224,17.001 18.5,17.001 L20.5,17.001 C20.776,17.001 21,17.225 21,17.501 L21,21.501 Z M17,9.501 C17,9.777 16.776,10.001 16.5,10.001 L14.5,10.001 C14.224,10.001 14,9.777 14,9.501 L14,5.501 C14,5.225 14.224,5.001 14.5,5.001 L16.5,5.001 C16.776,5.001 17,5.225 17,5.501 L17,9.501 Z M17,15.501 C17,15.777 16.776,16.001 16.5,16.001 L14.5,16.001 C14.224,16.001 14,15.777 14,15.501 L14,11.501 C14,11.225 14.224,11.001 14.5,11.001 L16.5,11.001 C16.776,11.001 17,11.225 17,11.501 L17,15.501 Z M17,21.501 C17,21.777 16.776,22.001 16.5,22.001 L14.5,22.001 C14.224,22.001 14,21.777 14,21.501 L14,17.501 C14,17.225 14.224,17.001 14.5,17.001 L16.5,17.001 C16.776,17.001 17,17.225 17,17.501 L17,21.501 Z M10,15.501 C10,15.777 9.776,16.001 9.5,16.001 L7.5,16.001 C7.224,16.001 7,15.777 7,15.501 L7,11.501 C7,11.225 7.224,11.001 7.5,11.001 L9.5,11.001 C9.776,11.001 10,11.225 10,11.501 L10,15.501 Z M10,21.501 C10,21.777 9.776,22.001 9.5,22.001 L7.5,22.001 C7.224,22.001 7,21.777 7,21.501 L7,17.501 C7,17.225 7.224,17.001 7.5,17.001 L9.5,17.001 C9.776,17.001 10,17.225 10,17.501 L10,21.501 Z M5,15.501 C5,15.777 4.776,16.001 4.5,16.001 L2.5,16.001 C2.224,16.001 2,15.777 2,15.501 L2,11.501 C2,11.225 2.224,11.001 2.5,11.001 L4.5,11.001 C4.776,11.001 5,11.225 5,11.501 L5,15.501 Z M5,21.501 C5,21.777 4.776,22.001 4.5,22.001 L2.5,22.001 C2.224,22.001 2,21.777 2,21.501 L2,17.501 C2,17.225 2.224,17.001 2.5,17.001 L4.5,17.001 C4.776,17.001 5,17.225 5,17.501 L5,21.501 Z M23.658,4.027 L11.658,0.027 C11.505,-0.026 11.338,0.001 11.207,0.095 C11.077,0.189 11,0.34 11,0.501 L11,6.151 L0.329,10.031 C0.131,10.103 0,10.291 0,10.501 L0,23.501 C0,23.777 0.224,24.001 0.5,24.001 L11.5,24.001 L23.5,24.001 C23.776,24.001 24,23.777 24,23.501 L24,4.501 C24,4.286 23.862,4.095 23.658,4.027 L23.658,4.027 Z" id="Fill-1" fill="#FFFFFF" mask="url(#mask-2)"></path>
                                </g>
                            </g>
                        </g>
                    </g>
                </g>
            </g>
        </g>
    </g>
</svg>