<svg xmlns="http://www.w3.org/2000/svg" width="29" height="33" viewBox="0 0 29 33">
  <path fill="#5F5F66" fill-rule="evenodd" d="M28.41,18.2030292 C28.332,9.53602916 21.141,4.36402916 14.22,4.36402916 C7.23,4.36402916 -2.22044605e-14,9.63502916 -2.22044605e-14,18.4550292 C-2.22044605e-14,19.0700292 0.441,19.6010292 1.038,19.7120292 C1.119,19.7300292 1.2,19.7390292 1.284,19.7390292 C1.815,19.7390292 2.28,19.4180292 2.478,18.9260292 C2.853,17.9840292 4.461,17.0150292 5.661,17.0150292 C7.098,17.0150292 8.289,17.7200292 8.772,18.8480292 C8.976,19.3220292 9.438,19.6250292 9.954,19.6250292 L9.987,19.6250292 C10.518,19.6130292 10.977,19.2770292 11.16,18.7790292 C11.469,17.9240292 12.438,17.2670292 13.587,17.0780292 L13.587,26.0690292 C13.587,30.1610292 13.101,31.2230292 11.229,31.2230292 C9.246,31.2230292 9.171,29.4350292 9.168,29.2340292 C9.168,28.9070292 8.904,28.6430292 8.58,28.6430292 C8.253,28.6430292 7.989,28.9070292 7.989,29.2340292 C7.989,29.2670292 8.028,32.3990292 11.229,32.3990292 C14.766,32.3990292 14.766,28.8890292 14.766,26.0690292 L14.766,17.0450292 C16.002,17.1920292 17.067,17.8760292 17.397,18.7790292 C17.58,19.2770292 18.039,19.6130292 18.561,19.6250292 C19.092,19.6460292 19.575,19.3340292 19.782,18.8480292 C20.268,17.7200292 21.459,17.0150292 22.896,17.0150292 C24.006,17.0150292 25.551,18.0890292 25.989,18.9290292 C26.205,19.3520292 26.64,19.6160292 27.141,19.6250292 C27.846,19.6220292 28.419,19.0430292 28.419,18.3440292 C28.419,18.2930292 28.416,18.2480292 28.41,18.2030292 M27.147,18.4490292 C27.105,18.4460292 27.054,18.4250292 27.033,18.3890292 C26.424,17.2130292 24.483,15.8390292 22.896,15.8390292 C20.982,15.8390292 19.374,16.8140292 18.702,18.3830292 C18.684,18.4190292 18.636,18.4520292 18.6,18.4490292 C18.558,18.4460292 18.519,18.4160292 18.504,18.3800292 C17.961,16.8830292 16.224,15.8390292 14.28,15.8390292 C12.336,15.8390292 10.596,16.8830292 10.053,18.3770292 C10.038,18.4160292 9.999,18.4460292 9.957,18.4490292 L9.948,18.4490292 C9.909,18.4460292 9.873,18.4190292 9.855,18.3860292 C9.183,16.8140292 7.578,15.8390292 5.661,15.8390292 C3.975,15.8390292 1.935,17.1050292 1.383,18.4940292 C1.365,18.5360292 1.32,18.5600292 1.284,18.5600292 L1.263,18.5540292 C1.215,18.5450292 1.179,18.5060292 1.179,18.4550292 C1.179,10.3700292 7.809,5.53702916 14.22,5.53702916 C20.574,5.53702916 27.18,10.2890292 27.231,18.2450292 C27.231,18.2690292 27.234,18.3170292 27.24,18.3440292 C27.24,18.3980292 27.192,18.4490292 27.147,18.4490292 M5.13,4.32202916 L6.639,1.85602916 C6.81,1.58002916 7.173,1.49302916 7.449,1.65802916 C7.728,1.83202916 7.815,2.19502916 7.644,2.47102916 L6.135,4.93702916 C6.024,5.11702916 5.832,5.21602916 5.634,5.21602916 C5.529,5.21602916 5.421,5.18902916 5.325,5.13202916 C5.049,4.96102916 4.962,4.59802916 5.13,4.32202916 M10.539,3.55402916 C10.635,3.61702916 10.743,3.64102916 10.848,3.64102916 C11.046,3.64102916 11.238,3.54202916 11.349,3.36202916 L12.858,0.89602916 C13.029,0.62002916 12.942,0.25702916 12.663,0.0890291599 C12.387,-0.0849708401 12.024,0.00502915994 11.853,0.28102916 L10.344,2.74702916 C10.176,3.02302916 10.263,3.38902916 10.539,3.55402916 M15.561,2.74702916 L17.07,0.28102916 C17.238,0.00502915994 17.601,-0.0849708401 17.88,0.0890291599 C18.156,0.25702916 18.243,0.62002916 18.075,0.89602916 L16.566,3.36202916 C16.455,3.54202916 16.26,3.64102916 16.062,3.64102916 C15.957,3.64102916 15.852,3.61702916 15.756,3.55402916 C15.477,3.38902916 15.39,3.02302916 15.561,2.74702916 M20.97,5.13202916 C21.066,5.18902916 21.171,5.21602916 21.276,5.21602916 C21.474,5.21602916 21.669,5.11702916 21.78,4.93702916 L23.289,2.47102916 C23.457,2.19502916 23.37,1.83202916 23.094,1.65802916 C22.818,1.49302916 22.452,1.58002916 22.284,1.85602916 L20.775,4.32202916 C20.604,4.59802916 20.691,4.96102916 20.97,5.13202916"/>
</svg>
