<svg xmlns="http://www.w3.org/2000/svg" width="29" height="27" viewBox="0 0 29 27">
  <path fill="#5F5F66" fill-rule="evenodd" d="M14.157901,21.325 C14.257901,21.325 14.357901,21.35 14.447901,21.395 L21.692901,25.205 L20.310401,17.135 C20.272901,16.9325 20.342901,16.7275 20.487901,16.585 L26.347901,10.8675 L18.250401,9.6925 C18.047901,9.6625 17.870401,9.535 17.777901,9.35 L14.157901,2.01 L10.537901,9.35 C10.445401,9.535 10.267901,9.6625 10.065401,9.6925 L1.96790101,10.8675 L7.82790101,16.585 C7.97290101,16.7275 8.04290101,16.9325 8.00540101,17.135 L6.62290101,25.205 L13.867901,21.395 C13.957901,21.35 14.057901,21.325 14.157901,21.325 M22.522901,26.9725 C22.422901,26.9725 22.322901,26.9475 22.230401,26.9 L14.157901,22.655 L6.08540101,26.9 C5.87790101,27.005 5.61790101,26.995 5.42790101,26.8525 C5.23540101,26.7125 5.13790101,26.4775 5.17790101,26.2425 L6.71790101,17.2475 L0.187901009,10.8775 C0.0179010091,10.7125 -0.0445989909,10.4625 0.0329010091,10.2375 C0.105401009,10.0125 0.300401009,9.8475 0.535401009,9.815 L9.56040101,8.5025 L13.595401,0.3225 C13.810401,-0.1075 14.505401,-0.1075 14.720401,0.3225 L18.755401,8.5025 L27.780401,9.815 C28.015401,9.8475 28.210401,10.0125 28.282901,10.2375 C28.360401,10.4625 28.297901,10.7125 28.127901,10.8775 L21.597901,17.2475 L23.137901,26.2425 C23.177901,26.4775 23.080401,26.7125 22.887901,26.8525 C22.780401,26.9325 22.650401,26.9725 22.522901,26.9725"/>
</svg>
