<svg xmlns="http://www.w3.org/2000/svg" xmlns:xlink="http://www.w3.org/1999/xlink" width="23" height="28" viewBox="0 0 23 28">
  <defs>
    <polygon id="activity-01-a" points=".002 .375 22.271 .375 22.271 27.374 .002 27.374"/>
  </defs>
  <g fill="none" fill-rule="evenodd">
    <mask id="activity-01-b" fill="#fff">
      <use xlink:href="#activity-01-a"/>
    </mask>
    <path fill="#5F5F66" d="M11.1365,23.4365 C7.169,23.4365 3.939,20.209 3.939,16.239 C3.939,13.3265 5.6765,10.719 8.364,9.5965 C8.614,9.4915 8.7315,9.204 8.629,8.954 C8.524,8.704 8.2365,8.5865 7.9865,8.6915 C4.9315,9.9665 2.959,12.9315 2.959,16.239 C2.959,20.749 6.6265,24.419 11.1365,24.419 C15.6465,24.419 19.314,20.749 19.314,16.239 C19.314,12.9315 17.344,9.969 14.2915,8.694 C14.0415,8.589 13.754,8.7065 13.649,8.9565 C13.544,9.2065 13.6615,9.494 13.9115,9.599 C16.5965,10.7215 18.334,13.329 18.334,16.239 C18.334,20.209 15.104,23.4365 11.1365,23.4365 M7.689,3.2315 L7.689,0.8665 C7.689,0.594 7.909,0.374 8.179,0.374 L14.094,0.374 C14.364,0.374 14.584,0.594 14.584,0.8665 L14.584,3.2315 C14.584,3.5015 14.364,3.7215 14.094,3.7215 L11.729,3.7215 C11.4565,3.7215 11.2365,3.5015 11.2365,3.2315 C11.2365,2.959 11.4565,2.739 11.729,2.739 L13.6015,2.739 L13.6015,1.3565 L8.6715,1.3565 L8.6715,2.739 L10.544,2.739 C10.8165,2.739 11.0365,2.959 11.0365,3.2315 C11.0365,3.5015 10.8165,3.7215 10.544,3.7215 L8.179,3.7215 C7.909,3.7215 7.689,3.5015 7.689,3.2315 M18.454,7.844 L19.7115,6.5865 L20.2515,7.1265 C20.3465,7.2215 20.4715,7.269 20.599,7.269 C20.724,7.269 20.849,7.2215 20.944,7.1265 C21.1365,6.934 21.1365,6.624 20.944,6.4315 L19.1715,4.659 C18.979,4.4665 18.669,4.4665 18.4765,4.659 C18.284,4.8465 18.284,5.1565 18.4765,5.3515 L19.0165,5.8915 L17.679,7.229 C16.2765,6.209 14.6215,5.5065 12.809,5.234 L12.809,4.414 C12.809,4.1415 12.5915,3.924 12.319,3.924 C12.049,3.924 11.829,4.1415 11.829,4.414 L11.829,5.6665 C11.829,5.9165 12.0165,6.1265 12.264,6.154 C14.099,6.3565 15.769,7.039 17.1615,8.0665 C17.1815,8.154 17.224,8.239 17.294,8.309 C17.389,8.404 17.5165,8.4515 17.6415,8.4515 L17.654,8.4515 C19.8865,10.3215 21.289,13.1265 21.289,16.239 C21.289,21.839 16.734,26.394 11.1365,26.394 C5.539,26.394 0.984,21.839 0.984,16.239 C0.984,13.1265 2.3865,10.3215 4.619,8.4515 L4.6315,8.4515 C4.7565,8.4515 4.884,8.404 4.979,8.309 C5.049,8.239 5.0915,8.154 5.1115,8.0665 C6.504,7.039 8.174,6.3565 10.0065,6.154 C10.2565,6.1265 10.444,5.9165 10.444,5.6665 L10.444,4.414 C10.444,4.1415 10.224,3.924 9.954,3.924 C9.6815,3.924 9.464,4.1415 9.464,4.414 L9.464,5.234 C7.6515,5.5065 5.9965,6.209 4.5915,7.229 L3.2565,5.8915 L3.7965,5.3515 C3.989,5.1565 3.989,4.8465 3.7965,4.659 C3.604,4.4665 3.294,4.4665 3.1015,4.659 L1.329,6.4315 C1.1365,6.624 1.1365,6.934 1.329,7.1265 C1.424,7.2215 1.549,7.269 1.674,7.269 C1.8015,7.269 1.9265,7.2215 2.0215,7.1265 L2.5615,6.5865 L3.819,7.844 C1.469,9.8915 0.0015,12.9065 0.0015,16.239 C0.0015,22.379 4.9965,27.374 11.1365,27.374 C17.2765,27.374 22.2715,22.379 22.2715,16.239 C22.2715,12.9065 20.804,9.8915 18.454,7.844 M13.4015,16.239 C13.4015,17.3215 12.6415,18.224 11.6265,18.449 L11.6265,19.789 C11.6265,20.059 11.4065,20.279 11.1365,20.279 C10.8665,20.279 10.6465,20.059 10.6465,19.789 L10.6465,18.449 C9.6315,18.224 8.8715,17.3215 8.8715,16.239 C8.8715,15.1565 9.6315,14.2565 10.6465,14.0315 L10.6465,7.9615 C10.6465,7.6915 10.8665,7.4715 11.1365,7.4715 C11.4065,7.4715 11.6265,7.6915 11.6265,7.9615 L11.6265,14.0315 C12.6415,14.2565 13.4015,15.1565 13.4015,16.239 M12.419,16.239 C12.419,15.5315 11.844,14.9565 11.1365,14.9565 C10.429,14.9565 9.854,15.5315 9.854,16.239 C9.854,16.9465 10.429,17.524 11.1365,17.524 C11.844,17.524 12.419,16.9465 12.419,16.239" mask="url(#activity-01-b)"/>
  </g>
</svg>
