<svg xmlns="http://www.w3.org/2000/svg" width="30" height="30" viewBox="0 0 30 30">
  <path fill="#5F5F66" fill-rule="evenodd" d="M29.1872727,28.5136364 L28.3281818,28.5136364 L29.6154545,25.6909091 C29.7245455,25.4536364 29.6181818,25.1727273 29.3836364,25.0663636 C29.1463636,24.9572727 28.8654545,25.0609091 28.7590909,25.2981818 L27.7009091,27.6190909 C26.5009091,26.5609091 23.1490909,23.3236364 20.2009091,17.7436364 C16.7454545,11.2063636 15.45,6.71181818 15.3,6.17181818 L15.3,4.84909091 L20.1409091,4.84909091 C20.3154545,4.84909091 20.4763636,4.75363636 20.5581818,4.59818182 C20.64,4.44818182 20.6290909,4.25727273 20.5309091,4.11818182 L19.3254545,2.34 L20.4218182,0.733636364 C20.52,0.591818182 20.5309091,0.403636364 20.4490909,0.250909091 C20.3672727,0.0954545455 20.2063636,-3.64153152e-13 20.0318182,-3.64153152e-13 L14.8281818,-3.64153152e-13 C14.5690909,-3.64153152e-13 14.3590909,0.207272727 14.3590909,0.471818182 L14.3590909,4.25454545 C14.3481818,4.29272727 14.3427273,4.33909091 14.3427273,4.38 C14.3427273,4.42363636 14.3481818,4.46727273 14.3590909,4.50272727 L14.3590909,6.17181818 C14.2090909,6.71181818 12.9163636,11.1981818 9.45818182,17.7436364 C6.51545455,23.3127273 3.16090909,26.5581818 1.95818182,27.6190909 L0.9,25.2981818 C0.790909091,25.0609091 0.512727273,24.9572727 0.275454545,25.0663636 C0.0409090909,25.1727273 -0.0654545455,25.4536364 0.0436363636,25.6909091 L1.33090909,28.5136364 L0.471818182,28.5136364 C0.212727273,28.5136364 0,28.7209091 0,28.9854545 C0,29.2445455 0.212727273,29.4545455 0.471818182,29.4545455 L29.1872727,29.4545455 C29.4463636,29.4545455 29.6590909,29.2445455 29.6590909,28.9854545 C29.6590909,28.7209091 29.4463636,28.5136364 29.1872727,28.5136364 L29.1872727,28.5136364 Z M15.3,0.940909091 L19.14,0.940909091 L18.3654545,2.07818182 C18.2563636,2.23363636 18.2563636,2.44363636 18.3654545,2.60727273 L19.2518182,3.91090909 L15.3,3.91090909 L15.3,0.940909091 Z M10.29,18.1827273 C12.8181818,13.4045455 14.1927273,9.75 14.8281818,7.83818182 C15.4663636,9.75 16.8409091,13.4045455 19.3690909,18.1827273 C22.6036364,24.3081818 26.2472727,27.6327273 27.2945455,28.5136364 L2.36454545,28.5136364 C3.41181818,27.6327273 7.05545455,24.3081818 10.29,18.1827273 L10.29,18.1827273 Z M16.7427273,18.39 C15.8563636,17.4763636 15.1418182,16.2518182 14.6318182,14.7872727 C14.1245455,16.2518182 13.4072727,17.4763636 12.5236364,18.39 L12.4936364,18.4227273 C12.4036364,18.5372727 12.2672727,18.6 12.1227273,18.6 C12.0545455,18.6 11.9863636,18.5836364 11.9209091,18.5563636 C11.6863636,18.4418182 11.5881818,18.1581818 11.7,17.9236364 C11.7354545,17.85 11.7818182,17.8036364 11.8472727,17.7354545 C12.9081818,16.6418182 13.7345455,14.94 14.1736364,12.9463636 C14.22,12.7309091 14.4109091,12.5754545 14.6318182,12.5754545 C14.8527273,12.5754545 15.0436364,12.7309091 15.0927273,12.9463636 C15.5318182,14.94 16.3581818,16.6418182 17.4190909,17.7381818 C17.4845455,17.8036364 17.5281818,17.85 17.5636364,17.9236364 C17.6781818,18.1581818 17.58,18.4418182 17.3481818,18.5536364 C17.1436364,18.6518182 16.9063636,18.5918182 16.7727273,18.4227273 L16.7427273,18.39 Z M14.0263636,25.1181818 C13.9281818,25.1181818 13.8490909,25.1454545 13.7863636,25.2 C13.7045455,25.2763636 13.6254545,25.3827273 13.5490909,25.5218182 C13.3827273,25.8081818 13.1890909,26.0263636 12.9709091,26.1654545 C12.7472727,26.31 12.4772727,26.3863636 12.1690909,26.3863636 C11.94,26.3863636 11.7245455,26.3372727 11.5309091,26.2527273 C11.3372727,26.1627273 11.1681818,26.0290909 11.0290909,25.8518182 C10.8954545,25.6854545 10.7918182,25.4781818 10.7236364,25.2409091 C10.6527273,25.0090909 10.62,24.75 10.62,24.48 C10.62,23.8909091 10.7563636,23.4163636 11.0290909,23.07 C11.3127273,22.7072727 11.6890909,22.5272727 12.15,22.5272727 C12.4663636,22.5272727 12.7336364,22.6036364 12.9463636,22.7509091 C13.1454545,22.8872727 13.3390909,23.0972727 13.5136364,23.3618182 C13.6172727,23.5118182 13.6909091,23.5772727 13.7345455,23.61 C13.7781818,23.6481818 13.8354545,23.6645455 13.9118182,23.6645455 C14.04,23.6645455 14.1463636,23.6236364 14.2363636,23.5418182 C14.3236364,23.4572727 14.3645455,23.3645455 14.3645455,23.2472727 C14.3645455,23.1190909 14.3181818,22.9772727 14.2254545,22.8163636 C14.1272727,22.6527273 13.9827273,22.4918182 13.7945455,22.3390909 C13.6036364,22.1890909 13.3663636,22.0636364 13.0909091,21.9654545 C12.8127273,21.8672727 12.5045455,21.8209091 12.1690909,21.8209091 C11.6290909,21.8209091 11.16,21.93 10.7754545,22.1509091 C10.3936364,22.3663636 10.0990909,22.68 9.89727273,23.0836364 C9.69272727,23.4872727 9.58909091,23.9645455 9.58909091,24.4963636 C9.58909091,25.2790909 9.81272727,25.9090909 10.2545455,26.37 C10.6963636,26.8254545 11.3236364,27.0572727 12.1172727,27.0572727 C12.4963636,27.0572727 12.84,27.0054545 13.14,26.9045455 C13.4372727,26.8063636 13.6854545,26.6727273 13.8763636,26.5118182 C14.0672727,26.3509091 14.2118182,26.1818182 14.3018182,26.01 C14.3918182,25.8409091 14.4354545,25.6827273 14.4354545,25.5381818 C14.4354545,25.44 14.3945455,25.3445455 14.3127273,25.2490909 C14.2336364,25.1590909 14.1436364,25.1181818 14.0263636,25.1181818 L14.0263636,25.1181818 Z M20.0209091,26.3754545 C20.0536364,26.4327273 20.07,26.49 20.07,26.5363636 C20.07,26.7109091 20.0263636,26.8418182 19.9390909,26.9345455 C19.8518182,27.0218182 19.74,27.0681818 19.5954545,27.0681818 C19.4754545,27.0681818 19.3881818,27.0409091 19.3309091,26.9809091 C19.2736364,26.9263636 19.17,26.7981818 18.9872727,26.52 L17.6645455,24.3436364 L16.7072727,25.2490909 L16.7072727,26.4136364 C16.7072727,26.6372727 16.6554545,26.7954545 16.5463636,26.9045455 C16.44,27.0136364 16.3254545,27.0681818 16.1918182,27.0681818 C16.0336364,27.0681818 15.9136364,27.0163636 15.8263636,26.9181818 C15.7336364,26.8090909 15.6872727,26.6372727 15.6872727,26.4081818 L15.6872727,20.5445455 C15.6872727,20.2772727 15.7336364,20.0781818 15.8290909,19.95 C15.9136364,19.8354545 16.0281818,19.7863636 16.1918182,19.7863636 C16.35,19.7863636 16.4727273,19.8327273 16.5627273,19.9390909 C16.6581818,20.0509091 16.7072727,20.2281818 16.7072727,20.4654545 L16.7072727,24.2372727 L18.5536364,22.2981818 C18.78,22.0581818 18.9054545,21.9518182 18.9681818,21.9027273 C19.0390909,21.8563636 19.1263636,21.8290909 19.2327273,21.8290909 C19.3581818,21.8290909 19.4590909,21.8645455 19.5409091,21.9463636 C19.62,22.02 19.6554545,22.11 19.6554545,22.2272727 C19.6554545,22.2954545 19.6063636,22.4972727 19.1563636,22.9009091 L18.3163636,23.6754545 L19.8054545,26.0127273 C19.9063636,26.1736364 19.9772727,26.2936364 20.0209091,26.3754545 L20.0209091,26.3754545 Z"/>
</svg>
