<svg xmlns="http://www.w3.org/2000/svg" width="30" height="27" viewBox="0 0 30 27">
  <path fill="#5F5F66" fill-rule="evenodd" d="M23.0873802,13.2875 C22.4298802,13.2875 21.8948802,13.8225 21.8948802,14.4825 C21.8948802,15.1375 22.4298802,15.6725 23.0873802,15.6725 C23.7473802,15.6725 24.2823802,15.1375 24.2823802,14.4825 C24.2823802,13.8225 23.7473802,13.2875 23.0873802,13.2875 L23.0873802,13.2875 Z M29.0323802,14.9275 L29.0323802,18.4875 C29.0323802,19.0425 28.5223802,19.4925 27.8923802,19.4925 L26.7298802,19.4925 C25.9773802,21.005 24.6023802,22.3375 22.8173802,23.29 L22.2573802,26.1 C22.1573802,26.6025 21.6798802,26.9975 21.1623802,26.9975 L18.3448802,26.9975 C17.8073802,26.9975 17.3373802,26.565 17.3048802,26.0275 L17.2223802,24.815 C16.5123802,24.8625 15.8273802,24.86 15.1273802,24.8075 L15.0473802,26.0275 C15.0148802,26.565 14.5473802,26.9975 14.0098802,26.9975 L11.1873802,26.9975 C10.6748802,26.9975 10.1948802,26.6025 10.0948802,26.1 L9.52488015,23.2275 C9.52238015,23.2175 9.52238015,23.2125 9.51988015,23.205 C7.03988015,21.835 5.46238015,19.765 5.14738015,17.5175 C4.98738015,17.2425 4.79738015,17.09 4.34488015,17.09 C3.78488015,17.09 3.42488015,17.505 3.32738015,17.63 C3.05738015,17.9825 2.61988015,18.4625 1.90488015,18.575 C1.79488015,18.5925 1.67988015,18.6025 1.55988015,18.6025 C1.04738015,18.6025 0.467380153,18.435 0.117380153,18.0125 C-0.0601198469,17.805 -0.0326198469,17.4975 0.174880153,17.32 C0.382380153,17.145 0.692380153,17.1725 0.867380153,17.38 C1.02238015,17.5625 1.40738015,17.66 1.75238015,17.6075 C2.03738015,17.56 2.27738015,17.3925 2.54738015,17.035 C2.98988015,16.4575 3.66238015,16.11 4.34488015,16.11 C4.62988015,16.11 4.88488015,16.1525 5.10738015,16.2375 C5.43238015,11.95 10.3048802,8.535 16.2473802,8.535 C17.6898802,8.535 19.0923802,8.735 20.4273802,9.1275 C21.6073802,8.3825 23.8698802,7.51 23.9723802,7.47 C24.3773802,7.3025 24.7823802,7.3325 25.0723802,7.56 C25.3648802,7.7875 25.4948802,8.1775 25.4298802,8.625 L24.9823802,11.61 C25.7448802,12.31 26.3398802,13.0875 26.7473802,13.925 L27.8923802,13.925 C28.5223802,13.925 29.0323802,14.3775 29.0323802,14.9275 L29.0323802,14.9275 Z M28.0498802,14.955 C28.0298802,14.935 27.9748802,14.905 27.8923802,14.905 L26.4323802,14.905 C26.2398802,14.905 26.0598802,14.7925 25.9823802,14.61 C25.5973802,13.72 24.9773802,12.9 24.1348802,12.17 C24.0073802,12.06 23.9473802,11.8925 23.9723802,11.725 L24.4598802,8.48 C24.4698802,8.415 24.4673802,8.3725 24.4623802,8.3475 C24.4348802,8.3475 24.3948802,8.3575 24.3348802,8.3825 C24.2973802,8.395 21.7898802,9.365 20.7823802,10.0675 C20.6598802,10.1525 20.5023802,10.1775 20.3573802,10.1325 C19.0548802,9.725 17.6698802,9.5175 16.2473802,9.5175 C10.6348802,9.5175 6.06738015,12.735 6.06738015,16.6925 C6.06738015,18.9625 7.62738015,21.1225 10.2398802,22.4775 C10.4473802,22.585 10.5473802,22.82 10.4873802,23.0425 L11.0573802,25.9075 C11.0648802,25.955 11.1423802,26.0175 11.1873802,26.0175 L14.0098802,26.0175 C14.0348802,26.0175 14.0698802,25.985 14.0698802,25.965 L14.1798802,24.2425 C14.1898802,24.11 14.2548802,23.985 14.3573802,23.8975 C14.4598802,23.8125 14.5898802,23.7725 14.7223802,23.785 C15.2273802,23.84 15.7423802,23.8675 16.2473802,23.8675 C16.6973802,23.8675 17.1523802,23.845 17.6323802,23.7975 C17.6498802,23.7975 17.6648802,23.795 17.6798802,23.795 C17.7998802,23.795 17.9123802,23.8375 17.9973802,23.9125 C18.0998802,23.9975 18.1623802,24.1225 18.1698802,24.255 L18.2823802,25.9625 C18.2848802,25.9875 18.3198802,26.0175 18.3448802,26.0175 L21.1623802,26.0175 C21.2123802,26.0175 21.2848802,25.955 21.2948802,25.9075 L21.8673802,23.035 C21.8398802,22.83 21.9448802,22.63 22.1298802,22.5375 C23.9523802,21.6225 25.3173802,20.2975 25.9673802,18.8025 C26.0498802,18.625 26.2223802,18.51 26.4173802,18.51 L26.4498802,18.51 L27.8923802,18.51 C27.9748802,18.51 28.0323802,18.48 28.0498802,18.4625 L28.0498802,14.955 Z M19.6948802,11.8775 C18.8223802,11.47 17.6423802,11.25 16.3773802,11.25 C15.1123802,11.25 13.9298802,11.47 13.0573802,11.8775 C12.8148802,11.9875 12.7073802,12.28 12.8223802,12.525 C12.9323802,12.7725 13.2273802,12.88 13.4698802,12.765 C14.2048802,12.425 15.2648802,12.23 16.3773802,12.23 C17.4898802,12.23 18.5473802,12.425 19.2823802,12.765 C19.3473802,12.795 19.4173802,12.8125 19.4873802,12.8125 C19.6748802,12.8125 19.8473802,12.7075 19.9323802,12.525 C20.0448802,12.28 19.9373802,11.9875 19.6948802,11.8775 L19.6948802,11.8775 Z M13.1173802,3.18 C13.1173802,1.425 14.5423802,1.35269573e-12 16.2973802,1.35269573e-12 C18.0498802,1.35269573e-12 19.4798802,1.425 19.4798802,3.18 C19.4798802,4.935 18.0498802,6.3625 16.2973802,6.3625 C14.5423802,6.3625 13.1173802,4.935 13.1173802,3.18 L13.1173802,3.18 Z M14.0973802,3.18 C14.0973802,4.395 15.0873802,5.38 16.2973802,5.38 C17.5123802,5.38 18.4973802,4.395 18.4973802,3.18 C18.4973802,1.9675 17.5123802,0.98 16.2973802,0.98 C15.0873802,0.98 14.0973802,1.9675 14.0973802,3.18 L14.0973802,3.18 Z"/>
</svg>
