<svg xmlns="http://www.w3.org/2000/svg" xmlns:xlink="http://www.w3.org/1999/xlink" width="28" height="28" viewBox="0 0 28 28">
  <defs>
    <polygon id="activity-03-a" points="1.902 2.375 28.9 2.375 28.9 29.377 1.902 29.377"/>
  </defs>
  <g fill="none" fill-rule="evenodd" transform="translate(-1 -2)">
    <mask id="activity-03-b" fill="#fff">
      <use xlink:href="#activity-03-a"/>
    </mask>
    <path fill="#5F5F66" d="M28.7745,8.31975 L22.9545,2.50225 C22.8745,2.42225 22.7645,2.37475 22.6495,2.37475 C22.5345,2.37475 22.4245,2.42225 22.3445,2.50225 L18.7645,6.07975 C18.762,6.08225 18.7595,6.08225 18.757,6.08475 C18.757,6.08725 18.7545,6.08975 18.752,6.09225 L3.657,21.18475 C3.647,21.19475 3.6395,21.20725 3.632,21.21975 C3.6245,21.22725 3.6145,21.23725 3.6095,21.24975 C3.5995,21.26225 3.5945,21.27475 3.587,21.28725 C3.5795,21.29725 3.572,21.30975 3.567,21.32225 C3.562,21.33475 3.557,21.35225 3.552,21.36725 C3.5495,21.37975 3.5445,21.38975 3.542,21.39975 L1.912,28.85225 C1.8795,28.99475 1.9245,29.14225 2.027,29.24725 C2.1095,29.32975 2.2195,29.37725 2.332,29.37725 C2.362,29.37725 2.3945,29.37225 2.4245,29.36475 L9.877,27.73475 C9.8895,27.73225 9.8995,27.72725 9.912,27.72475 C9.927,27.71975 9.9395,27.71725 9.952,27.70975 C9.9695,27.70225 9.982,27.69225 9.997,27.68475 C10.007,27.67975 10.017,27.67475 10.027,27.66725 C10.042,27.65725 10.0545,27.64475 10.067,27.63725 C10.0745,27.62975 10.082,27.62475 10.0895,27.61975 L10.097,27.61225 L28.7745,8.92975 C28.942,8.76475 28.942,8.48725 28.7745,8.31975 L28.7745,8.31975 Z M19.0645,7.00475 L20.9945,8.93225 L6.5045,23.42225 L4.5745,21.49475 L19.0645,7.00475 Z M3.167,27.14475 L4.217,22.35475 L8.9195,27.05975 L4.032,28.12975 L3.167,27.14475 Z M9.7845,26.70475 L7.1145,24.03225 L21.6045,9.54225 L24.2745,12.21225 L9.7845,26.70475 Z M24.8845,11.59975 L19.6745,6.39225 L22.6495,3.41475 L27.8595,8.62475 L24.8845,11.59975 Z" mask="url(#activity-03-b)"/>
  </g>
</svg>
