<?xml version="1.0" encoding="UTF-8"?>
<svg width="10px" height="6px" viewBox="0 0 10 6" version="1.1" xmlns="http://www.w3.org/2000/svg" xmlns:xlink="http://www.w3.org/1999/xlink">
    <!-- Generator: sketchtool 55.1 (78136) - https://sketchapp.com -->
    <title>450F4F8A-775C-49F8-AC3B-67E7DB333CCB</title>
    <desc>Created with sketchtool.</desc>
    <g id="-" stroke="none" stroke-width="1" fill="none" fill-rule="evenodd">
        <g id="Homepage-Desktop" transform="translate(-890.000000, -49.000000)" fill="#FFFFFF">
            <g id="Desktop-/-Pattern-/-Global-Nav" transform="translate(-0.000000, 0.000000)">
                <g id="Main-Nav">
                    <g transform="translate(674.000000, 40.000000)">
                        <path d="M220.99294,12.6519554 L224.376192,9.28520722 C224.553039,9.10289446 224.796198,9 225.050192,9 C225.304186,9 225.547345,9.10289446 225.724192,9.28520722 C226.096286,9.66218733 226.096286,10.2682271 225.724192,10.6452072 L221.893466,14.4572463 C221.847961,14.5540206 221.785536,14.6448215 221.706192,14.7252072 C221.531313,14.8988031 221.306096,14.9909578 221.077772,15.0016712 C221.036059,15.0073575 220.993778,15.0102563 220.951192,15.0102563 C220.697522,15.0102563 220.454692,14.9074055 220.278192,14.7252072 L220.279192,14.7252072 C220.199198,14.6445199 220.136301,14.5532553 220.090512,14.455935 L216.278192,10.6352072 C215.907269,10.2616425 215.907269,9.65877191 216.278192,9.28520722 C216.455039,9.10289446 216.698198,9 216.952192,9 C217.206186,9 217.449345,9.10289446 217.626192,9.28520722 L220.99294,12.6519554 Z" id="Arrow_Icon"></path>
                    </g>
                </g>
            </g>
        </g>
    </g>
</svg>