<?xml version="1.0" encoding="UTF-8"?>
<svg width="24px" height="17px" viewBox="0 0 24 17" version="1.1" xmlns="http://www.w3.org/2000/svg" xmlns:xlink="http://www.w3.org/1999/xlink">
    <!-- Generator: sketchtool 55.2 (78181) - https://sketchapp.com -->
    <title>20021D35-51AF-4867-ACA3-0027289330EC</title>
    <desc>Created with sketchtool.</desc>
    <defs>
        <polygon id="path-1" points="0 17 24 17 24 0 0 0"></polygon>
    </defs>
    <g id="Batch-1-Desktop" stroke="none" stroke-width="1" fill="none" fill-rule="evenodd">
        <g id="Accommodations-Desktop" transform="translate(-1165.000000, -2071.000000)">
            <g id="Desktop-/-Element-/-Room-Card-01" transform="translate(1165.000000, 1632.000000)">
                <g id="Desktop-/-Icon-/-Beds">
                    <g transform="translate(0.000000, 439.000000)">
                        <g>
                            <path d="M1,12 L23,12 L23,9.5 C23,8.673 22.327,8 21.5,8 L2.5,8 C1.673,8 1,8.673 1,9.5 L1,12 Z M23.5,13 L0.5,13 C0.224,13 0,12.776 0,12.5 L0,9.5 C0,8.121 1.122,7 2.5,7 L21.5,7 C22.878,7 24,8.121 24,9.5 L24,12.5 C24,12.776 23.776,13 23.5,13 L23.5,13 Z" id="Fill-1" fill="#5D5D66"></path>
                            <mask id="mask-2" fill="white">
                                <use xlink:href="#path-1"></use>
                            </mask>
                            <g id="Clip-4"></g>
                            <path d="M1,14 L23,14 L23,13 L1,13 L1,14 Z M23.5,15 L0.5,15 C0.224,15 0,14.776 0,14.5 L0,12.5 C0,12.224 0.224,12 0.5,12 L23.5,12 C23.776,12 24,12.224 24,12.5 L24,14.5 C24,14.776 23.776,15 23.5,15 L23.5,15 Z" id="Fill-3" fill="#5D5D66" mask="url(#mask-2)"></path>
                            <path d="M0.5,17 C0.224,17 0,16.776 0,16.5 L0,14.5 C0,14.224 0.224,14 0.5,14 C0.776,14 1,14.224 1,14.5 L1,16.5 C1,16.776 0.776,17 0.5,17" id="Fill-5" fill="#5D5D66" mask="url(#mask-2)"></path>
                            <path d="M23.5,17 C23.224,17 23,16.776 23,16.5 L23,14.5 C23,14.224 23.224,14 23.5,14 C23.776,14 24,14.224 24,14.5 L24,16.5 C24,16.776 23.776,17 23.5,17" id="Fill-6" fill="#5D5D66" mask="url(#mask-2)"></path>
                            <path d="M3,7 L21,7 L21,2.5 C21,1.673 20.327,1 19.5,1 L4.5,1 C3.673,1 3,1.673 3,2.5 L3,7 Z M21.5,8 L2.5,8 C2.224,8 2,7.776 2,7.5 L2,2.5 C2,1.121 3.122,0 4.5,0 L19.5,0 C20.878,0 22,1.121 22,2.5 L22,7.5 C22,7.776 21.776,8 21.5,8 L21.5,8 Z" id="Fill-7" fill="#5D5D66" mask="url(#mask-2)"></path>
                            <path d="M6.2808,4 C6.0508,4 5.8518,4.156 5.7958,4.379 L5.2958,6.379 C5.2588,6.529 5.2908,6.686 5.3868,6.808 C5.4818,6.93 5.6258,7 5.7808,7 L9.4998,7 C9.7758,7 9.9998,6.775 9.9998,6.5 L9.9998,4.5 C9.9998,4.225 9.7758,4 9.4998,4 L6.2808,4 Z M9.4998,8 L5.7808,8 C5.3158,8 4.8848,7.79 4.5988,7.423 C4.3118,7.057 4.2128,6.588 4.3258,6.137 L4.8258,4.137 C4.9928,3.468 5.5918,3 6.2808,3 L9.4998,3 C10.3268,3 10.9998,3.673 10.9998,4.5 L10.9998,6.5 C10.9998,7.327 10.3268,8 9.4998,8 L9.4998,8 Z" id="Fill-8" fill="#5D5D66" mask="url(#mask-2)"></path>
                            <path d="M14.5,4 C14.224,4 14,4.225 14,4.5 L14,6.5 C14,6.775 14.224,7 14.5,7 L18.219,7 C18.375,7 18.518,6.93 18.613,6.808 C18.709,6.686 18.742,6.529 18.705,6.379 L18.205,4.379 C18.148,4.156 17.949,4 17.719,4 L14.5,4 Z M18.219,8 L14.5,8 C13.673,8 13,7.327 13,6.5 L13,4.5 C13,3.673 13.673,3 14.5,3 L17.719,3 C18.409,3 19.007,3.468 19.174,4.137 L19.674,6.137 C19.787,6.588 19.688,7.057 19.401,7.423 C19.115,7.79 18.685,8 18.219,8 L18.219,8 Z" id="Fill-9" fill="#5D5D66" mask="url(#mask-2)"></path>
                        </g>
                    </g>
                </g>
            </g>
        </g>
    </g>
</svg>