<svg xmlns="http://www.w3.org/2000/svg" xmlns:xlink="http://www.w3.org/1999/xlink" width="24" height="17" viewBox="0 0 24 17">
  <defs>
    <polygon id="beds-a" points="0 17 24 17 24 0 0 0"/>
  </defs>
  <g fill="none" fill-rule="evenodd">
    <path fill="#5D5D66" d="M1,12 L23,12 L23,9.5 C23,8.673 22.327,8 21.5,8 L2.5,8 C1.673,8 1,8.673 1,9.5 L1,12 Z M23.5,13 L0.5,13 C0.224,13 0,12.776 0,12.5 L0,9.5 C0,8.121 1.122,7 2.5,7 L21.5,7 C22.878,7 24,8.121 24,9.5 L24,12.5 C24,12.776 23.776,13 23.5,13 L23.5,13 Z"/>
    <mask id="beds-b" fill="#fff">
      <use xlink:href="#beds-a"/>
    </mask>
    <path fill="#5D5D66" d="M1,14 L23,14 L23,13 L1,13 L1,14 Z M23.5,15 L0.5,15 C0.224,15 0,14.776 0,14.5 L0,12.5 C0,12.224 0.224,12 0.5,12 L23.5,12 C23.776,12 24,12.224 24,12.5 L24,14.5 C24,14.776 23.776,15 23.5,15 L23.5,15 Z" mask="url(#beds-b)"/>
    <path fill="#5D5D66" d="M.5 17C.224 17 0 16.776 0 16.5L0 14.5C0 14.224.224 14 .5 14 .776 14 1 14.224 1 14.5L1 16.5C1 16.776.776 17 .5 17M23.5 17C23.224 17 23 16.776 23 16.5L23 14.5C23 14.224 23.224 14 23.5 14 23.776 14 24 14.224 24 14.5L24 16.5C24 16.776 23.776 17 23.5 17M3 7L21 7 21 2.5C21 1.673 20.327 1 19.5 1L4.5 1C3.673 1 3 1.673 3 2.5L3 7zM21.5 8L2.5 8C2.224 8 2 7.776 2 7.5L2 2.5C2 1.121 3.122 0 4.5 0L19.5 0C20.878 0 22 1.121 22 2.5L22 7.5C22 7.776 21.776 8 21.5 8L21.5 8z" mask="url(#beds-b)"/>
    <path fill="#5D5D66" d="M6.2808 4C6.0508 4 5.8518 4.156 5.7958 4.379L5.2958 6.379C5.2588 6.529 5.2908 6.686 5.3868 6.808 5.4818 6.93 5.6258 7 5.7808 7L9.4998 7C9.7758 7 9.9998 6.775 9.9998 6.5L9.9998 4.5C9.9998 4.225 9.7758 4 9.4998 4L6.2808 4zM9.4998 8L5.7808 8C5.3158 8 4.8848 7.79 4.5988 7.423 4.3118 7.057 4.2128 6.588 4.3258 6.137L4.8258 4.137C4.9928 3.468 5.5918 3 6.2808 3L9.4998 3C10.3268 3 10.9998 3.673 10.9998 4.5L10.9998 6.5C10.9998 7.327 10.3268 8 9.4998 8L9.4998 8zM14.5 4C14.224 4 14 4.225 14 4.5L14 6.5C14 6.775 14.224 7 14.5 7L18.219 7C18.375 7 18.518 6.93 18.613 6.808 18.709 6.686 18.742 6.529 18.705 6.379L18.205 4.379C18.148 4.156 17.949 4 17.719 4L14.5 4zM18.219 8L14.5 8C13.673 8 13 7.327 13 6.5L13 4.5C13 3.673 13.673 3 14.5 3L17.719 3C18.409 3 19.007 3.468 19.174 4.137L19.674 6.137C19.787 6.588 19.688 7.057 19.401 7.423 19.115 7.79 18.685 8 18.219 8L18.219 8z" mask="url(#beds-b)"/>
  </g>
</svg>
