<svg xmlns="http://www.w3.org/2000/svg" xmlns:xlink="http://www.w3.org/1999/xlink" width="44" height="44" viewBox="0 0 44 44">
  <defs>
    <path id="bell-icon-a" d="M22,0 C34.1502645,-2.23196738e-15 44,9.8497355 44,22 C44,34.1502645 34.1502645,44 22,44 C9.8497355,44 1.48797825e-15,34.1502645 0,22 C-1.48797825e-15,9.8497355 9.8497355,2.23196738e-15 22,0 Z"/>
  </defs>
  <g fill="none" fill-rule="evenodd">
    <mask id="bell-icon-b" fill="#fff">
      <use xlink:href="#bell-icon-a"/>
    </mask>
    <g fill="#0097DB" mask="url(#bell-icon-b)">
      <rect width="44" height="44"/>
    </g>
    <path fill="#FFF" d="M16,22 L29,22 L29,21.5 C29,17.916 26.084,15 22.5,15 C18.916,15 16,17.916 16,21.5 L16,22 Z M29.5,23 L15.5,23 C15.224,23 15,22.776 15,22.5 L15,21.5 C15,17.364 18.364,14 22.5,14 C26.636,14 30,17.364 30,21.5 L30,22.5 C30,22.776 29.776,23 29.5,23 L29.5,23 Z"/>
    <path fill="#FFF" d="M17.6011 21C17.5681 21 17.5351 20.997 17.5011 20.99 17.2301 20.935 17.0561 20.671 17.1111 20.401 17.6301 17.851 19.8961 16 22.5001 16 22.7761 16 23.0001 16.224 23.0001 16.5 23.0001 16.776 22.7761 17 22.5001 17 20.3701 17 18.5161 18.514 18.0901 20.6 18.0421 20.837 17.8341 21 17.6011 21M21.5 15C21.224 15 21 14.776 21 14.5L21 12.5C21 12.224 21.224 12 21.5 12 21.776 12 22 12.224 22 12.5L22 14.5C22 14.776 21.776 15 21.5 15M23.5 15C23.224 15 23 14.776 23 14.5L23 12.5C23 12.224 23.224 12 23.5 12 23.776 12 24 12.224 24 12.5L24 14.5C24 14.776 23.776 15 23.5 15"/>
    <path fill="#FFF" d="M21.5 11C21.224 11 21 11.224 21 11.5 21 11.776 21.224 12 21.5 12L23.5 12C23.776 12 24 11.776 24 11.5 24 11.224 23.776 11 23.5 11L21.5 11zM23.5 13L21.5 13C20.673 13 20 12.327 20 11.5 20 10.673 20.673 10 21.5 10L23.5 10C24.327 10 25 10.673 25 11.5 25 12.327 24.327 13 23.5 13L23.5 13zM15.3262 26L29.0742 26C28.3732 25.406 28.0002 24.561 28.0002 23.5L28.0002 23 16.9722 23C16.8382 24.208 16.2242 25.273 15.3262 26M32.5002 27L12.5002 27C12.2242 27 12.0002 26.776 12.0002 26.5 12.0002 26.224 12.2242 26 12.5002 26 14.4302 26 16.0002 24.43 16.0002 22.5 16.0002 22.224 16.2242 22 16.5002 22L28.5002 22C28.7762 22 29.0002 22.224 29.0002 22.5L29.0002 23.5C29.0002 25.159 30.1782 26 32.5002 26 32.7762 26 33.0002 26.224 33.0002 26.5 33.0002 26.776 32.7762 27 32.5002 27"/>
    <path fill="#FFF" d="M33.5,29 L11.5,29 C11.224,29 11,28.776 11,28.5 L11,27.5 C11,26.673 11.673,26 12.5,26 C12.776,26 13,26.224 13,26.5 C13,26.776 12.776,27 12.5,27 C12.224,27 12,27.224 12,27.5 L12,28 L33,28 L33,27.5 C33,27.224 32.776,27 32.5,27 C32.224,27 32,26.776 32,26.5 C32,26.224 32.224,26 32.5,26 C33.327,26 34,26.673 34,27.5 L34,28.5 C34,28.776 33.776,29 33.5,29"/>
  </g>
</svg>
