<svg xmlns="http://www.w3.org/2000/svg" xmlns:xlink="http://www.w3.org/1999/xlink" width="20" height="20" viewBox="0 0 20 20">
  <defs>
    <polygon id="best-rate-check-a" points="0 0 20 0 20 20 0 20"/>
  </defs>
  <g fill="none" fill-rule="evenodd">
    <circle cx="10" cy="10" r="9" fill="#FFF"/>
    <mask id="best-rate-check-b" fill="#fff">
      <use xlink:href="#best-rate-check-a"/>
    </mask>
    <path fill="#0097DB" d="M16.4843159,8.47656054 L9.41413625,15.5467535 C9.2491768,15.711849 9.04964746,15.7943512 8.81513778,15.7943512 C8.5894758,15.7943512 8.39423349,15.711849 8.22922843,15.5467535 L3.51550172,10.8333219 C3.35943557,10.6769829 3.28117446,10.4820151 3.28117446,10.2474609 C3.28117446,10.0044238 3.35911632,9.80462176 3.51550172,9.64832829 L4.70040955,8.47656054 C4.86555143,8.31164744 5.06061131,8.2291909 5.28645572,8.2291909 C5.51230013,8.2291909 5.70763365,8.31169305 5.87250189,8.47656054 L8.8152746,11.4192286 L14.1277717,6.11979915 C14.2926856,5.95484045 14.4879735,5.87233829 14.7136811,5.87233829 C14.9392063,5.87233829 15.1347222,5.95484045 15.2995448,6.11979915 L16.4844983,7.29174933 C16.6410205,7.44790598 16.7189167,7.64752562 16.7189167,7.89051704 C16.7189167,8.12498005 16.6410205,8.32031268 16.4843159,8.47656054 M18.6592085,4.9803664 C17.7649522,3.44835292 16.551905,2.23535689 15.0198845,1.34115029 C13.4875448,0.446989287 11.8147364,0 10.0003192,0 C8.18603888,0 6.51277444,0.446989287 4.98070836,1.34115029 C3.44855107,2.23522007 2.23554952,3.4482161 1.34129322,4.9803664 C0.446945719,6.51260792 0,8.18586472 0,10 C0,11.8142265 0.447128146,13.4872553 1.3411564,15.0195424 C2.23536709,16.5515559 3.44836865,17.7645519 4.98052594,18.6588497 C6.51277444,19.5530107 8.18585645,20 10.0001368,20 C11.8143716,20 13.4876816,19.5530107 15.0198389,18.6588497 C16.5518594,17.7649167 17.7648609,16.5515559 18.659026,15.0195424 C19.5530543,13.4873921 20,11.8141353 20,10 C20,8.1856823 19.5530543,6.51237988 18.6592085,4.9803664" mask="url(#best-rate-check-b)"/>
  </g>
</svg>
