<svg xmlns="http://www.w3.org/2000/svg" xmlns:xlink="http://www.w3.org/1999/xlink" width="222" height="48" viewBox="0 0 222 48">
  <defs>
    <polygon id="welk-horizontal-a" points="215.31 21.32 221.902 21.32 221.902 27.97 215.31 27.97"/>
  </defs>
  <g fill="none" fill-rule="evenodd">
    <path fill="#5D5D66" d="M64.1067413 31.4029174C68.1089252 16.8629292 74.7151536 9.64897795 76.9910869 10.0116993 76.993403 10.0116993 77.2798247 10.1160011 77.2798247 10.1160011 77.5639304 10.2950267 77.7198797 10.6561913 77.7476726 11.1862626 77.7492167 11.2399702 77.7492167 11.2952346 77.7492167 11.3512774 77.7492167 14.8586215 72.7480308 25.2024064 64.4989306 31.663672L63.9052425 32.1306951 64.1067413 31.4029174zM50.3793431 32.5696969C50.0767088 26.4407962 53.911363 14.5122459 61.6293092 8.97023761 62.4152319 8.40591794 63.0274487 8.29772424 63.4512911 8.64643487 63.7655057 8.9204218 63.9183669 9.43492566 63.9145781 10.1837195 63.8774495 14.3160962 58.8646833 26.0251455 50.7846568 32.7479441L50.4048199 33.0670766 50.3793431 32.5696969zM42.7617604 23.2728223C43.34078 23.2977302 43.7468658 23.5865062 43.9367843 24.1041235 44.6161673 25.9768865 42.2182539 30.7856684 38.5526734 33.5247593 37.8593939 34.0470469 37.1259689 34.511735 36.5006277 34.8978075L36.1678844 35.1009625 36.1246509 34.7125549C36.0991741 34.4813785 36.0868217 34.2408615 36.0868217 33.9941176 36.0868217 33.6656446 36.1084384 33.3192691 36.1524439 32.961218 36.6797378 28.6342483 39.9786058 23.1599584 42.7617604 23.2728223L42.7617604 23.2728223zM62.4816261 6.40472364L62.4816261 6.40472364C55.6283494 10.4545929 49.5563631 22.366019 48.1806124 30.95224 47.9590409 32.3315151 47.8602215 33.5940344 47.8895585 34.7008793L47.8918746 34.8495484 47.2510928 35.2239453C45.0623985 36.4576649 42.8273826 37.192448 40.6085792 37.4119489 40.0218393 37.4695484 39.425063 37.4905644 38.8375511 37.4742186 38.8321469 37.4742186 38.6175236 37.4578728 38.6175236 37.4578728 38.0933178 37.4072786 37.6795117 37.2687284 37.3382762 37.037552L37.0479943 36.8382887 37.3297839 36.6289067C38.0253795 36.1058407 38.3843717 35.7828164 38.4793309 35.6629471L38.4994036 35.6395959 38.5233364 35.620915C43.2651215 32.0014854 46.6465963 26.1566904 46.7168507 23.1755258 46.7353793 22.3846999 46.5354245 21.8087046 46.1247066 21.4638859 45.8166681 21.2031313 45.3851055 21.0684729 44.8400549 21.0622459 43.0728869 21.0365597 40.7761089 22.3917052 38.5372329 24.7797504 35.7409539 27.7655852 33.035774 32.5191028 33.035774 36.0926084 33.035774 36.2513963 33.0404062 36.4070707 33.0512146 36.5619667L33.0627949 36.7355436 32.7894977 36.8624183C32.1479439 37.1558645 31.4330476 37.4353 30.6710577 37.6913844 30.6710577 37.6913844 30.0256438 37.8859774 29.6720558 37.991836 29.7430822 38.2736066 29.8990315 38.791224 30.1854532 39.2193285 30.4641547 39.651325 30.7914938 39.8708259 31.1597503 39.8708259 31.5835927 39.8708259 32.5131123 39.5353476 33.6479908 38.9764765L33.8232408 38.8908556 33.947537 39.0410814C34.772833 40.0373975 36.1678844 40.5635769 38.0925458 40.6079441 41.3149832 40.6678788 44.813034 39.4458348 47.9381962 37.1644266L48.2377423 36.9495959 48.3249813 37.3107605C48.8298865 39.4014676 49.8566813 40.3471895 51.7589539 40.4763993 51.76127 40.4763993 52.0198988 40.4950802 52.0198988 40.4950802 54.2024169 40.5752525 59.00442 37.5738502 60.9715428 36.02489L61.3359392 35.736114 61.3699084 36.2031372C61.5443863 38.5491503 62.1488828 40.3238384 62.9564222 40.8321152 63.0614178 40.9013903 63.2744971 40.9893464 63.6960234 41.0103624 64.5908018 41.0562864 65.7596495 40.7885264 66.4313123 40.4880748 66.1263619 40.2265419 65.7249083 39.8591503 65.3288588 39.3952406 65.3288588 39.3788948 65.1775417 39.1796316 65.1775417 39.1796316 65.1999304 39.2099881 65.1474327 39.1383779 65.1474327 39.1383779 65.1358523 39.1196969 65.0439812 38.9788116 65.0439812 38.9788116 65.0378049 38.9679144 64.9937994 38.8815151 64.9937994 38.8815151L64.9937994 38.8838502C64.9937994 38.8815151 64.922773 38.7460784 64.922773 38.7437433L64.8772235 38.6347712 64.8262698 38.502448C64.8193215 38.4845454 64.7899845 38.389584 64.7899845 38.389584 64.7807202 38.3662329 64.7513832 38.2689364 64.7513832 38.2689364L64.7482951 38.2603743 64.6888491 37.9996197C64.6934812 38.0268627 64.6710925 37.8766369 64.6710925 37.8766369 64.6749526 37.9108853 64.6502478 37.7536542 64.6502478 37.7536542 64.6456156 37.7194058 64.6386674 37.6594712 64.6386674 37.6594712 64.6340352 37.6267795 64.627087 37.4672133 64.627087 37.4672133 64.627087 37.4905644 64.6224548 37.4259596 64.6224548 37.4259596L64.6201388 37.3800356 64.6178227 37.2087938 64.6224548 37.0741354C64.6224548 37.0718003 64.6294031 36.9332501 64.6294031 36.9332501 64.6294031 36.9293583 64.6386674 36.8001485 64.6386674 36.8001485 64.6386674 36.7954783 64.6502478 36.6724955 64.6502478 36.6724955L64.657196 36.6335769C64.6587401 36.6032204 64.6749526 36.5020321 64.6749526 36.5020321 64.6710925 36.5292751 64.7004295 36.332347 64.7004295 36.332347L64.714326 36.2513963C64.716642 36.2311586 64.7645077 36.0046524 64.7645077 36.0046524 64.7621916 36.0209982 64.7760881 35.9579501 64.7760881 35.9579501 64.7784041 35.9400475 64.9436177 35.332139 64.9436177 35.332139 64.950566 35.3134581 65.0462972 35.0246821 65.0462972 35.0246821 65.0601937 34.9896553 65.0810384 34.9460665 65.0810384 34.9460665 65.0671419 34.9717528 65.1381684 34.7841651 65.1381684 34.7841651L65.1590131 34.7265656C65.1721375 34.693874 65.1906661 34.6526203 65.1906661 34.6526203 65.1952983 34.6386096 65.2941176 34.4074331 65.2941176 34.4074331 65.305698 34.3801901 65.3373511 34.3085799 65.3373511 34.3085799 65.3288588 34.3288176 65.4114656 34.1373381 65.4114656 34.1373381L65.4338544 34.089079 65.4732277 34.0174688C65.4709117 34.0198039 65.5349898 33.8851455 65.5349898 33.8851455L65.5805394 33.7909625C65.5874876 33.779287 65.7063796 33.5457754 65.7063796 33.5457754L65.7434369 33.4741651C65.7550173 33.4554842 65.8028829 33.3698633 65.8028829 33.3698633 65.7913025 33.3862091 65.9017023 33.1900594 65.9017023 33.1900594L65.922547 33.1550326 65.9680965 33.0764171C65.9727287 33.0701901 66.1147815 32.8265597 66.1147815 32.8265597L66.1472066 32.7635115 66.188124 32.705912 66.3139643 32.5074272C66.2977517 32.5370053 66.3618299 32.4381521 66.3618299 32.4381521L66.3618299 32.435817 66.3371251 32.4724004 66.5293596 32.1812893C67.040441 31.4286036 67.602476 30.7257338 68.2162369 30.0765716 68.2324494 30.0555555 70.1169655 28.3548128 70.1169655 28.3548128 70.1354941 28.338467 70.9167846 27.7974985 70.9167846 27.7974985 71.3159222 27.545306 71.7096555 27.3265834 72.0902645 27.1483363L72.1273217 27.1296553 72.8885396 26.8268686C72.9201927 26.8151931 72.958794 26.806631 72.958794 26.806631 72.9402653 26.8113012 73.019012 26.7856149 73.019012 26.7856149L73.282273 26.7093345C73.3193302 26.6976589 73.6991671 26.6167082 73.6991671 26.6167082L73.7385405 26.6073678 73.7817739 26.6003624 74.0597034 26.5614438C74.0550712 26.5614438 74.107569 26.5544385 74.107569 26.5544385 74.1345899 26.5497682 74.8386778 26.5357575 74.8386778 26.5357575 74.8541183 26.5380926 74.932865 26.545098 74.932865 26.545098 74.9236007 26.5427629 75.2030742 26.5777896 75.2030742 26.5777896 75.2007581 26.5777896 75.2833649 26.5910219 75.2833649 26.5910219 75.2694684 26.5886868 75.6068439 26.6657456 75.6068439 26.6657456 75.5744188 26.6579619 75.6755542 26.6836482 75.6755542 26.6836482L75.9272348 26.766934C75.9550277 26.7786096 76.0121577 26.8011824 76.0121577 26.8011824 76.021422 26.806631 76.3356367 26.9498514 76.3356367 26.9498514 77.2751926 27.4557932 77.7152475 27.9570647 77.6835944 28.4910279 77.6172002 29.5659596 75.6431291 30.3233155 73.1425362 31.2830481 70.3779103 32.3455258 67.2427118 33.5527807 66.77718 35.2511883 66.6119664 35.8520915 66.7957086 36.4802376 67.3384431 37.1761022 71.0264123 41.9070469 87.9978648 40.0973321 92.3551807 38.4681996 92.6192137 38.3709031 92.7882875 38.1996613 92.8732103 37.9482471 92.921848 37.8112537 92.9396046 37.657136 92.9396046 37.4882293 92.9396046 36.5713072 92.3304759 35.2885502 91.8788406 34.5210754 90.6999565 35.2535234 84.6627115 38.7616458 76.7803238 38.918877 71.3429431 39.0270707 69.6722783 37.7217409 69.2299073 36.6055555 68.8469823 35.6395959 69.3032498 34.6277124 69.926275 34.0540523 70.9831789 33.0577361 72.1504825 32.8102139 73.9199666 32.4334818 75.1922658 32.1649435 76.7780077 31.8279085 78.8910435 31.0954604 78.9165203 31.0884551 79.230735 30.9709209 79.230735 30.9709209 79.2531238 30.9639156 79.3334145 30.931224 79.3334145 30.931224 79.3449949 30.9265537 79.5650223 30.8385977 79.5650223 30.8385977 79.5603902 30.8409328 79.6568935 30.7996791 79.6568935 30.7996791 79.6754221 30.7903386 79.7232877 30.7693226 79.7232877 30.7693226L79.8560762 30.709388C79.8699727 30.7000475 79.9479473 30.6681342 79.9479473 30.6681342 79.9703361 30.6611289 80.0761037 30.6035294 80.0761037 30.6035294L80.142498 30.5708377C80.1355497 30.5731729 80.2073482 30.5342543 80.2073482 30.5342543L80.3262402 30.4735413 80.4018988 30.4322875C80.3972666 30.4346227 80.4706091 30.3910338 80.4706091 30.3910338L80.5092104 30.3676827 80.6489472 30.2797266C80.6605276 30.2727213 80.731554 30.2267973 80.731554 30.2267973 80.7408183 30.2221271 80.9176123 30.1038146 80.9176123 30.1038146 80.9176123 30.1038146 80.9538975 30.0765716 80.9562136 30.0765716 80.9562136 30.0734581 81.1330076 29.9333511 81.1330076 29.9333511L81.1677488 29.9076648C81.174697 29.9006595 81.3043974 29.7846821 81.3043974 29.7846821 81.3275582 29.7644444 81.350719 29.7434284 81.350719 29.7434284 81.3684756 29.7247474 81.467295 29.6305644 81.467295 29.6305644 81.4634348 29.6328995 81.4927718 29.6002079 81.4927718 29.6002079 81.5136165 29.5791919 81.5545339 29.5285977 81.5545339 29.5285977 81.5545339 29.5285977 81.6232442 29.4523172 81.644089 29.426631 81.6556694 29.4102852 81.7583488 29.2670647 81.7583488 29.2670647L81.8162508 29.1752168C81.8278312 29.1565359 81.8432717 29.1331847 81.8432717 29.1331847 81.8571682 29.1082768 81.9027177 29.0179857 81.9027177 29.0179857L81.9351428 28.9549376C81.9305107 28.9650564 82.0385944 28.6638265 82.0385944 28.6638265L82.0478587 28.6179025 82.0702474 28.5159358C82.0748796 28.493363 82.0771957 28.4770172 82.0771957 28.4770172 82.0771957 28.4700118 82.08646 28.3828342 82.08646 28.3828342L82.0910921 28.3454723 82.0934082 28.3197861C82.0957243 28.2972133 82.0957243 28.2185977 82.0957243 28.2185977L82.0934082 28.1485442 82.08646 28.0450208C82.0887761 28.076934 82.0818278 27.9983184 82.0818278 27.9983184 82.0771957 27.9734105 82.0656153 27.9018003 82.0656153 27.9018003 82.0632992 27.8901247 82.0524908 27.8371954 82.0524908 27.8371954 82.0478587 27.8208496 82.0339622 27.7718122 82.0339622 27.7718122L82.0246979 27.7305585C82.0131175 27.6986452 81.9768323 27.5826678 81.9768323 27.5826678 81.9768323 27.5803327 81.9583036 27.5367439 81.9583036 27.5367439 81.9490393 27.5157278 81.9073499 27.4207664 81.9073499 27.4207664 81.9073499 27.4184313 81.8687486 27.3398158 81.8687486 27.3398158L81.8386396 27.2822162C81.8363235 27.2798811 81.8000383 27.2199465 81.8000383 27.2199465L81.7768775 27.1810279 81.6834623 27.0354723C81.6780581 27.0308021 81.6533533 26.9957754 81.6533533 26.9957754 81.6579854 27.0027807 81.616296 26.9444028 81.616296 26.9444028L81.5915912 26.9124896C81.5800108 26.8984789 81.55685 26.8689007 81.5437255 26.8502198 81.527513 26.8292038 81.4588027 26.745918 81.4588027 26.745918 81.4356419 26.7256803 80.9423171 26.2703327 80.9423171 26.2703327 80.9199284 26.2493167 80.851218 26.1979441 80.851218 26.1979441L80.7825077 26.1457932C80.7570308 26.1271123 80.6219262 26.034486 80.6219262 26.034486 80.6103458 26.0274806 80.6010815 26.0204753 80.5871851 26.0087997 80.5825529 26.0064646 80.4343239 25.9146167 80.4343239 25.9146167 80.4111631 25.900606 80.2390012 25.7963042 80.2390012 25.7963042 78.5613883 24.8513606 76.2831389 24.5804872 74.1446262 25.0685264L73.342491 25.2530005 73.9122464 24.6528758C76.9432213 21.4490968 79.0423606 18.4406892 80.5138426 15.1847593 81.4263776 13.1679976 81.8872772 11.4555793 81.8872772 10.0949851 81.8872772 7.4189423 80.1355497 7.02897795 79.3820521 6.98616749 78.7142494 6.94880564 77.9862287 7.11771235 77.3801881 7.44929881 73.2320913 9.75405817 64.0133261 20.1266428 61.5189094 33.6656446L61.4980647 33.7676114 61.4131418 33.8252109C60.4666377 34.4883838 55.6075047 37.7707783 52.9802994 37.2874094 52.6182191 37.2204694 52.3163569 37.1138324 52.0592721 36.9612715 51.4817965 36.6071123 51.1220323 36.0225549 50.8510511 34.9997742L50.8101337 34.8511051 50.9267097 34.7475817C53.8079115 32.1587165 56.884436 28.7657932 60.0682722 24.6684432 67.4604232 15.186316 68.7551112 9.04885317 67.6202327 6.67481871 67.6047921 6.65146755 67.5268175 6.49112293 67.5268175 6.49112293 67.2264993 5.96883535 66.7887604 5.62557331 66.2244092 5.47690427 65.2416199 5.21537129 63.9461599 5.53606054 62.4816261 6.40472364L62.4816261 6.40472364zM36.038184.215888221C35.448356.399584003 34.1289632 1.1296969 33.6425866 1.4044622 34.5296448 3.29045745 35.1009442 6.01320255 35.1009442 8.37711818 35.1009442 8.49076048 35.1009442 8.60206767 35.0978561 8.71415323 34.9365026 15.3614497 33.6688355 21.5993226 31.326508 27.2588651 29.1686947 32.435817 27.1490741 35.2511883 25.1526143 35.863767 24.6948027 36.0023173 24.2864009 35.9353773 23.937445 35.6652822 22.877453 34.8464349 22.4180974 32.0637552 22.5339013 27.1600118 22.5339013 27.1576767 22.5902593 25.4795068 22.5902593 25.4795068 22.5902593 25.4748366 22.7276799 22.6524598 22.7276799 22.6524598 22.7948462 19.8425371 22.9623759 15.9210992 23.6626037 10.5557813 23.7444385 9.98056441 23.8031124 9.26057035 23.8131488 8.89629227 23.8162369 8.76319067 23.7730034 8.67134278 23.671868 8.6012893 23.1306776 8.23234099 21.4615569 8.6207486 21.0384866 8.77253113 17.8469302 16.0331847 13.6494236 26.1177718 8.55868269 38.7546405L8.08157048 38.6643493C7.82911791 28.7525609 7.2369738 20.9929708 6.31749057 15.6066369 5.58638174 11.256316 5.09305698 9.62017819 4.80895133 9.01382644 4.43451861 8.25102192 3.86399124 8.01673196 3.01630645 8.27670819 2.3878771 8.46896607 1.36571439 8.96790249-1.70530257e-13 9.7392691.447775208 10.718461 1.30704039 13.1096197 1.34718576 13.2201485 2.06748622 15.6074153 2.66580654 18.6072608 3.17920398 22.4057159 3.82693398 27.2822162 4.15350107 32.4887462 4.15350107 37.9202258 4.15350107 39.0153951 4.14037662 40.1183482 4.11335571 41.2298633 4.05468171 43.6910754 3.83388221 45.7887879 3.47025786 47.517552 5.42888839 46.623981 6.72975257 45.8510576 7.2840674 45.2306952 7.87698353 44.5714141 8.72466832 42.8800119 9.80396098 40.2078609 9.80241693 40.2125312 10.5628628 38.2019964 10.5628628 38.2019964 12.5268975 33.1877243 15.3787623 26.6532917 19.0427988 18.779281L19.6310827 17.4560487 19.5145068 18.9053772C19.1871677 23.0400891 18.9879849 26.3372727 18.9354871 28.4357635 18.812735 33.5045217 19.0667316 37.0001901 19.6897567 38.8309209 20.2741806 40.5752525 21.2994314 41.1925015 22.8249552 40.7192513 24.2709603 40.2794712 26.0219158 38.724284 28.0276399 36.0972786 30.061929 33.4259061 31.9294605 30.219792 33.5761924 26.5700059 37.185415 18.6049257 39.0961799 11.1815923 39.2567613 4.50705281L39.2436369 3.22273909C39.1973153 1.92986327 38.9757438 1.02539506 38.5874146.538134211 38.128831-.046423128 37.2711099-.156173574 36.038184.215888221L36.038184.215888221zM101.952702 32.2112566C105.781952 32.2112566 107.302844 31.0927361 107.302844 29.1717142 107.302844 27.2288978 105.707837 26.0979233 101.952702 26.0979233L100.238804 26.0979233 100.238804 32.2112566 101.952702 32.2112566zM110.60866 37.2846851L107.128366 37.2846851 103.67046 33.8746375C103.147026 33.9205615 102.601204 33.9540315 102.050749 33.9540315L100.238804 33.9540315 100.238804 37.2846851 97.2255854 37.2846851 97.2255854 24.3255704 102.050749 24.3255704C107.399347 24.3255704 110.360839 26.2006684 110.360839 29.1717142 110.360839 31.1752436 109.040675 32.540508 106.503796 33.2815181L110.60866 37.2846851 110.60866 37.2846851z"/>
    <polygon fill="#5D5D66" points="114.467 24.325 126.725 24.325 126.725 26.098 117.473 26.098 117.473 31.13 125.657 31.13 125.657 32.862 117.473 32.862 117.473 35.512 127.125 35.512 127.125 37.284 114.467 37.284"/>
    <path fill="#5D5D66" d="M129.585759 34.7705436L132.050067 33.8598484C132.96955 34.865505 134.137626 35.6625579 136.476865 35.6625579 138.44476 35.6625579 139.832091 34.959688 139.832091 33.8972103 139.832091 32.7709061 138.687948 32.278975 136.600389 31.6516072L135.331178 31.2663131C132.518687 30.4233363 130.806333 29.4745009 130.806333 27.4740849 130.806333 25.5460576 133.01896 24.1737878 136.227501 24.1737878 138.789856 24.1737878 140.508386 24.8245068 141.67569 26.2115656L139.311746 27.1798603C138.588357 26.3252079 137.7206 25.9243464 136.227501 25.9243464 134.684992 25.9243464 133.737716 26.555606 133.737716 27.4328312 133.737716 28.4081313 134.56224 28.8502465 136.500026 29.4137878L137.769237 29.799082C141.053437 30.7665983 142.821377 31.7994979 142.821377 33.8746375 142.821377 36.1467053 140.182591 37.4590404 136.552524 37.4590404 132.869959 37.4590404 130.655016 36.2416666 129.585759 34.7705436M162.442886 30.8126001C162.442886 28.0415959 159.608006 25.9695698 155.578029 25.9695698 151.546508 25.9695698 148.691555 28.0415959 148.691555 30.8126001 148.691555 33.5719287 151.546508 35.6517385 155.578029 35.6517385 159.608006 35.6517385 162.442886 33.5719287 162.442886 30.8126001M145.628927 30.8126001C145.628927 26.940978 150.05727 24.1512929 155.578029 24.1512929 161.070996 24.1512929 165.503198 26.940978 165.503198 30.8126001 165.503198 34.6803303 161.070996 37.4591182 155.578029 37.4591182 150.05727 37.4591182 145.628927 34.6803303 145.628927 30.8126001M173.838534 32.2112566C177.66624 32.2112566 179.185587 31.0927361 179.185587 29.1717142 179.185587 27.2288978 177.618374 26.0979233 173.838534 26.0979233L172.147024 26.0979233 172.147024 32.2112566 173.838534 32.2112566zM182.492176 37.2846851L179.035042 37.2846851 175.574049 33.8746375C175.030542 33.9205615 174.483176 33.9540315 173.935809 33.9540315L172.147024 33.9540315 172.147024 37.2846851 169.136122 37.2846851 169.136122 24.3255704 173.935809 24.3255704C179.282863 24.3255704 182.267516 26.2006684 182.267516 29.1717142 182.267516 31.1752436 180.928823 32.540508 178.412789 33.2815181L182.492176 37.2846851 182.492176 37.2846851z"/>
    <polygon fill="#5D5D66" points="190.378 26.098 184.656 26.098 184.656 24.325 199.081 24.325 199.081 26.098 193.362 26.098 193.362 37.285 190.378 37.285"/>
    <path fill="#5D5D66" d="M200.524701,34.7705436 L202.984377,33.8598484 C203.884559,34.865505 205.054179,35.6625579 207.416579,35.6625579 C209.355137,35.6625579 210.749416,34.959688 210.749416,33.8972103 C210.749416,32.7709061 209.628434,32.278975 207.513854,31.6516072 L206.246187,31.2663131 C203.434468,30.4233363 201.742958,29.4745009 201.742958,27.4740849 C201.742958,25.5460576 203.959446,24.1737878 207.14251,24.1737878 C209.704093,24.1737878 211.439608,24.8245068 212.582979,26.2115656 L210.247599,27.1798603 C209.50491,26.3252079 208.657225,25.9243464 207.14251,25.9243464 C205.623934,25.9243464 204.656585,26.555606 204.656585,27.4328312 C204.656585,28.4081313 205.470301,28.8502465 207.442828,29.4137878 L208.687334,29.799082 C211.964586,30.7665983 213.73021,31.7994979 213.73021,33.8746375 C213.73021,36.1467053 211.094512,37.4590404 207.465217,37.4590404 C203.805812,37.4590404 201.593185,36.2416666 200.524701,34.7705436"/>
    <mask id="welk-horizontal-b" fill="#fff">
      <use xlink:href="#welk-horizontal-a"/>
    </mask>
    <path fill="#5D5D66" d="M219.223717,23.3724539 C219.062363,23.2860546 218.803734,23.2362388 218.45169,23.2362388 L217.908184,23.2362388 L217.908184,24.5594711 L218.485659,24.5594711 C218.755869,24.5594711 218.953507,24.5368983 219.092472,24.4800772 C219.340292,24.3820023 219.464589,24.1889661 219.464589,23.9056387 C219.464589,23.6448841 219.38507,23.4635234 219.223717,23.3724539 L219.223717,23.3724539 Z M218.537385,22.8019073 C218.983616,22.8019073 219.314044,22.843161 219.524035,22.9303386 C219.899239,23.0891265 220.08607,23.3989185 220.08607,23.8527094 C220.08607,24.1819607 219.966406,24.4240344 219.734026,24.5789304 C219.606642,24.6536541 219.43062,24.718259 219.209048,24.7563992 C219.494698,24.7984313 219.700057,24.919079 219.831301,25.1152287 C219.958685,25.308265 220.026624,25.4935175 220.026624,25.6748781 L220.026624,25.9434165 C220.026624,26.0267023 220.026624,26.1169934 220.038204,26.2158467 C220.045152,26.3100297 220.052873,26.3738562 220.068313,26.404991 L220.08607,26.4501366 L219.494698,26.4501366 C219.490838,26.4353475 219.486205,26.423672 219.483117,26.4119964 C219.483117,26.4010992 219.475397,26.3894236 219.475397,26.3738562 L219.460729,26.2532085 L219.460729,25.9659893 C219.460729,25.5464468 219.344153,25.2670112 219.118721,25.134688 C218.983616,25.0552941 218.748148,25.0171538 218.406141,25.0171538 L217.908184,25.0171538 L217.908184,26.4501366 L217.26663,26.4501366 L217.26663,22.8019073 L218.537385,22.8019073 Z M216.595739,22.6127629 C216.044513,23.1724123 215.770443,23.8449257 215.770443,24.6388651 C215.770443,25.4366963 216.044513,26.1131016 216.591879,26.672751 C217.139246,27.2362923 217.814769,27.5196197 218.597603,27.5196197 C219.38507,27.5196197 220.056733,27.2362923 220.604099,26.672751 C221.159186,26.1131016 221.432484,25.4366963 221.432484,24.6388651 C221.432484,23.8449257 221.159186,23.1724123 220.604099,22.6127629 C220.052873,22.0531134 219.38121,21.7736779 218.597603,21.7736779 C217.814769,21.7736779 217.146966,22.0531134 216.595739,22.6127629 L216.595739,22.6127629 Z M220.933755,26.9942186 C220.289113,27.6449376 219.509366,27.9695187 218.597603,27.9695187 C217.686612,27.9695187 216.906866,27.6449376 216.265312,26.9942186 C215.62839,26.3473915 215.309544,25.5581224 215.309544,24.6357516 C215.309544,23.7164943 215.636111,22.937344 216.276892,22.2874034 C216.918446,21.6413547 217.690472,21.3198871 218.597603,21.3198871 C219.509366,21.3198871 220.289113,21.6413547 220.933755,22.2874034 C221.575308,22.9342305 221.901875,23.7164943 221.901875,24.6357516 C221.901875,25.5581224 221.575308,26.3403862 220.933755,26.9942186 L220.933755,26.9942186 Z" mask="url(#welk-horizontal-b)"/>
  </g>
</svg>
