<?xml version="1.0" encoding="UTF-8"?>
<svg width="223px" height="48px" viewBox="0 0 223 48" version="1.1" xmlns="http://www.w3.org/2000/svg" xmlns:xlink="http://www.w3.org/1999/xlink">
    <!-- Generator: sketchtool 57 (101010) - https://sketch.com -->
    <title>7461D7B5-FC57-4DCD-A685-0A9F20063A2D</title>
    <desc>Created with sketchtool.</desc>
    <defs>
        <polygon id="path-1" points="215.444882 21.3198874 222.041048 21.3198874 222.041048 27.969519 215.444882 27.969519"></polygon>
    </defs>
    <g id="-" stroke="none" stroke-width="1" fill="none" fill-rule="evenodd">
        <g id="Homepage-Desktop-Navigation-Up" transform="translate(-40.000000, -28.000000)">
            <g id="Desktop-/-Pattern-/-Global-Nav-Up">
                <g id="Desktop-/-Logos-/-Welk-Horizontal">
                    <g transform="translate(40.000000, 28.000000)">
                        <g id="Group-9">
                            <g>
                                <g id="Group-2" transform="translate(0.000386, 0.000032)">
                                    <path d="M64.147035,31.4029163 C68.1517347,16.8629288 74.7621158,9.64897779 77.0394797,10.0116991 C77.0417972,10.0116991 77.328399,10.1160009 77.328399,10.1160009 C77.6126832,10.2950265 77.7687306,10.6561911 77.796541,11.1862623 C77.798086,11.23997 77.798086,11.2952344 77.798086,11.3512772 C77.798086,14.8586211 72.7937564,25.2024055 64.5394709,31.6636709 L63.9454095,32.130694 L64.147035,31.4029163 Z M50.411008,32.569696 C50.1081835,26.4407955 53.9452482,14.5122457 61.6680457,8.97023755 C62.4544624,8.4059179 63.067064,8.2977242 63.4911729,8.64643482 C63.8055851,8.92042174 63.9585423,9.43492559 63.9547511,10.1837194 C63.9175992,14.3160959 58.901682,26.0251449 50.8165766,32.7479432 L50.4365009,33.0670757 L50.411008,32.569696 Z M42.7886409,23.272823 C43.3680245,23.2977309 43.7743656,23.5865069 43.9644034,24.1041243 C44.6442135,25.9768871 42.2447928,30.7856688 38.5769083,33.5247596 C37.883193,34.0470472 37.1493071,34.5117352 36.5235728,34.8978077 L36.1906204,35.1009628 L36.1473597,34.7125552 C36.1218669,34.4813787 36.1095067,34.2408618 36.1095067,33.9941179 C36.1095067,33.665645 36.131137,33.3192695 36.1751702,32.9612184 C36.7027955,28.6342489 40.003737,23.1599591 42.7886409,23.272823 L42.7886409,23.272823 Z M62.5208993,6.40472352 L62.5208993,6.40472352 C55.6633148,10.4545928 49.5875119,22.3660188 48.2108965,30.9522398 C47.9891857,32.3315149 47.8903042,33.5940342 47.9196596,34.7008791 L47.9219772,34.8495481 L47.2807926,35.223945 C45.0907226,36.4576646 42.8543018,37.1924477 40.6341038,37.4119486 C40.046995,37.4695481 39.4498436,37.4905642 38.8619624,37.4742184 C38.8565548,37.4742184 38.6417966,37.4578725 38.6417966,37.4578725 C38.1172613,37.4072784 37.7031952,37.2687282 37.3617451,37.0375517 L37.0712808,36.8382885 L37.3532474,36.6289064 C38.0492803,36.1058405 38.4084981,35.7828161 38.5035171,35.6629468 L38.5236024,35.6395957 L38.5475502,35.6209147 C43.2923158,32.0014852 46.6759161,26.1566902 46.7462147,23.1755256 C46.764755,22.3846997 46.5646745,21.8087044 46.1536984,21.4638857 C45.8454663,21.2031311 45.4136324,21.0684727 44.8682392,21.0622457 C43.0999604,21.0365595 40.8017387,22.391705 38.5614554,24.7797502 C35.7634188,27.765585 33.0565385,32.5191025 33.0565385,36.0926081 C33.0565385,36.251396 33.0611736,36.4070704 33.0719888,36.5619664 L33.0835764,36.7355434 L32.8101074,36.862418 C32.1681503,37.1558642 31.4528047,37.4352998 30.6903358,37.6913841 C30.6903358,37.6913841 30.0445162,37.8859771 29.690706,37.9918357 C29.761777,38.2736063 29.9178243,38.7912237 30.2044261,39.2193283 C30.4833027,39.6513247 30.8108476,39.8708256 31.1793356,39.8708256 C31.6034444,39.8708256 32.5335482,39.5353473 33.6691401,38.9764762 L33.8445002,38.8908553 L33.9688746,39.0410811 C34.7946894,40.0373972 36.1906177,40.5635766 38.1164888,40.6079438 C41.3409518,40.6678785 44.8412013,39.4458345 47.9683279,37.1644263 L48.2680623,36.9495957 L48.3553561,37.3107602 C48.8605786,39.4014673 49.8880189,40.3471892 51.7914872,40.476399 C51.7938048,40.476399 52.0525961,40.4950799 52.0525961,40.4950799 C54.2364861,40.5752522 59.0415076,37.57385 61.0098669,36.0248898 L61.3744923,35.7361138 L61.4084828,36.203137 C61.5830704,38.54915 62.1879469,40.3238381 62.9959939,40.832115 C63.1010555,40.9013901 63.3142686,40.9893461 63.7360599,41.0103621 C64.6314007,41.0562861 65.8009831,40.7885261 66.4730681,40.4880746 C66.1679261,40.2265416 65.7662201,39.85915 65.3699217,39.3952403 C65.3699217,39.3788945 65.2185095,39.1796313 65.2185095,39.1796313 C65.2409123,39.2099878 65.1883815,39.1383776 65.1883815,39.1383776 C65.1767939,39.1196967 65.084865,38.9788113 65.084865,38.9788113 C65.0786849,38.9679141 65.0346517,38.8815148 65.0346517,38.8815148 L65.0346517,38.88385 C65.0346517,38.8815148 64.9635807,38.7460781 64.9635807,38.743743 L64.9180025,38.6347709 L64.8670167,38.5024477 C64.8600641,38.4845451 64.8307087,38.3895838 64.8307087,38.3895838 C64.8214386,38.3662326 64.7920831,38.2689361 64.7920831,38.2689361 L64.7889931,38.260374 L64.7295097,37.9996194 C64.7341448,38.0268624 64.7117419,37.8766367 64.7117419,37.8766367 C64.7156045,37.910885 64.6908841,37.7536539 64.6908841,37.7536539 C64.6862491,37.7194055 64.6792965,37.6594709 64.6792965,37.6594709 C64.6746614,37.6267793 64.6677088,37.467213 64.6677088,37.467213 C64.6677088,37.4905642 64.6630737,37.4259593 64.6630737,37.4259593 L64.6607562,37.3800353 L64.6584386,37.2087935 L64.6630737,37.0741352 C64.6630737,37.0718001 64.6700263,36.9332498 64.6700263,36.9332498 C64.6700263,36.929358 64.6792965,36.8001482 64.6792965,36.8001482 C64.6792965,36.795478 64.6908841,36.6724952 64.6908841,36.6724952 L64.6978367,36.6335766 C64.6993818,36.6032201 64.7156045,36.5020318 64.7156045,36.5020318 C64.7117419,36.5292748 64.7410974,36.3323467 64.7410974,36.3323467 L64.7550026,36.251396 C64.7573201,36.2311583 64.8052158,36.0046521 64.8052158,36.0046521 C64.8028983,36.0209979 64.8168035,35.9579498 64.8168035,35.9579498 C64.819121,35.9400472 64.9844385,35.3321387 64.9844385,35.3321387 C64.9913911,35.3134578 65.0871825,35.0246818 65.0871825,35.0246818 C65.1010877,34.9896551 65.1219455,34.9460663 65.1219455,34.9460663 C65.1080403,34.9717525 65.1791114,34.7841649 65.1791114,34.7841649 L65.1999692,34.7265654 C65.2131019,34.6938737 65.2316422,34.65262 65.2316422,34.65262 C65.2362772,34.6386093 65.3351587,34.4074329 65.3351587,34.4074329 C65.3467464,34.3801898 65.3784194,34.3085796 65.3784194,34.3085796 C65.3699217,34.3288173 65.4525805,34.1373378 65.4525805,34.1373378 L65.4749833,34.0890787 L65.5143814,34.0174685 C65.5120638,34.0198036 65.5761823,33.8851453 65.5761823,33.8851453 L65.6217605,33.7909623 C65.6287131,33.7792867 65.7476798,33.5457751 65.7476798,33.5457751 L65.7847604,33.4741649 C65.7963481,33.455484 65.8442438,33.3698631 65.8442438,33.3698631 C65.8326561,33.3862089 65.9431253,33.1900591 65.9431253,33.1900591 L65.9639831,33.1550324 L66.0095612,33.0764168 C66.0141963,33.0701899 66.1563384,32.8265594 66.1563384,32.8265594 L66.1887839,32.7635113 L66.229727,32.7059118 L66.3556464,32.5074269 C66.3394237,32.5370051 66.4035421,32.4381518 66.4035421,32.4381518 L66.4035421,32.4358167 L66.3788217,32.4724002 L66.5711771,32.1812891 C67.0825797,31.4286034 67.6449681,30.7257335 68.2591147,30.0765713 C68.2753374,30.0555553 70.161038,28.3548126 70.161038,28.3548126 C70.1795783,28.3384668 70.9613599,27.7974982 70.9613599,27.7974982 C71.3607483,27.5453057 71.7547292,27.3265832 72.1355774,27.148336 L72.1726579,27.1296551 L72.9343543,26.8268684 C72.9660272,26.8151928 73.0046528,26.8066308 73.0046528,26.8066308 C72.9861125,26.811301 73.0649087,26.7856147 73.0649087,26.7856147 L73.3283351,26.7093343 C73.3654157,26.6976587 73.7454913,26.616708 73.7454913,26.616708 L73.7848894,26.6073675 L73.8281501,26.6003622 L74.1062542,26.5614436 C74.1016191,26.5614436 74.1541499,26.5544382 74.1541499,26.5544382 C74.1811878,26.549768 74.8857183,26.5357573 74.8857183,26.5357573 C74.9011685,26.5380924 74.9799647,26.5450978 74.9799647,26.5450978 C74.9706946,26.5427627 75.2503437,26.5777894 75.2503437,26.5777894 C75.2480262,26.5777894 75.3306849,26.5910217 75.3306849,26.5910217 C75.3167797,26.5886866 75.6543672,26.6657454 75.6543672,26.6657454 C75.6219217,26.6579617 75.7231207,26.683648 75.7231207,26.683648 L75.9749595,26.7669338 C76.0027699,26.7786094 76.0599358,26.8011821 76.0599358,26.8011821 C76.0692059,26.8066308 76.3836181,26.9498512 76.3836181,26.9498512 C77.3237646,27.455793 77.7640961,27.9570645 77.7324231,28.4910277 C77.6659871,29.5659593 75.6906753,30.3233152 73.1885105,31.2830478 C70.4221469,32.3455256 67.2849777,33.5527805 66.8191533,35.2511881 C66.6538358,35.8520912 66.8376936,36.4802374 67.3807691,37.1761019 C71.0710565,41.9070466 88.0531767,40.0973318 92.4132315,38.4681993 C92.6774305,38.3709028 92.8466105,38.199661 92.9315867,37.9482469 C92.980255,37.8112534 92.9980227,37.6571358 92.9980227,37.4882291 C92.9980227,36.5713069 92.3885112,35.2885499 91.9365919,34.5210752 C90.7569669,35.2535232 84.715927,38.7616456 76.8285847,38.9188767 C71.3877863,39.0270704 69.7160714,37.7217406 69.2734223,36.6055553 C68.8902566,35.6395957 69.3468109,34.6277121 69.9702277,34.054052 C71.0277959,33.0577359 72.1958333,32.8102136 73.9664296,32.4334816 C75.2395285,32.1649433 76.8262672,31.8279082 78.9406311,31.0954602 C78.966124,31.0884549 79.2805362,30.9709207 79.2805362,30.9709207 C79.302939,30.9639153 79.3832802,30.9312237 79.3832802,30.9312237 C79.3948679,30.9265535 79.6150336,30.8385975 79.6150336,30.8385975 C79.6103986,30.8409326 79.7069625,30.7996789 79.7069625,30.7996789 C79.7255028,30.7903384 79.7733985,30.7693224 79.7733985,30.7693224 L79.9062705,30.7093877 C79.9201757,30.7000473 79.9981993,30.668134 79.9981993,30.668134 C80.0206022,30.6611287 80.1264362,30.6035291 80.1264362,30.6035291 L80.1928722,30.5708375 C80.1859196,30.5731726 80.2577632,30.534254 80.2577632,30.534254 L80.37673,30.473541 L80.4524361,30.4322873 C80.447801,30.4346224 80.5211896,30.3910336 80.5211896,30.3910336 L80.5598152,30.3676824 L80.6996398,30.2797264 C80.7112274,30.2727211 80.7822985,30.2267971 80.7822985,30.2267971 C80.7915686,30.2221269 80.9684738,30.1038143 80.9684738,30.1038143 C80.9684738,30.1038143 81.0047818,30.0765713 81.0070993,30.0765713 C81.0070993,30.0734578 81.1840045,29.9333509 81.1840045,29.9333509 L81.2187675,29.9076646 C81.2257201,29.9006593 81.355502,29.7846818 81.355502,29.7846818 C81.3786774,29.7644442 81.4018527,29.7434281 81.4018527,29.7434281 C81.4196205,29.7247472 81.518502,29.6305642 81.518502,29.6305642 C81.5146394,29.6328993 81.5439948,29.6002077 81.5439948,29.6002077 C81.5648526,29.5791916 81.6057958,29.5285975 81.6057958,29.5285975 C81.6057958,29.5285975 81.6745493,29.452317 81.6954071,29.4266307 C81.7069948,29.4102849 81.8097388,29.2670645 81.8097388,29.2670645 L81.8676772,29.1752166 C81.8792648,29.1565357 81.8947151,29.1331845 81.8947151,29.1331845 C81.9086203,29.1082766 81.9541984,29.0179855 81.9541984,29.0179855 L81.9866439,28.9549373 C81.9820089,28.9650562 82.0901605,28.6638262 82.0901605,28.6638262 L82.0994306,28.6179023 L82.1218334,28.5159356 C82.1264685,28.4933628 82.128786,28.477017 82.128786,28.477017 C82.128786,28.4700116 82.1380562,28.382834 82.1380562,28.382834 L82.1426912,28.3454721 L82.1450088,28.3197858 C82.1473263,28.297213 82.1473263,28.2185975 82.1473263,28.2185975 L82.1450088,28.148544 L82.1380562,28.0450205 C82.1403737,28.0769338 82.1334211,27.9983182 82.1334211,27.9983182 C82.128786,27.9734103 82.1171984,27.9018001 82.1171984,27.9018001 C82.1148808,27.8901245 82.1040657,27.8371952 82.1040657,27.8371952 C82.0994306,27.8208494 82.0855254,27.771812 82.0855254,27.771812 L82.0762553,27.7305583 C82.0646676,27.698645 82.0283595,27.5826676 82.0283595,27.5826676 C82.0283595,27.5803325 82.0098193,27.5367436 82.0098193,27.5367436 C82.0005491,27.5157276 81.9588335,27.4207662 81.9588335,27.4207662 C81.9588335,27.4184311 81.9202079,27.3398155 81.9202079,27.3398155 L81.89008,27.282216 C81.8877625,27.2798809 81.8514544,27.2199463 81.8514544,27.2199463 L81.8282791,27.1810277 L81.7348052,27.0354721 C81.7293976,27.0308019 81.7046772,26.9957751 81.7046772,26.9957751 C81.7093123,27.0027805 81.6675967,26.9444026 81.6675967,26.9444026 L81.6428763,26.9124893 C81.6312886,26.8984786 81.6081133,26.8689005 81.5949806,26.8502196 C81.5787579,26.8292035 81.5100043,26.7459177 81.5100043,26.7459177 C81.486829,26.7256801 80.9931941,26.2703325 80.9931941,26.2703325 C80.9707913,26.2493164 80.9020378,26.1979439 80.9020378,26.1979439 L80.8332843,26.145793 C80.8077914,26.127112 80.6726019,26.0344858 80.6726019,26.0344858 C80.6610142,26.0274804 80.6517441,26.0204751 80.6378389,26.0087995 C80.6332038,26.0064644 80.4848816,25.9146165 80.4848816,25.9146165 C80.4617062,25.9006058 80.2894362,25.796304 80.2894362,25.796304 C78.6107687,24.8513604 76.3310873,24.580487 74.1912305,25.0685262 L73.388591,25.2530003 L73.9587045,24.6528756 C76.9915846,21.4490966 79.0920434,18.440689 80.5644503,15.1847591 C81.4775588,13.1679974 81.9387482,11.4555791 81.9387482,10.0949849 C81.9387482,7.41894217 80.1859196,7.02897782 79.4319484,6.98616736 C78.763726,6.94880551 78.0352476,7.11771222 77.4288261,7.44929868 C73.2781219,9.75405803 64.0535621,20.1266427 61.5575775,33.6656444 L61.5367197,33.7676111 L61.4517434,33.8252106 C60.5046444,34.4883835 55.642457,37.7707781 53.0136004,37.2874091 C52.6512925,37.2204691 52.3492405,37.1138321 52.0919942,36.9612712 C51.5141556,36.607112 51.1541653,36.0225547 50.8830137,34.9997739 L50.8420706,34.8511049 L50.9587198,34.7475814 C53.8417327,32.1587163 56.920191,28.765793 60.1060284,24.668443 C67.502826,15.1863159 68.7983277,9.04885304 67.6627358,6.67481858 C67.6472856,6.65146742 67.5692619,6.4911228 67.5692619,6.4911228 C67.268755,5.96883522 66.830741,5.62557319 66.2660351,5.47690415 C65.2826279,5.21537117 63.9863536,5.53606042 62.5208993,6.40472352 L62.5208993,6.40472352 Z M36.060838,0.215888217 C35.4706392,0.399583996 34.150417,1.12969688 33.6637347,1.40446217 C34.5513505,3.29045739 35.123009,6.01320244 35.123009,8.37711803 C35.123009,8.49076034 35.123009,8.60206752 35.119919,8.71415308 C34.9584641,15.3614495 33.6900001,21.5993222 31.3462002,27.2588646 C29.1870305,32.4358164 27.1661403,35.2511877 25.1684255,35.8637664 C24.7103262,36.0023166 24.3016676,35.9353767 23.9524924,35.6652816 C22.891834,34.8464343 22.4321897,32.0637546 22.5480664,27.1600114 C22.5480664,27.1576763 22.6044597,25.4795064 22.6044597,25.4795064 C22.6044597,25.4748361 22.7419668,22.6524595 22.7419668,22.6524595 C22.8091753,19.8425367 22.9768103,15.9210989 23.6774783,10.5557811 C23.7593645,9.98056423 23.8180754,9.26057019 23.828118,8.89629212 C23.831208,8.76319052 23.7879474,8.67134263 23.6867484,8.60128915 C23.1452178,8.23234085 21.4750479,8.62074845 21.0517116,8.77253098 C17.8581489,16.0331845 13.6580038,26.1177713 8.56406277,38.7546398 L8.08665065,38.6643487 C7.83403938,28.7525604 7.24152304,20.9929705 6.32146181,15.6066366 C5.5898934,11.2563158 5.09625853,9.62017803 4.81197429,9.01382628 C4.4373062,8.25102178 3.86642018,8.01673182 3.01820253,8.27670805 C2.38937815,8.46896592 1.36657289,8.96790234 -1.90359362e-13,9.73926893 C0.448056685,10.7184608 1.30786201,13.1096194 1.34803261,13.2201483 C2.06878587,15.607415 2.6674823,18.6072605 3.18120246,22.4057156 C3.82933963,27.2822158 4.15611201,32.4887457 4.15611201,37.9202251 C4.15611201,39.0153944 4.14297931,40.1183475 4.11594141,41.2298626 C4.05723053,43.6910747 3.83629224,45.7887871 3.47243931,47.5175512 C5.43230105,46.6239802 6.73398297,45.8510568 7.28864624,45.2306944 C7.88193509,44.5714134 8.73015275,42.8800111 9.81012386,40.2078602 C9.80857884,40.2125305 10.5695027,38.2019957 10.5695027,38.2019957 C12.534772,33.1877237 15.3884296,26.6532912 19.0547693,18.7792807 L19.6434231,17.4560484 L19.5267738,18.9053769 C19.1992289,23.0400887 18.999921,26.3372722 18.9473902,28.435763 C18.8245609,33.5045211 19.0787171,37.0001895 19.7021339,38.8309203 C20.2869252,40.5752518 21.3128205,41.1925008 22.8393032,40.7192506 C24.2862173,40.2794705 26.0382735,38.7242833 28.0452584,36.097278 C30.0808263,33.4259055 31.9495317,30.2197915 33.5972988,26.5700054 C37.2087901,18.6049254 39.1207562,11.1815921 39.2814386,4.50705274 L39.2683059,3.22273903 C39.2219552,1.92986323 39.0002444,1.02539504 38.6116711,0.538134202 C38.1527992,-0.0464231272 37.2945389,-0.156173571 36.060838,0.215888217 L36.060838,0.215888217 Z" id="Fill-1" fill="#5D5D66"></path>
                                    <path d="M102.016786,32.2112562 C105.848443,32.2112562 107.370291,31.0927357 107.370291,29.1717137 C107.370291,27.2288974 105.774282,26.0979229 102.016786,26.0979229 L100.30181,26.0979229 L100.30181,32.2112562 L102.016786,32.2112562 Z M110.678185,37.284685 L107.195703,37.284685 L103.735624,33.8746374 C103.211861,33.9205613 102.665695,33.9540313 102.114895,33.9540313 L100.30181,33.9540313 L100.30181,37.284685 L97.2866979,37.284685 L97.2866979,24.32557 L102.114895,24.32557 C107.466855,24.32557 110.430209,26.2006681 110.430209,29.1717139 C110.430209,31.1752434 109.109214,32.5405078 106.570741,33.2815179 L110.678185,37.284685 L110.678185,37.284685 Z" id="Fill-3" fill="#5D5D66"></path>
                                    <polygon id="Fill-5" fill="#5D5D66" points="114.539117 24.3252592 126.805055 24.3252592 126.805055 26.0983905 117.547277 26.0983905 117.547277 31.129787 125.735899 31.129787 125.735899 32.8616646 117.547277 32.8616646 117.547277 35.5120212 127.205216 35.5120212 127.205216 37.2843741 114.539117 37.2843741"></polygon>
                                    <path d="M129.667215,34.7705441 L132.133071,33.8598489 C133.053133,34.8655055 134.221942,35.6625583 136.562652,35.6625583 C138.531784,35.6625583 139.919987,34.9596885 139.919987,33.8972108 C139.919987,32.7709066 138.775125,32.2789755 136.686254,31.6516077 L135.416245,31.2663136 C132.601986,30.4233368 130.888555,29.4745014 130.888555,27.4740854 C130.888555,25.5460581 133.102573,24.1737884 136.313131,24.1737884 C138.877097,24.1737884 140.596707,24.8245073 141.764745,26.2115661 L139.399314,27.1798608 C138.675471,26.3252084 137.807168,25.9243469 136.313131,25.9243469 C134.769653,25.9243469 133.821782,26.5556065 133.821782,27.4328317 C133.821782,28.4081318 134.646824,28.850247 136.585828,29.4137883 L137.855837,29.7990825 C141.1421,30.7665988 142.911152,31.7994984 142.911152,33.874638 C142.911152,36.1467057 140.270707,37.4590408 136.638358,37.4590408 C132.953479,37.4590408 130.737143,36.2416671 129.667215,34.7705441" id="Fill-7" fill="#5D5D66"></path>
                                    <path d="M162.544991,30.8125992 C162.544991,28.041595 159.708329,25.9695688 155.675819,25.9695688 C151.641764,25.9695688 148.785016,28.041595 148.785016,30.8125992 C148.785016,33.5719279 151.641764,35.6517378 155.675819,35.6517378 C159.708329,35.6517378 162.544991,33.5719279 162.544991,30.8125992 M145.720463,30.8125992 C145.720463,26.9409771 150.151589,24.151292 155.675819,24.151292 C161.172239,24.151292 165.607227,26.9409771 165.607227,30.8125992 C165.607227,34.6803295 161.172239,37.4591174 155.675819,37.4591174 C150.151589,37.4591174 145.720463,34.6803295 145.720463,30.8125992" id="Fill-9" fill="#5D5D66"></path>
                                    <path d="M173.947799,32.2112562 C177.77791,32.2112562 179.298213,31.0927357 179.298213,29.1717137 C179.298213,27.2288974 177.730015,26.0979229 173.947799,26.0979229 L172.255226,26.0979229 L172.255226,32.2112562 L173.947799,32.2112562 Z M182.60688,37.284685 L179.147574,37.284685 L175.684405,33.8746374 C175.140556,33.9205613 174.592846,33.9540313 174.045135,33.9540313 L172.255226,33.9540313 L172.255226,37.284685 L169.242431,37.284685 L169.242431,24.32557 L174.045135,24.32557 C179.39555,24.32557 182.382079,26.2006681 182.382079,29.1717139 C182.382079,31.1752434 181.042544,32.5405078 178.524929,33.2815179 L182.60688,37.284685 L182.60688,37.284685 Z" id="Fill-11" fill="#5D5D66"></path>
                                    <polygon id="Fill-13" fill="#5D5D66" points="190.497243 26.0982351 184.77216 26.0982351 184.77216 24.3251038 199.205765 24.3251038 199.205765 26.0982351 193.483772 26.0982351 193.483772 37.2849969 190.497243 37.2849969"></polygon>
                                    <path d="M200.650743,34.7705441 L203.111965,33.8598489 C204.012713,34.8655055 205.183068,35.6625583 207.546953,35.6625583 C209.486729,35.6625583 210.881885,34.9596885 210.881885,33.8972108 C210.881885,32.7709066 209.760198,32.2789755 207.644289,31.6516077 L206.375826,31.2663136 C203.562339,30.4233368 201.869766,29.4745014 201.869766,27.4740854 C201.869766,25.5460581 204.087647,24.1737884 207.272711,24.1737884 C209.835904,24.1737884 211.57251,24.8245073 212.7166,26.2115661 L210.379752,27.1798608 C209.636596,26.3252084 208.788379,25.9243469 207.272711,25.9243469 C205.753181,25.9243469 204.785224,26.5556065 204.785224,27.4328317 C204.785224,28.4081318 205.599452,28.850247 207.573218,29.4137883 L208.818507,29.7990825 C212.097818,30.7665988 213.864552,31.7994984 213.864552,33.874638 C213.864552,36.1467057 211.227198,37.4590408 207.595621,37.4590408 C203.933917,37.4590408 201.719899,36.2416671 200.650743,34.7705441" id="Fill-15" fill="#5D5D66"></path>
                                    <mask id="mask-2" fill="white">
                                        <use xlink:href="#path-1"></use>
                                    </mask>
                                    <g id="Clip-18"></g>
                                    <path d="M219.361515,23.3724542 C219.20006,23.2860549 218.941269,23.2362391 218.589004,23.2362391 L218.045156,23.2362391 L218.045156,24.5594714 L218.622994,24.5594714 C218.893373,24.5594714 219.091136,24.5368987 219.230188,24.4800775 C219.478164,24.3820026 219.602539,24.1889664 219.602539,23.905639 C219.602539,23.6448844 219.52297,23.4635238 219.361515,23.3724542 L219.361515,23.3724542 Z M218.674752,22.8019077 C219.121264,22.8019077 219.451899,22.8431614 219.662022,22.930339 C220.037463,23.0891269 220.22441,23.3989189 220.22441,23.8527098 C220.22441,24.1819611 220.104671,24.4240348 219.872145,24.5789308 C219.744681,24.6536545 219.568548,24.7182594 219.346837,24.7563996 C219.632667,24.7984317 219.838155,24.9190793 219.969482,25.1152291 C220.096946,25.3082653 220.164927,25.4935178 220.164927,25.6748785 L220.164927,25.9434168 C220.164927,26.0267026 220.164927,26.1169937 220.176515,26.215847 C220.183467,26.31003 220.191192,26.3738565 220.206643,26.4049914 L220.22441,26.4501369 L219.632667,26.4501369 C219.628804,26.4353479 219.624169,26.4236723 219.621079,26.4119967 C219.621079,26.4010995 219.613354,26.3894239 219.613354,26.3738565 L219.598676,26.2532088 L219.598676,25.9659896 C219.598676,25.5464471 219.482027,25.2670116 219.256454,25.1346884 C219.121264,25.0552944 218.885648,25.0171542 218.543425,25.0171542 L218.045156,25.0171542 L218.045156,26.4501369 L217.403198,26.4501369 L217.403198,22.8019077 L218.674752,22.8019077 Z M216.731886,22.6127632 C216.180313,23.1724126 215.906071,23.844926 215.906071,24.6388654 C215.906071,25.4366966 216.180313,26.1131018 216.728023,26.6727512 C217.275734,27.2362925 217.951682,27.5196199 218.735008,27.5196199 C219.52297,27.5196199 220.195055,27.2362925 220.742765,26.6727512 C221.298201,26.1131018 221.57167,25.4366966 221.57167,24.6388654 C221.57167,23.844926 221.298201,23.1724126 220.742765,22.6127632 C220.191192,22.0531138 219.519107,21.7736782 218.735008,21.7736782 C217.951682,21.7736782 217.283459,22.0531138 216.731886,22.6127632 L216.731886,22.6127632 Z M221.072628,26.9942189 C220.427581,27.6449379 219.647345,27.969519 218.735008,27.969519 C217.823445,27.969519 217.043208,27.6449379 216.401251,26.9942189 C215.763929,26.3473918 215.444882,25.5581227 215.444882,24.6357519 C215.444882,23.7164946 215.771654,22.9373443 216.412839,22.2874037 C217.054796,21.641355 217.827307,21.3198874 218.735008,21.3198874 C219.647345,21.3198874 220.427581,21.641355 221.072628,22.2874037 C221.714585,22.9342308 222.041358,23.7164946 222.041358,24.6357519 C222.041358,25.5581227 221.714585,26.3403865 221.072628,26.9942189 L221.072628,26.9942189 Z" id="Fill-17" fill="#5D5D66" mask="url(#mask-2)"></path>
                                </g>
                            </g>
                        </g>
                    </g>
                </g>
            </g>
        </g>
    </g>
</svg>