<svg xmlns="http://www.w3.org/2000/svg" xmlns:xlink="http://www.w3.org/1999/xlink" width="100" height="55" viewBox="0 0 100 55">
  <defs>
    <polygon id="welk-logo-stacked-booking-header-a" points="0 .247 99.401 .247 99.401 50.652 0 50.652"/>
  </defs>
  <g fill="none" fill-rule="evenodd" transform="translate(0 -1)">
    <path fill="#5D5D66" d="M15.8091476,52.2536618 C18.3132166,52.2536618 19.3073131,51.5281721 19.3073131,50.2830411 C19.3073131,49.0215928 18.2642648,48.2885721 15.8091476,48.2885721 L14.6895338,48.2885721 L14.6895338,52.2536618 L15.8091476,52.2536618 Z M21.46872,55.5434687 L19.1930924,55.5434687 L16.9325269,53.3305997 C16.5898648,53.3607239 16.2333959,53.3820618 15.8731614,53.3820618 L14.6895338,53.3820618 L14.6895338,55.5434687 L12.7189131,55.5434687 L12.7189131,47.1388342 L15.8731614,47.1388342 C19.3700717,47.1388342 21.3055476,48.3538411 21.3055476,50.2830411 C21.3055476,51.5821445 20.4432441,52.4657859 18.7851614,52.946517 L21.46872,55.5434687 L21.46872,55.5434687 Z"/>
    <polygon fill="#5D5D66" points="23.991 47.139 32.005 47.139 32.005 48.288 25.957 48.288 25.957 51.552 31.308 51.552 31.308 52.675 25.957 52.675 25.957 54.393 32.266 54.393 32.266 55.543 23.991 55.543"/>
    <path fill="#5D5D66" d="M33.8755972 53.9132508L35.4872386 53.3220645C36.0884662 53.9747542 36.851611 54.4906301 38.380411 54.4906301 39.6669628 54.4906301 40.5744524 54.0362576 40.5744524 53.3459128 40.5744524 52.6154025 39.8263697 52.2965887 38.4619972 51.8899128L37.6323283 51.6401335C35.7935007 51.0941335 34.6738869 50.479099 34.6738869 49.1799956 34.6738869 47.9298439 36.1211007 47.0411818 38.2172386 47.0411818 39.8928938 47.0411818 41.0162731 47.4616645 41.7794179 48.3616232L40.2343007 48.9904645C39.7611007 48.4356783 39.1937628 48.1771128 38.2172386 48.1771128 37.2093352 48.1771128 36.5905352 48.586299 36.5905352 49.153637 36.5905352 49.787499 37.1290041 50.0736783 38.3967283 50.4389335L39.2263972 50.6887128C41.3727421 51.3175542 42.5287559 51.9865611 42.5287559 53.3308508 42.5287559 54.8056783 40.8028938 55.6554301 38.4306179 55.6554301 36.0219421 55.6554301 34.5747283 54.8659266 33.8755972 53.9132508M55.3562414 51.3452935C55.3562414 49.5491418 53.5036069 48.2061073 50.869 48.2061073 48.2331379 48.2061073 46.3666966 49.5491418 46.3666966 51.3452935 46.3666966 53.1364245 48.2331379 54.4832245 50.869 54.4832245 53.5036069 54.4832245 55.3562414 53.1364245 55.3562414 51.3452935M44.3646966 51.3452935C44.3646966 48.8362039 47.2591241 47.0287556 50.869 47.0287556 54.4587931 47.0287556 57.3569862 48.8362039 57.3569862 51.3452935 57.3569862 53.853128 54.4587931 55.6555556 50.869 55.6555556 47.2591241 55.6555556 44.3646966 53.853128 44.3646966 51.3452935M62.8058152 52.2536618C65.3098841 52.2536618 66.3014703 51.5281721 66.3014703 50.2830411 66.3014703 49.0215928 65.2785048 48.2885721 62.8058152 48.2885721L61.7012634 48.2885721 61.7012634 52.2536618 62.8058152 52.2536618zM68.4641324 55.5434687L66.2035669 55.5434687 63.940491 53.3305997C63.5865324 53.3607239 63.2288083 53.3820618 62.8710841 53.3820618L61.7012634 53.3820618 61.7012634 55.5434687 59.7331531 55.5434687 59.7331531 47.1388342 62.8710841 47.1388342C66.3667393 47.1388342 68.3185324 48.3538411 68.3185324 50.2830411 68.3185324 51.5821445 67.4411669 52.4657859 65.796891 52.946517L68.4641324 55.5434687 68.4641324 55.5434687z"/>
    <polygon fill="#5D5D66" points="73.619 48.288 69.879 48.288 69.879 47.139 79.309 47.139 79.309 48.288 75.571 48.288 75.571 55.543 73.619 55.543"/>
    <path fill="#5D5D66" d="M80.2532138,53.9132508 L81.8623448,53.3220645 C82.4497655,53.9747542 83.2141655,54.4906301 84.7592828,54.4906301 C86.0270069,54.4906301 86.9395172,54.0362576 86.9395172,53.3459128 C86.9395172,52.6154025 86.2064966,52.2965887 84.8232966,51.8899128 L83.9936276,51.6401335 C82.1560552,51.0941335 81.0502483,50.479099 81.0502483,49.1799956 C81.0502483,47.9298439 82.4987172,47.0411818 84.5810483,47.0411818 C86.2554483,47.0411818 87.3901241,47.4616645 88.1382069,48.3616232 L86.6106621,48.9904645 C86.1261655,48.4356783 85.5701241,48.1771128 84.5810483,48.1771128 C83.5869517,48.1771128 82.9543448,48.586299 82.9543448,49.153637 C82.9543448,49.787499 83.4877931,50.0736783 84.7756,50.4389335 L85.5902069,50.6887128 C87.7340414,51.3175542 88.8888,51.9865611 88.8888,53.3308508 C88.8888,54.8056783 87.1641931,55.6554301 84.7906621,55.6554301 C82.3995586,55.6554301 80.9523448,54.8659266 80.2532138,53.9132508"/>
    <g transform="translate(0 .718)">
      <mask id="welk-logo-stacked-booking-header-b" fill="#fff">
        <use xlink:href="#welk-logo-stacked-booking-header-a"/>
      </mask>
      <path fill="#5D5D66" d="M68.5625379,33.5582452 C72.8426759,18.1359418 79.9092966,10.4819004 82.3430759,10.8672383 C82.3455862,10.8672383 82.6518483,10.9776935 82.6518483,10.9776935 C82.9543448,11.1684797 83.1225379,11.5500521 83.1526621,12.1136245 C83.1551724,12.1701073 83.1551724,12.2291004 83.1551724,12.2880935 C83.1551724,16.0084245 77.8043724,26.9798866 68.9817655,33.8356383 L68.3479034,34.3301763 L68.5625379,33.5582452 Z M53.8807862,34.7958452 C53.5582069,28.2940521 57.6576,15.6419142 65.9116138,9.76268661 C66.7538345,9.16396937 67.4077793,9.04974868 67.8621517,9.41876937 C68.1972828,9.70996937 68.3617103,10.2559694 68.3580081,11.0504935 C68.3177793,15.4335556 62.9569379,27.8534866 54.3150759,34.9853763 L53.9084,35.3242728 L53.8807862,34.7958452 Z M45.7347172,24.9352108 C46.3535172,24.9615694 46.7878069,25.2665763 46.9911448,25.8163418 C47.7178897,27.8020245 45.1523172,32.9030452 41.2324138,35.8100245 C40.4906069,36.3623004 39.7061241,36.8568383 39.0383724,37.2660245 L38.6819034,37.480659 L38.6354621,37.0689625 C38.6091034,36.8229487 38.5952966,36.5694039 38.5952966,36.3058176 C38.5952966,35.9581349 38.6191448,35.5916245 38.6655862,35.2100521 C39.2291586,30.6211418 42.7574483,24.8147142 45.7347172,24.9352108 L45.7347172,24.9352108 Z M66.8253793,7.04147282 L66.8253793,7.04147282 C59.4951724,11.337928 52.9996552,23.9724935 51.5285931,33.0800245 C51.2926207,34.5448108 51.1871862,35.8815694 51.2185655,37.0564108 L51.2210759,37.2133073 L50.5357517,37.6099418 C48.1948552,38.9190866 45.8037517,39.6998039 43.4314759,39.9320108 C42.8038897,39.9935142 42.1662621,40.0161073 41.5374207,39.9985349 C41.5324,39.9985349 41.3027034,39.9822176 41.3027034,39.9822176 C40.7416414,39.9269901 40.2985655,39.7813901 39.9345655,39.5341211 L39.6232828,39.3245073 L39.9245241,39.1010866 C40.6688414,38.5475556 41.0529241,38.2036383 41.1545931,38.0768659 L41.175931,38.0517625 L41.2010345,38.0316797 C46.2731862,34.1921073 49.8893379,27.9940659 49.9633931,24.8310314 C49.9834759,23.9925763 49.7713517,23.3813073 49.3307862,23.0160521 C49.001931,22.7399142 48.5400276,22.5955694 47.9576276,22.5892935 C46.0673379,22.5629349 43.6109655,24.0001073 41.2173517,26.5330452 C38.2262759,29.6985901 35.3318483,34.7418728 35.3318483,38.5324935 C35.3318483,38.7006866 35.336869,38.8663694 35.3481655,39.030797 L35.3619724,39.212797 L35.0695172,39.3483556 C34.3829379,39.6608935 33.6185379,39.9571142 32.803931,40.2282314 C32.803931,40.2282314 32.112331,40.4353349 31.7345241,40.5483004 C31.8110897,40.8470314 31.9780276,41.3955418 32.2830345,41.848659 C32.5817655,42.3080521 32.9319586,42.540259 33.3260828,42.540259 C33.7792,42.540259 34.7732966,42.1850452 35.9870483,41.5926039 L36.174069,41.5009763 L36.3071172,41.6603832 C37.1907586,42.7172383 38.6819034,43.2770452 40.7403862,43.3234866 C44.1870897,43.3862452 47.9287586,42.088397 51.2700276,39.6709349 L51.5913517,39.4412383 L51.6842345,39.8240659 C52.2227034,42.0419556 53.3209793,43.0460935 55.3556138,43.1841625 C55.3581241,43.1841625 55.6355172,43.2029901 55.6355172,43.2029901 C57.9688828,43.2883418 63.1050483,40.1039694 65.2099724,38.4609487 L65.5990759,38.1546866 L65.636731,38.6504797 C65.8212414,41.1394866 66.4701655,43.0209901 67.3312138,43.5607142 C67.4441793,43.6347694 67.6726207,43.726397 68.1232276,43.7489901 C69.0809241,43.7979418 70.3310759,43.5142728 71.0490345,43.1942039 C70.7226897,42.9180659 70.2934207,42.5277073 69.8704276,42.0356797 L69.8704276,42.0344245 C69.8704276,42.0181073 69.7072552,41.8072383 69.7072552,41.8072383 C69.7311034,41.8386176 69.6746207,41.7633073 69.6746207,41.7633073 C69.6633241,41.7444797 69.5654207,41.5951142 69.5654207,41.5951142 C69.5591448,41.5825625 69.5114483,41.4909349 69.5114483,41.4909349 L69.5114483,41.4934452 C69.5114483,41.4909349 69.4361379,41.3465901 69.4361379,41.3440797 L69.385931,41.2286039 L69.3319586,41.0892797 C69.3244276,41.069197 69.2930483,40.9700383 69.2930483,40.9700383 C69.2830069,40.9436797 69.2503724,40.8420108 69.2503724,40.8420108 L69.2478621,40.8319694 L69.1863586,40.5545763 C69.1913793,40.5847004 69.1662759,40.4252935 69.1662759,40.4252935 C69.1712966,40.4629487 69.1436828,40.2947556 69.1436828,40.2947556 C69.1399172,40.2571004 69.1323862,40.1943418 69.1323862,40.1943418 C69.1273655,40.1604521 69.1198345,39.992259 69.1198345,39.992259 C69.1198345,40.0161073 69.1148138,39.9458176 69.1148138,39.9458176 L69.1123034,39.8968659 L69.1097931,39.7161211 L69.1148138,39.5742866 L69.1148138,39.5755418 C69.1148138,39.5717763 69.1223448,39.4236659 69.1223448,39.4236659 C69.1223448,39.4199004 69.1323862,39.2818314 69.1323862,39.2818314 C69.1323862,39.2780659 69.1436828,39.1487832 69.1436828,39.1487832 L69.1512138,39.1061073 C69.1537241,39.0734728 69.1712966,38.9667832 69.1712966,38.9667832 C69.1662759,38.9969073 69.1976552,38.7872935 69.1976552,38.7872935 L69.2114621,38.7006866 C69.2139724,38.6793487 69.2654345,38.4396108 69.2654345,38.4396108 C69.2629241,38.4571832 69.2779862,38.3894039 69.2779862,38.3894039 C69.2804966,38.3705763 69.4574759,37.7266728 69.4574759,37.7266728 C69.4650069,37.7065901 69.567931,37.3990728 69.567931,37.3990728 C69.5829931,37.363928 69.604331,37.3174866 69.604331,37.3174866 C69.5905241,37.3438452 69.6658345,37.1442728 69.6658345,37.1442728 L69.6871724,37.0827694 C69.7022345,37.0501349 69.7210621,37.0049487 69.7210621,37.0049487 C69.7260828,36.9911418 69.8327724,36.745128 69.8327724,36.745128 C69.8453241,36.7150039 69.8792138,36.6409487 69.8792138,36.6409487 C69.8704276,36.6610314 69.9582897,36.4589487 69.9582897,36.4589487 L69.9821379,36.4062314 L70.0235586,36.3309211 C70.0210483,36.3334314 70.0888276,36.191597 70.0888276,36.191597 L70.1377793,36.0911832 C70.1453103,36.0786314 70.2745931,35.8313625 70.2745931,35.8313625 L70.3135034,35.7560521 C70.3260552,35.7347142 70.3762621,35.645597 70.3762621,35.645597 C70.3649655,35.6619142 70.4816966,35.4535556 70.4816966,35.4535556 L70.5030345,35.4171556 L70.5532414,35.3343142 C70.5570069,35.3267832 70.7113931,35.0682176 70.7113931,35.0682176 L70.7452828,35.0029487 L70.7879586,34.9414452 L70.9222621,34.7305763 C70.9059448,34.7619556 70.9749793,34.6577763 70.9749793,34.6577763 L70.9749793,34.6552659 L70.9473655,34.6941763 L71.1532138,34.3841487 C71.700469,33.5846039 72.3016966,32.8402866 72.9594069,32.1499418 C72.9757241,32.129859 74.991531,30.3249211 74.991531,30.3249211 C75.0103586,30.3086039 75.8450483,29.7337349 75.8450483,29.7337349 C76.2718069,29.4663832 76.6935448,29.2341763 77.1002207,29.0459004 L77.1403862,29.0258176 L77.9549931,28.7044935 C77.9888828,28.6919418 78.0315586,28.6819004 78.0315586,28.6819004 C78.0114759,28.6869211 78.0943172,28.6593073 78.0943172,28.6593073 L78.376731,28.5789763 C78.4156414,28.5676797 78.8223172,28.482328 78.8223172,28.482328 L78.8649931,28.4722866 L78.9114345,28.4647556 L79.2076552,28.4233349 C79.2026345,28.4233349 79.2591172,28.4158039 79.2591172,28.4158039 C79.2879862,28.4107832 80.0410897,28.3957211 80.0410897,28.3957211 C80.0586621,28.3982314 80.1402483,28.4045073 80.1402483,28.4045073 C80.1302069,28.4032521 80.4314483,28.4396521 80.4314483,28.4396521 C80.4289379,28.4396521 80.5155448,28.453459 80.5155448,28.453459 C80.5004828,28.4509487 80.8607172,28.5325349 80.8607172,28.5325349 C80.8280828,28.5250039 80.9347724,28.5513625 80.9347724,28.5513625 L81.2058897,28.6417349 C81.2347586,28.6530314 81.2950069,28.6768797 81.2950069,28.6768797 C81.3050483,28.6819004 81.6414345,28.8337763 81.6414345,28.8337763 C82.6468276,29.3709901 83.1175172,29.9044383 83.0836276,30.4692659 C83.0120828,31.6089625 80.9008828,32.4122728 78.2261103,33.4314728 C75.2701793,34.5586176 71.9163586,35.8388935 71.4193103,37.6400659 C71.2410759,38.2764383 71.4393931,38.9454452 72.0192828,39.6822314 C75.9630345,44.7016659 94.1140828,42.7812521 98.7745379,41.0516245 C99.0569517,40.9487004 99.2376966,40.7692108 99.3293241,40.5006039 C99.3807862,40.3575142 99.400869,40.1918314 99.400869,40.013597 C99.400869,39.0395832 98.7469241,37.6802314 98.2661931,36.8643694 C97.006,37.6425763 90.5481379,41.3629073 82.1158897,41.5298452 C76.301931,41.6465763 74.5158207,40.2596108 74.0413655,39.0759832 C73.6321793,38.0530176 74.1204414,36.9785901 74.7869379,36.3698314 C75.9165931,35.3142314 77.1642345,35.0506452 79.0570345,34.6527556 C80.4188966,34.3665763 82.1133793,34.0088521 84.3739448,33.2319004 C84.4015586,33.2243694 84.7379448,33.0988521 84.7379448,33.0988521 C84.7617931,33.0925763 84.8471448,33.0586866 84.8471448,33.0586866 C84.8596966,33.0536659 85.095669,32.959528 85.095669,32.959528 C85.0919034,32.9620383 85.1923172,32.9181073 85.1923172,32.9181073 C85.2124,32.9093211 85.2638621,32.8879832 85.2638621,32.8879832 L85.4069517,32.8227142 C85.4220138,32.813928 85.5061103,32.777528 85.5061103,32.777528 C85.5287034,32.7712521 85.641669,32.7110039 85.641669,32.7110039 L85.7132138,32.6746039 C85.7056828,32.6783694 85.7822483,32.6369487 85.7822483,32.6369487 L85.9090207,32.5716797 L85.9893517,32.5277487 C85.984331,32.530259 86.0634069,32.4838176 86.0634069,32.4838176 L86.1060828,32.4599694 L86.2554483,32.3670866 C86.268,32.3595556 86.3433103,32.3106039 86.3433103,32.3106039 C86.3520966,32.3068383 86.5428828,32.1800659 86.5428828,32.1800659 C86.5428828,32.1800659 86.5817931,32.1499418 86.5843034,32.1499418 C86.5843034,32.1486866 86.7713241,31.9993211 86.7713241,31.9993211 L86.8089793,31.9729625 C86.8152552,31.9654314 86.9570897,31.8411694 86.9570897,31.8411694 C86.9809379,31.8210866 87.0060414,31.7972383 87.0060414,31.7972383 C87.024869,31.7784108 87.1290483,31.677997 87.1290483,31.677997 C87.1252828,31.6792521 87.1566621,31.6453625 87.1566621,31.6453625 C87.1792552,31.6240245 87.2231862,31.5713073 87.2231862,31.5713073 C87.2231862,31.5713073 87.2972414,31.4884659 87.3198345,31.4621073 C87.3323862,31.4457901 87.4415862,31.292659 87.4415862,31.292659 L87.5018345,31.1960108 C87.5143862,31.175928 87.5319586,31.1508245 87.5319586,31.1508245 C87.5457655,31.1232108 87.5959724,31.0290728 87.5959724,31.0290728 L87.6298621,30.9612935 C87.6248414,30.9713349 87.7415724,30.6525211 87.7415724,30.6525211 L87.7516138,30.6035694 L87.7754621,30.4968797 C87.7804828,30.4730314 87.7829931,30.4542039 87.7829931,30.4542039 C87.7829931,30.4466728 87.7930345,30.3550452 87.7930345,30.3550452 L87.7980552,30.3161349 L87.8005655,30.2885211 C87.8030759,30.2646728 87.8030759,30.1793211 87.8030759,30.1793211 L87.8005655,30.1065211 L87.7930345,29.9960659 C87.7955448,30.0312108 87.7880138,29.9483694 87.7880138,29.9483694 C87.7829931,29.9207556 87.7704414,29.8441901 87.7704414,29.8441901 C87.767931,29.8316383 87.7553793,29.7751556 87.7553793,29.7751556 C87.7516138,29.7575832 87.7365517,29.7061211 87.7365517,29.7061211 L87.7265103,29.6621901 C87.7139586,29.6283004 87.6750483,29.5065487 87.6750483,29.5065487 C87.6750483,29.5040383 87.6537103,29.4563418 87.6537103,29.4563418 C87.6449241,29.4350039 87.5997379,29.3333349 87.5997379,29.3333349 C87.5997379,29.3320797 87.5583172,29.2492383 87.5583172,29.2492383 L87.5269379,29.1877349 C87.5244276,29.1839694 87.4855172,29.1224659 87.4855172,29.1224659 L87.4604138,29.0785349 L87.3612552,28.9241487 C87.3562345,28.919128 87.3298759,28.882728 87.3298759,28.882728 C87.3348966,28.890259 87.2897103,28.8300108 87.2897103,28.8300108 L87.2620966,28.7961211 C87.2495448,28.781059 87.2256966,28.7496797 87.2106345,28.729597 C87.1930621,28.7070039 87.1202621,28.6178866 87.1202621,28.6178866 C87.0951586,28.5965487 86.5692414,28.1133073 86.5692414,28.1133073 C86.5453931,28.0919694 86.4700828,28.037997 86.4700828,28.037997 L86.3960276,27.9815142 C86.369669,27.9626866 86.2265793,27.8647832 86.2265793,27.8647832 C86.2140276,27.855997 86.2039862,27.8484659 86.1889241,27.8371694 C86.1851586,27.8334039 86.0244966,27.7355004 86.0244966,27.7355004 C85.9993931,27.7204383 85.8173931,27.6112383 85.8173931,27.6112383 C84.0212414,26.6096108 81.5862069,26.3209211 79.2980276,26.8393073 L78.4407448,27.033859 L79.0495034,26.3974866 C82.2916138,23.0009901 84.5358621,19.8090866 86.1111034,16.3548521 C87.0851172,14.2160383 87.5784,12.3998039 87.5784,10.9563556 C87.5784,8.11715558 85.7056828,7.70420386 84.8986069,7.65776248 C84.1869241,7.61885213 83.4074621,7.79708661 82.7597931,8.14979006 C78.3215034,10.5936108 68.4621241,21.5964521 65.7948828,35.9581349 L65.7722897,36.0660797 L65.6831724,36.1275832 C64.6689931,36.8304797 59.4725793,40.312328 56.6635034,39.7989625 C56.2769103,39.7286728 55.9530759,39.6169625 55.6769379,39.4537901 C55.0606483,39.0797487 54.6753103,38.4596935 54.3866207,37.3739694 L54.3426897,37.2158176 L54.4656966,37.1066176 C57.5484,34.3590452 60.8369517,30.7617211 64.2422345,26.415059 C72.1498207,16.3573625 73.5342759,9.84678317 72.3205241,7.32765213 C72.3042069,7.30254868 72.2213655,7.13184523 72.2213655,7.13184523 C71.9000414,6.5783142 71.4318621,6.21556937 70.826869,6.05741765 C69.7750345,5.77876937 68.3918345,6.1189211 66.8253793,7.04147282 L66.8253793,7.04147282 Z M38.5438345,0.475665925 C37.9124828,0.671472821 36.501669,1.4459142 35.9820276,1.7371142 C36.9296828,3.73785903 37.5409517,6.62601075 37.5409517,9.13384523 C37.5409517,9.25434179 37.5409517,9.37232799 37.5371862,9.4903142 C37.3652276,16.5418728 36.0096414,23.160397 33.5043172,29.1638866 C31.1960552,34.6540108 29.0371586,37.6413211 26.9008552,38.2902452 C26.4113379,38.4358452 25.9757931,38.3655556 25.6017517,38.0793763 C24.4670759,37.210797 23.9763034,34.2598866 24.1005655,29.057197 C24.1005655,29.0546866 24.1608138,27.2748521 24.1608138,27.2748521 C24.1608138,27.2710866 24.307669,24.2762452 24.307669,24.2762452 C24.380469,21.2964659 24.5587034,17.1368245 25.3080414,11.4446176 C25.3959034,10.8346039 25.4574069,10.0702039 25.4687034,9.68486592 C25.4712138,9.54303144 25.4260276,9.44512799 25.3168276,9.37107282 C24.7394483,8.9807142 22.9533379,9.39241075 22.5014759,9.55307282 C19.0874069,17.2548108 14.5989103,27.9513901 9.15397241,41.3553763 L8.64311724,41.2612383 C8.37325517,30.7454039 7.7393931,22.5164935 6.7565931,16.8029487 C5.97462069,12.1876797 5.44744828,10.4517763 5.14369655,9.80912799 C4.74329655,8.99954179 4.13328276,8.75101765 3.2257931,9.02715558 C2.55427586,9.23049351 1.46102069,9.76017627 1.13686838e-13,10.5785487 C0.479475862,11.6178314 1.39826207,14.1532797 1.44093793,14.2700108 C2.21161379,16.8042039 2.85049655,19.9860659 3.40026207,24.0151694 C4.09311724,29.1877349 4.44205517,34.7104935 4.44205517,40.4717349 C4.44205517,41.6327694 4.42824828,42.8038452 4.39937931,43.9824521 C4.33662069,46.5919556 4.10064828,48.8186314 3.71154483,50.6524383 C5.80642759,49.703528 7.19841379,48.8851556 7.79085517,48.2261901 C8.42471724,47.5258039 9.33095172,45.7321625 10.4857103,42.8979832 C10.4844552,42.9030039 11.2978069,40.7717211 11.2978069,40.7717211 C13.3977103,35.4510452 16.4477793,28.5199832 20.3664276,20.1680659 L20.995269,18.7647832 L20.8710069,20.3023694 C20.5208138,24.6879418 20.3074345,28.183597 20.2522069,30.411528 C20.1204138,35.7874314 20.391531,39.4964659 21.0592828,41.4382176 C21.6831034,43.289597 22.7801241,43.9435418 24.4118483,43.4402176 C25.9582207,42.9745487 27.8309379,41.3252521 29.9760276,38.5375142 C32.1512414,35.7045901 34.1494759,32.304328 35.9104828,28.4321211 C39.7701379,19.9835556 41.8135586,12.1086039 41.9855172,5.02817627 L41.9717103,3.6663142 C41.9227586,2.29441075 41.685531,1.33420386 41.270069,0.818327994 C40.7792966,0.198272821 39.8617655,0.0815417867 38.5438345,0.475665925 L38.5438345,0.475665925 Z" mask="url(#welk-logo-stacked-booking-header-b)"/>
    </g>
    <path fill="#5D5D66" d="M92.4800993,46.5225445 C92.3746648,46.4648066 92.2052166,46.4346825 91.9742648,46.4346825 L91.6177959,46.4346825 L91.6177959,47.2919652 L91.9956028,47.2919652 C92.1725821,47.2919652 92.30312,47.2769032 92.3934924,47.239248 C92.5554097,47.1752342 92.6369959,47.0522273 92.6369959,46.867717 C92.6369959,46.6982687 92.5855338,46.5815376 92.4800993,46.5225445 L92.4800993,46.5225445 Z M92.0307476,46.1510135 C92.3232028,46.1510135 92.5390924,46.1786273 92.674651,46.2351101 C92.9206648,46.336779 93.0424166,46.5388618 93.0424166,46.8338273 C93.0424166,47.0472066 92.965851,47.202848 92.81272,47.3032618 C92.7286234,47.3534687 92.6144028,47.3936342 92.4688028,47.4187376 C92.6558234,47.4463514 92.7901269,47.5254273 92.8754786,47.6509445 C92.9608303,47.7764618 93.0047614,47.8982135 93.0047614,48.0136894 L93.0047614,48.1894135 C93.0047614,48.2433859 93.0047614,48.3011239 93.0110372,48.3651376 C93.0160579,48.4266411 93.0210786,48.4680618 93.0298648,48.4868894 L93.0436717,48.5182687 L92.6558234,48.5182687 C92.6533131,48.5082273 92.6508028,48.5006963 92.6482924,48.4931652 C92.6482924,48.4856342 92.6445269,48.4793583 92.6432717,48.4680618 L92.6332303,48.3902411 L92.6332303,48.2044756 C92.6332303,47.930848 92.55792,47.748848 92.4110648,47.6647514 C92.3232028,47.6132894 92.1675614,47.5881859 91.9453959,47.5881859 L91.6177959,47.5881859 L91.6177959,48.5182687 L91.1998234,48.5182687 L91.1998234,46.1510135 L92.0307476,46.1510135 Z M90.7605131,46.0292618 C90.4002786,46.3920066 90.220789,46.8288066 90.220789,47.3421721 C90.220789,47.8593032 90.4002786,48.2998687 90.7580028,48.6626135 C91.1169821,49.0278687 91.5575476,49.2111239 92.0696579,49.2111239 C92.5855338,49.2111239 93.023589,49.0278687 93.3825683,48.6626135 C93.7440579,48.2998687 93.9222924,47.8593032 93.9222924,47.3421721 C93.9222924,46.8288066 93.7440579,46.3920066 93.3825683,46.0292618 C93.0210786,45.6652618 92.5830234,45.484517 92.0696579,45.484517 C91.5588028,45.484517 91.1220028,45.6652618 90.7605131,46.0292618 L90.7605131,46.0292618 Z M93.5984579,48.869717 C93.1754648,49.2927101 92.6658648,49.503579 92.0696579,49.503579 C91.473451,49.503579 90.9651062,49.2927101 90.5458786,48.869717 C90.1291614,48.4504894 89.9208028,47.938379 89.9208028,47.3396618 C89.9208028,46.7459652 90.1329269,46.2401308 90.5521545,45.8171376 C90.9713821,45.3979101 91.4759614,45.1895514 92.0696579,45.1895514 C92.6658648,45.1895514 93.1754648,45.3979101 93.5984579,45.8171376 C94.0176855,46.2363652 94.2298097,46.7447101 94.2298097,47.3396618 C94.2298097,47.938379 94.0176855,48.4467239 93.5984579,48.869717 L93.5984579,48.869717 Z"/>
  </g>
</svg>
