<svg xmlns="http://www.w3.org/2000/svg" xmlns:xlink="http://www.w3.org/1999/xlink" width="23" height="28"><defs><path id="a" d="M.002.375h22.269v26.999H.002z"/></defs><g fill="none" fill-rule="evenodd"><mask id="b" fill="#fff"><use xlink:href="#a"/></mask><path fill="#5F5F66" d="M11.136 23.436c-3.967 0-7.197-3.227-7.197-7.197a7.182 7.182 0 014.425-6.643.49.49 0 10-.378-.905A8.159 8.159 0 002.96 16.24c0 4.51 3.667 8.18 8.177 8.18s8.178-3.67 8.178-8.18c0-3.308-1.97-6.27-5.023-7.545a.49.49 0 10-.38.905 7.182 7.182 0 014.423 6.64c0 3.97-3.23 7.197-7.197 7.197M7.688 3.232V.867c0-.273.22-.493.49-.493h5.915c.27 0 .49.22.49.493v2.365c0 .27-.22.49-.49.49h-2.365a.491.491 0 110-.983h1.873V1.357h-4.93v1.382h1.872a.492.492 0 110 .982H8.179a.49.49 0 01-.49-.49m10.765 4.613l1.258-1.258.54.54a.488.488 0 00.692 0 .49.49 0 000-.695L19.172 4.66a.49.49 0 10-.695.692l.54.54-1.338 1.338a11.055 11.055 0 00-4.87-1.995v-.82a.49.49 0 10-.98 0v1.253c0 .25.188.46.435.487 1.835.202 3.505.885 4.898 1.912a.492.492 0 00.48.385h.012a10.136 10.136 0 013.635 7.788c0 5.6-4.555 10.155-10.153 10.155C5.54 26.394.985 21.839.985 16.239c0-3.113 1.402-5.918 3.635-7.788h.013a.492.492 0 00.48-.385 10.086 10.086 0 014.895-1.912.49.49 0 00.437-.487V4.413a.49.49 0 10-.98 0v.82a11.077 11.077 0 00-4.873 1.995L3.256 5.891l.54-.54a.49.49 0 10-.695-.692L1.33 6.431a.49.49 0 10.693.696l.54-.54L3.82 7.844a11.112 11.112 0 00-3.817 8.395c0 6.14 4.995 11.135 11.134 11.135 6.14 0 11.136-4.995 11.136-11.135a11.11 11.11 0 00-3.818-8.395m-5.053 8.395c0 1.082-.76 1.985-1.774 2.21v1.34a.49.49 0 01-.98 0v-1.34a2.262 2.262 0 010-4.418v-6.07a.49.49 0 01.98 0v6.07A2.262 2.262 0 0113.4 16.24m-.982 0a1.284 1.284 0 10-2.567.002 1.284 1.284 0 002.567-.002" mask="url(#b)"/></g></svg>