<svg xmlns="http://www.w3.org/2000/svg" width="29" height="27"><path fill="#5F5F66" fill-rule="evenodd" d="M14.158 21.325c.1 0 .2.025.29.07l7.245 3.81-1.383-8.07a.616.616 0 01.178-.55l5.86-5.718-8.098-1.175a.633.633 0 01-.472-.342l-3.62-7.34-3.62 7.34a.633.633 0 01-.473.343l-8.097 1.175 5.86 5.717a.616.616 0 01.177.55l-1.382 8.07 7.245-3.81c.09-.045.19-.07.29-.07m8.365 5.648a.64.64 0 01-.293-.073l-8.072-4.245L6.085 26.9a.624.624 0 01-.907-.657l1.54-8.996-6.53-6.37a.615.615 0 01-.155-.64.618.618 0 01.502-.422L9.56 8.502l4.035-8.18c.215-.43.91-.43 1.125 0l4.035 8.18 9.025 1.313c.235.033.43.197.503.423a.615.615 0 01-.155.64l-6.53 6.37 1.54 8.994a.624.624 0 01-.615.73"/></svg>