<svg xmlns="http://www.w3.org/2000/svg" width="29" height="33"><path fill="#5F5F66" fill-rule="evenodd" d="M28.41 18.203c-.078-8.667-7.269-13.839-14.19-13.839C7.23 4.364 0 9.635 0 18.455a1.28 1.28 0 001.038 1.257c.081.018.162.027.246.027.531 0 .996-.321 1.194-.813.375-.942 1.983-1.911 3.183-1.911 1.437 0 2.628.705 3.111 1.833.204.474.666.777 1.182.777h.033c.531-.012.99-.348 1.173-.846.309-.855 1.278-1.512 2.427-1.701v8.991c0 4.092-.486 5.154-2.358 5.154-1.983 0-2.058-1.788-2.061-1.989a.59.59 0 10-1.179 0c0 .033.039 3.165 3.24 3.165 3.537 0 3.537-3.51 3.537-6.33v-9.024c1.236.147 2.301.831 2.631 1.734.183.498.642.834 1.164.846a1.273 1.273 0 001.221-.777c.486-1.128 1.677-1.833 3.114-1.833 1.11 0 2.655 1.074 3.093 1.914.216.423.651.687 1.152.696a1.287 1.287 0 001.269-1.422m-1.263.246c-.042-.003-.093-.024-.114-.06-.609-1.176-2.55-2.55-4.137-2.55-1.914 0-3.522.975-4.194 2.544-.018.036-.066.069-.102.066a.117.117 0 01-.096-.069c-.543-1.497-2.28-2.541-4.224-2.541-1.944 0-3.684 1.044-4.227 2.538a.115.115 0 01-.096.072h-.009a.122.122 0 01-.093-.063c-.672-1.572-2.277-2.547-4.194-2.547-1.686 0-3.726 1.266-4.278 2.655a.113.113 0 01-.099.066l-.021-.006a.1.1 0 01-.084-.099c0-8.085 6.63-12.918 13.041-12.918 6.354 0 12.96 4.752 13.011 12.708 0 .024.003.072.009.099 0 .054-.048.105-.093.105M5.13 4.322l1.509-2.466a.596.596 0 01.81-.198.592.592 0 01.195.813L6.135 4.937a.587.587 0 01-.501.279.606.606 0 01-.309-.084.593.593 0 01-.195-.81m5.409-.768a.556.556 0 00.309.087c.198 0 .39-.099.501-.279L12.858.896a.583.583 0 00-.195-.807.587.587 0 00-.81.192l-1.509 2.466a.588.588 0 00.195.807m5.022-.807L17.07.281a.588.588 0 011.005.615l-1.509 2.466a.591.591 0 01-.81.192.583.583 0 01-.195-.807m5.409 2.385a.596.596 0 00.81-.195l1.509-2.466a.597.597 0 00-.195-.813.596.596 0 00-.81.198l-1.509 2.466a.587.587 0 00.195.81"/></svg>