<svg xmlns="http://www.w3.org/2000/svg" xmlns:xlink="http://www.w3.org/1999/xlink" width="24" height="17"><defs><path id="a" d="M0 17h24V0H0z"/></defs><g fill="none" fill-rule="evenodd"><path fill="#5D5D66" d="M1 12h22V9.5c0-.827-.673-1.5-1.5-1.5h-19C1.673 8 1 8.673 1 9.5V12zm22.5 1H.5a.5.5 0 01-.5-.5v-3C0 8.121 1.122 7 2.5 7h19C22.878 7 24 8.121 24 9.5v3a.5.5 0 01-.5.5z"/><mask id="b" fill="#fff"><use xlink:href="#a"/></mask><path fill="#5D5D66" d="M1 14h22v-1H1v1zm22.5 1H.5a.5.5 0 01-.5-.5v-2a.5.5 0 01.5-.5h23a.5.5 0 01.5.5v2a.5.5 0 01-.5.5z" mask="url(#b)"/><path fill="#5D5D66" d="M.5 17a.5.5 0 01-.5-.5v-2a.5.5 0 011 0v2a.5.5 0 01-.5.5m23 0a.5.5 0 01-.5-.5v-2a.5.5 0 011 0v2a.5.5 0 01-.5.5M3 7h18V2.5c0-.827-.673-1.5-1.5-1.5h-15C3.673 1 3 1.673 3 2.5V7zm18.5 1h-19a.5.5 0 01-.5-.5v-5C2 1.121 3.122 0 4.5 0h15C20.878 0 22 1.121 22 2.5v5a.5.5 0 01-.5.5z" mask="url(#b)"/><path fill="#5D5D66" d="M6.28 4a.5.5 0 00-.484.379l-.5 2A.497.497 0 005.78 7H9.5a.5.5 0 00.5-.5v-2a.5.5 0 00-.5-.5H6.28zM9.5 8H5.78c-.464 0-.895-.21-1.181-.577a1.485 1.485 0 01-.273-1.286l.5-2A1.499 1.499 0 016.28 3H9.5c.827 0 1.5.673 1.5 1.5v2c0 .827-.673 1.5-1.5 1.5zm5-4a.5.5 0 00-.5.5v2a.5.5 0 00.5.5h3.719c.156 0 .299-.07.394-.192a.498.498 0 00.092-.429l-.5-2A.502.502 0 0017.719 4H14.5zm3.719 4H14.5c-.827 0-1.5-.673-1.5-1.5v-2c0-.827.673-1.5 1.5-1.5h3.219c.69 0 1.288.468 1.455 1.137l.5 2c.113.451.014.92-.273 1.286A1.487 1.487 0 0118.219 8z" mask="url(#b)"/></g></svg>