<svg xmlns="http://www.w3.org/2000/svg" xmlns:xlink="http://www.w3.org/1999/xlink" width="20" height="20"><defs><path id="a" d="M0 0h20v20H0z"/></defs><g fill="none" fill-rule="evenodd"><circle cx="10" cy="10" r="9" fill="#FFF"/><mask id="b" fill="#fff"><use xlink:href="#a"/></mask><path fill="#0097DB" d="M16.484 8.477l-7.07 7.07a.815.815 0 01-.599.247.8.8 0 01-.586-.247l-4.713-4.714a.795.795 0 01-.235-.586.81.81 0 01.235-.599L4.7 8.477a.801.801 0 01.586-.248c.226 0 .422.083.587.248l2.942 2.942 5.313-5.3a.8.8 0 01.586-.247.8.8 0 01.586.248l1.184 1.172a.81.81 0 01.235.599c0 .234-.078.43-.235.586M18.66 4.98a9.958 9.958 0 00-3.64-3.639C13.489.447 11.816 0 10 0 8.186 0 6.513.447 4.98 1.341a9.955 9.955 0 00-3.639 3.64C.447 6.512 0 8.185 0 10s.447 3.487 1.341 5.02a9.958 9.958 0 003.64 3.639C6.513 19.553 8.186 20 10 20c1.813 0 3.487-.447 5.019-1.341a9.955 9.955 0 003.639-3.64C19.553 13.488 20 11.815 20 10s-.447-3.488-1.34-5.02" mask="url(#b)"/></g></svg>