<svg xmlns="http://www.w3.org/2000/svg" xmlns:xlink="http://www.w3.org/1999/xlink" width="88" height="88"><defs><path id="a" d="M44 0c24.3 0 44 19.7 44 44S68.3 88 44 88 0 68.3 0 44 19.7 0 44 0z"/></defs><g fill="none" fill-rule="evenodd"><mask id="b" fill="#fff"><use xlink:href="#a"/></mask><g fill="#FFF" mask="url(#b)"><path d="M0 0h88v88H0z"/></g><path stroke="#5F5F66" stroke-linecap="round" stroke-linejoin="round" d="M35.5 54.5a1 1 0 11-2 0 1 1 0 112 0zm-1-1v-13"/><path stroke="#5F5F66" stroke-linecap="round" stroke-linejoin="round" d="M37.5 51.88V32.5a3 3 0 10-6 0v19.38c-.615.703-1 1.612-1 2.62a4 4 0 008 0 3.963 3.963 0 00-1-2.62zm12-.38a1 1 0 110 2 1 1 0 010-2zm3.5-9a2.5 2.5 0 110 5 2.5 2.5 0 010-5zm-5.5 1c0 5.433-2.714 10.226-6.854 13.118 1.514.561 3.145.882 4.854.882 7.732 0 14-6.268 14-14s-6.268-14-14-14c-1.709 0-3.34.321-4.854.882 4.14 2.892 6.854 7.685 6.854 13.118z"/></g></svg>