<svg xmlns="http://www.w3.org/2000/svg" width="20" height="18"><path fill="#5F5F66" fill-rule="evenodd" d="M19.338 12.532c-.21-.225-1.611-1.724-2.011-2.114A1.503 1.503 0 0016.285 10h-1.757l3.064 2.994h-3.544a.274.274 0 00-.24.133L12.992 15H7.008l-.816-1.873a.276.276 0 00-.24-.133H2.408L5.47 10H3.715c-.397 0-.776.16-1.042.418-.4.391-1.801 1.89-2.011 2.114-.49.521-.758.936-.63 1.45l.56 3.072c.129.515.692.937 1.253.937h16.312c.56 0 1.124-.422 1.252-.937l.56-3.073c.127-.513-.141-.928-.631-1.449zM15 6h-3V0H8v6H5l5 5 5-5z"/></svg>