<svg xmlns="http://www.w3.org/2000/svg" width="24" height="18"><g fill="#5D5D66" fill-rule="evenodd"><path d="M19.5 18v-1h3.462a3.279 3.279 0 00-2.449-2.688l-3.047-.761a.498.498 0 01-.364-.364l-.316-1.263a.5.5 0 01.416-.616c1.174-.164 2.02-.435 2.527-.635-.498-.722-1.164-2.209-1.164-4.999 0-2.5-.491-3.935-1.347-3.935h-.37a.5.5 0 01-.354-.146c-.439-.439-.615-.578-1.401-.59l.001-.015a.465.465 0 01-.398-.191.505.505 0 01-.044-.51c.086-.176.234-.292.456-.284.969.015 1.408.231 1.943.736h.167c1.557 0 2.347 1.66 2.347 4.935 0 3.696 1.272 4.768 1.286 4.779a.505.505 0 01-.053.825c-.044.026-1.023.596-2.909.933l.11.442 2.756.689A4.276 4.276 0 0124 17.498a.5.5 0 01-.5.5l-4 .002z"/><path d="M1.038 16.998L16.962 17a3.28 3.28 0 00-2.449-2.688l-3.047-.761a.501.501 0 01-.365-.365l-.346-1.388a.499.499 0 01.151-.493 4.178 4.178 0 001.342-2.713.499.499 0 01.498-.461c.156 0 .26-.09.273-.209l.185-1.479a.23.23 0 00-.057-.186.235.235 0 00-.177-.081.508.508 0 01-.359-.157.504.504 0 01-.135-.368l.09-1.849a.5.5 0 01.145-.329l.37-.371c.21-.221.374-.55-.064-1.219-.384-.586-1.08-.883-2.073-.883-.736 0-1.596.077-2.392.645a.494.494 0 01-.286.094c-2.832.028-2.832 1.17-2.832 2.087 0 .355.124 1.409.171 1.785a.502.502 0 01-.496.563c-.17 0-.229.051-.256.081a.237.237 0 00-.057.187l.184 1.48a.24.24 0 00.238.209h.12a.5.5 0 01.498.461c.078.985.557 1.98 1.281 2.66a.497.497 0 01.144.485l-.363 1.449a.5.5 0 01-.364.365l-3.047.761a3.278 3.278 0 00-2.449 2.686zM.5 18a.5.5 0 01-.5-.5 4.278 4.278 0 013.245-4.158l2.756-.689.221-.884a5.267 5.267 0 01-1.33-2.682 1.242 1.242 0 01-.904-1.042l-.184-1.479a1.232 1.232 0 01.753-1.297c-.053-.459-.123-1.125-.123-1.443 0-1.397.421-3.003 3.667-3.084C9.228 0 10.423 0 10.944 0c1.351 0 2.33.449 2.908 1.335.77 1.173.396 1.987-.053 2.464l-.243.244-.06 1.251a1.232 1.232 0 01.701 1.272l-.185 1.479c-.059.475-.384.86-.815 1.015a5.247 5.247 0 01-1.4 2.777l.202.816 2.756.689A4.276 4.276 0 0118 17.498a.5.5 0 01-.5.5L.5 18z"/></g></svg>