<svg width="21" height="23" xmlns="http://www.w3.org/2000/svg" xmlns:xlink="http://www.w3.org/1999/xlink"><defs><path id="a" d="M.276 0H9v9H.276z"/></defs><g fill="none" fill-rule="evenodd"><path d="M1.54 5l6.96 8.699L15.46 5H1.54zM8.5 15a.5.5 0 01-.39-.187l-8-10A.5.5 0 01.5 4h16a.499.499 0 01.391.813l-8 10a.5.5 0 01-.39.187z" fill="#FFF"/><g transform="translate(12)"><mask id="b" fill="#fff"><use xlink:href="#a"/></mask><path d="M4.5 0C2.547 0 .897 1.258.276 3h6.305a.499.499 0 01.391.813L3.025 8.745C3.496 8.913 3.992 9 4.5 9 6.981 9 9 6.981 9 4.5S6.981 0 4.5 0" fill="#FFF" mask="url(#b)"/></g><path d="M8.5 23a.5.5 0 01-.5-.5v-8a.5.5 0 011 0v8a.5.5 0 01-.5.5" fill="#FFF"/><path d="M13 23H4.5a.5.5 0 010-1H13a.5.5 0 010 1m1.66-17H1.06l.8 1 6.25 7.813A.496.496 0 008.5 15a.498.498 0 00.39-.187L15.14 7l.8-1h-1.28z" fill="#FFF"/></g></svg>