<svg xmlns="http://www.w3.org/2000/svg" xmlns:xlink="http://www.w3.org/1999/xlink" width="20" height="20"><defs><path id="a" d="M10 0c5.523 0 10 4.477 10 10s-4.477 10-10 10S0 15.523 0 10 4.477 0 10 0z"/></defs><g fill="none" fill-rule="evenodd"><mask id="b" fill="#fff"><use xlink:href="#a"/></mask><g fill="#ECECED" mask="url(#b)"><path d="M0 0h20v20H0z"/></g><path fill="#636363" d="M8.758 15.884c-.64 0-1.107-.389-.66-2.094l.733-3.025c.127-.484.148-.678 0-.678-.191 0-1.022.334-1.512.664L7 10.228c1.555-1.299 3.343-2.061 4.108-2.061.64 0 .746.756.427 1.92l-.84 3.18c-.149.562-.085.756.064.756.192 0 .82-.232 1.437-.719l.363.486c-1.513 1.512-3.162 2.094-3.801 2.094M11.156 4c.936 0 1.211.543 1.211 1.164 0 .775-.62 1.492-1.679 1.492-.886 0-1.308-.445-1.282-1.182 0-.621.519-1.474 1.75-1.474"/></g></svg>