<svg xmlns="http://www.w3.org/2000/svg" xmlns:xlink="http://www.w3.org/1999/xlink" width="16" height="20"><defs><path id="a" d="M0 0h15.559v20H0z"/></defs><g fill="none" fill-rule="evenodd"><mask id="b" fill="#fff"><use xlink:href="#a"/></mask><path fill="#FFF" d="M6.396 13.227C5.87 15.982 5.23 18.622 3.328 20c-.586-4.162.861-7.287 1.534-10.605C3.715 7.465 5 3.583 7.417 4.54c2.975 1.176-2.576 7.172 1.15 7.922 3.891.782 5.478-6.75 3.065-9.198C8.148-.274 1.487 3.181 2.307 8.246c.2 1.237 1.478 1.612.511 3.322-2.23-.494-2.897-2.255-2.81-4.601.137-3.84 3.448-6.527 6.77-6.9 4.201-.47 8.143 1.543 8.69 5.494.612 4.461-1.897 9.293-6.39 8.945-1.218-.094-1.728-.699-2.682-1.279" mask="url(#b)"/></g></svg>