<svg xmlns="http://www.w3.org/2000/svg" xmlns:xlink="http://www.w3.org/1999/xlink" width="222" height="48"><defs><path id="a" d="M215.31 21.32h6.592v6.65h-6.592z"/></defs><g fill="none" fill-rule="evenodd"><path fill="#5D5D66" d="M64.107 31.403c4.002-14.54 10.608-21.754 12.884-21.391l.289.104c.284.179.44.54.468 1.07l.001.165c0 3.508-5.001 13.851-13.25 20.313l-.594.467.202-.728zM50.379 32.57c-.302-6.13 3.532-18.058 11.25-23.6.786-.564 1.398-.672 1.822-.324.315.274.467.789.464 1.538-.038 4.132-5.05 15.841-13.13 22.564l-.38.32-.026-.498zm-7.617-9.297c.579.025.985.314 1.175.831.68 1.873-1.719 6.682-5.384 9.42a26.91 26.91 0 01-2.052 1.374l-.333.203-.043-.388a6.573 6.573 0 01-.038-.719 8.5 8.5 0 01.065-1.033c.528-4.327 3.827-9.801 6.61-9.688zm19.72-16.868c-6.854 4.05-12.926 15.961-14.301 24.547-.222 1.38-.32 2.642-.291 3.749l.002.149-.64.374c-2.19 1.234-4.425 1.968-6.643 2.188a13.98 13.98 0 01-1.771.062l-.22-.016c-.525-.05-.938-.19-1.28-.42l-.29-.2.282-.21c.695-.522 1.054-.845 1.15-.965l.02-.023.023-.02c4.742-3.619 8.124-9.463 8.194-12.444.018-.791-.182-1.367-.592-1.712-.308-.26-.74-.396-1.285-.402-1.767-.025-4.064 1.33-6.303 3.718-2.796 2.986-5.501 7.74-5.501 11.313 0 .158.004.314.015.469l.012.174-.274.126c-.641.294-1.356.573-2.118.83l-.999.3c.071.282.227.8.513 1.227.28.432.606.652.975.652.424 0 1.353-.336 2.488-.895l.175-.085.125.15c.825.996 2.22 1.523 4.145 1.567 3.222.06 6.72-1.162 9.845-3.444l.3-.214.087.36c.505 2.091 1.532 3.037 3.434 3.166l.26.02c2.183.08 6.985-2.922 8.953-4.471l.364-.289.034.467c.174 2.346.779 4.12 1.586 4.63.105.068.318.156.74.177.895.046 2.064-.221 2.735-.522a10.006 10.006 0 01-1.102-1.093 2.5 2.5 0 00-.151-.215l-.03-.042-.104-.16-.05-.096v.002l-.071-.14-.046-.11-.05-.132c-.008-.017-.037-.112-.037-.112a2.442 2.442 0 01-.039-.121l-.003-.009-.06-.26c.005.027-.017-.123-.017-.123.004.034-.02-.123-.02-.123l-.012-.095c-.005-.032-.012-.192-.012-.192 0 .024-.005-.041-.005-.041l-.002-.046-.002-.171.004-.135.007-.14.01-.134.011-.128.007-.038a42.482 42.482 0 00.043-.301l.014-.082c.003-.02.05-.246.05-.246a.428.428 0 00.012-.047 51.2 51.2 0 01.168-.626l.102-.307c.014-.035.035-.079.035-.079-.014.026.057-.162.057-.162l.021-.057c.013-.033.032-.074.032-.074a12.131 12.131 0 01.147-.344c-.01.02.073-.172.073-.172l.023-.048.04-.072c-.003.003.061-.132.061-.132l.046-.094.125-.245.037-.072.06-.104c-.012.016.099-.18.099-.18l.02-.035.046-.079c.005-.006.147-.25.147-.25l.032-.062.041-.058.126-.199c-.016.03.048-.069.048-.069v-.002l-.025.036.192-.29a16.767 16.767 0 011.687-2.105c.016-.021 1.901-1.722 1.901-1.722.018-.017.8-.558.8-.558.399-.252.793-.47 1.173-.649l.037-.018.762-.303a.64.64 0 01.07-.02.511.511 0 01.06-.021l.263-.077c.037-.011.417-.092.417-.092l.04-.01.043-.007.278-.039.048-.007c.027-.004.73-.018.73-.018l.095.01c-.01-.003.27.032.27.032l.08.013a43.052 43.052 0 00.393.093l.251.083.085.034c.01.006.324.149.324.149.94.506 1.38 1.007 1.348 1.541-.067 1.075-2.04 1.832-4.541 2.792-2.765 1.063-5.9 2.27-6.366 3.968-.165.601.019 1.23.561 1.925 3.688 4.731 20.66 2.921 25.017 1.292a.806.806 0 00.518-.52 1.36 1.36 0 00.067-.46c0-.917-.61-2.2-1.061-2.967-1.179.733-7.216 4.24-15.099 4.398-5.437.108-7.108-1.197-7.55-2.313-.383-.966.073-1.978.696-2.552 1.057-.996 2.224-1.244 3.994-1.62 1.272-.27 2.858-.606 4.971-1.339a18.663 18.663 0 00.442-.164l.232-.092.092-.04.066-.03.133-.06c.014-.009.092-.04.092-.04.022-.008.128-.065.128-.065l.066-.033a1.51 1.51 0 01.065-.037l.12-.06.075-.042.069-.041.038-.023.14-.088.083-.053.186-.123s.036-.027.038-.027c0-.004.177-.144.177-.144l.035-.025.136-.123c.024-.02.047-.042.047-.042.017-.018.116-.112.116-.112a1.369 1.369 0 00.087-.102s.07-.077.09-.102l.114-.16.058-.092.027-.042.06-.115.032-.063.104-.291.009-.046.022-.102a.711.711 0 00.016-.133l.005-.038.002-.025c.003-.023.003-.101.003-.101l-.003-.07-.007-.104a.642.642 0 01-.004-.047l-.016-.096a26.006 26.006 0 00-.014-.065l-.018-.065-.01-.041a6.583 6.583 0 01-.047-.148 184.623 184.623 0 01-.07-.162c0-.003-.038-.081-.038-.081l-.03-.058a2.421 2.421 0 01-.039-.062l-.023-.039-.094-.146c-.005-.004-.03-.04-.03-.04l-.037-.05-.024-.033a1.266 1.266 0 01-.048-.062l-.085-.104-.517-.476a2.275 2.275 0 00-.09-.072l-.07-.052c-.025-.019-.16-.112-.16-.112a.26.26 0 01-.035-.025l-.153-.094-.195-.119c-1.678-.945-3.956-1.216-6.094-.727l-.803.184.57-.6c3.031-3.204 5.13-6.212 6.602-9.468.912-2.017 1.373-3.73 1.373-5.09 0-2.676-1.751-3.066-2.505-3.109a3.839 3.839 0 00-2.002.463c-4.148 2.305-13.367 12.678-15.86 26.217l-.02.102-.086.057c-.946.663-5.805 3.946-8.433 3.462a2.763 2.763 0 01-.92-.326c-.578-.354-.938-.938-1.209-1.961l-.04-.149.116-.103c2.88-2.59 5.957-5.982 9.141-10.08 7.392-9.482 8.687-15.62 7.552-17.993a5.475 5.475 0 01-.093-.184c-.3-.522-.738-.865-1.303-1.014-.982-.262-2.278.06-3.742.928zM36.038.215c-.59.185-1.909.915-2.395 1.19C34.53 3.29 35.1 6.012 35.1 8.376c0 .114 0 .225-.003.337-.161 6.647-1.43 12.885-3.771 18.545-2.158 5.177-4.178 7.992-6.174 8.605-.458.138-.867.071-1.216-.199-1.06-.819-1.519-3.601-1.403-8.505l.056-1.68.138-2.828c.067-2.81.234-6.73.935-12.096.081-.575.14-1.295.15-1.66.003-.133-.04-.225-.141-.295-.541-.369-2.21.02-2.634.172-3.191 7.26-7.389 17.345-12.48 29.982l-.476-.09c-.253-9.912-.845-17.672-1.765-23.058-.73-4.35-1.224-5.987-1.508-6.593-.374-.763-.945-.997-1.793-.737-.628.192-1.65.69-3.016 1.462.448.98 1.307 3.37 1.347 3.481.72 2.387 1.319 5.387 1.832 9.186.648 4.876.975 10.083.975 15.514 0 1.095-.014 2.198-.04 3.31-.06 2.461-.28 4.559-.644 6.288 1.959-.894 3.26-1.667 3.814-2.287.593-.66 1.44-2.351 2.52-5.023l.759-2.006c1.964-5.014 4.816-11.549 8.48-19.423l.588-1.323-.116 1.45c-.328 4.134-.527 7.431-.58 9.53-.122 5.069.132 8.564.755 10.395.584 1.744 1.61 2.362 3.135 1.888 1.446-.44 3.197-1.995 5.203-4.622 2.034-2.671 3.901-5.877 5.548-9.527 3.61-7.965 5.52-15.388 5.68-22.063l-.012-1.284c-.047-1.293-.268-2.198-.657-2.685-.458-.584-1.316-.694-2.549-.322zm65.915 31.996c3.829 0 5.35-1.118 5.35-3.04 0-1.942-1.595-3.073-5.35-3.073h-1.714v6.113h1.714zm8.656 5.074h-3.48l-3.459-3.41c-.523.046-1.069.079-1.62.079h-1.811v3.33h-3.013V24.327h4.825c5.348 0 8.31 1.875 8.31 4.846 0 2.003-1.32 3.369-3.857 4.11l4.105 4.003zm3.858-12.96h12.258v1.773h-9.252v5.032h8.184v1.732h-8.184v2.65h9.652v1.772h-12.658zm15.119 10.445l2.464-.91c.92 1.006 2.088 1.803 4.427 1.803 1.968 0 3.355-.703 3.355-1.766 0-1.126-1.144-1.618-3.232-2.245l-1.269-.386c-2.812-.843-4.525-1.791-4.525-3.792 0-1.928 2.213-3.3 5.422-3.3 2.562 0 4.28.65 5.448 2.038l-2.364.968c-.724-.855-1.591-1.256-3.084-1.256-1.543 0-2.49.632-2.49 1.509 0 .975.824 1.417 2.762 1.98l1.27.386c3.283.968 5.051 2 5.051 4.076 0 2.272-2.638 3.584-6.268 3.584-3.683 0-5.898-1.217-6.967-2.688m32.857-3.958c0-2.771-2.835-4.843-6.865-4.843-4.031 0-6.886 2.072-6.886 4.843 0 2.759 2.855 4.839 6.886 4.839 4.03 0 6.865-2.08 6.865-4.84m-16.814 0c0-3.871 4.428-6.66 9.949-6.66 5.493 0 9.925 2.789 9.925 6.66 0 3.868-4.432 6.647-9.925 6.647-5.52 0-9.95-2.779-9.95-6.646m28.21 1.398c3.828 0 5.348-1.118 5.348-3.04 0-1.942-1.568-3.073-5.347-3.073h-1.692v6.113h1.692zm8.654 5.074h-3.457l-3.461-3.41c-.543.046-1.09.079-1.638.079h-1.789v3.33h-3.01V24.327h4.799c5.347 0 8.332 1.875 8.332 4.846 0 2.003-1.34 3.369-3.855 4.11l4.08 4.003zm7.886-11.187h-5.722v-1.773h14.425v1.773h-5.719v11.187h-2.984zm10.147 8.672l2.46-.91c.9 1.006 2.07 1.803 4.432 1.803 1.938 0 3.332-.703 3.332-1.766 0-1.126-1.12-1.618-3.235-2.245l-1.268-.386c-2.812-.843-4.503-1.791-4.503-3.792 0-1.928 2.216-3.3 5.4-3.3 2.561 0 4.297.65 5.44 2.038l-2.335.968c-.743-.855-1.59-1.256-3.105-1.256-1.52 0-2.486.632-2.486 1.509 0 .975.813 1.417 2.786 1.98l1.244.386c3.278.968 5.043 2 5.043 4.076 0 2.272-2.635 3.584-6.265 3.584-3.66 0-5.872-1.217-6.94-2.688"/><mask id="b" fill="#fff"><use xlink:href="#a"/></mask><path fill="#5D5D66" d="M219.224 23.372c-.162-.086-.42-.136-.772-.136h-.544v1.323h.578c.27 0 .468-.022.606-.079.248-.098.373-.291.373-.574 0-.261-.08-.442-.241-.534zm-.687-.57c.447 0 .777.041.987.128.375.16.562.469.562.923 0 .329-.12.571-.352.726-.127.075-.303.14-.525.177.286.042.491.163.622.36.128.192.196.378.196.559v.268c0 .084 0 .174.011.273a.634.634 0 00.03.189l.018.045h-.591l-.012-.038c0-.01-.008-.023-.008-.038l-.014-.12v-.288c0-.42-.117-.699-.342-.831-.135-.08-.37-.118-.713-.118h-.498v1.433h-.641v-3.648h1.27zm-1.941-.19a2.776 2.776 0 00-.826 2.027 2.8 2.8 0 00.822 2.034 2.702 2.702 0 002.006.847c.787 0 1.459-.284 2.006-.847.555-.56.828-1.236.828-2.034 0-.794-.273-1.467-.828-2.026a2.716 2.716 0 00-2.006-.84c-.783 0-1.451.28-2.002.84zm4.338 4.382a3.169 3.169 0 01-2.336.976 3.159 3.159 0 01-2.333-.976c-.637-.647-.955-1.436-.955-2.358 0-.92.326-1.699.967-2.349a3.148 3.148 0 012.32-.967 3.18 3.18 0 012.337.967 3.22 3.22 0 01.968 2.349c0 .922-.327 1.704-.968 2.358z" mask="url(#b)"/></g></svg>