<svg width="223" height="48" xmlns="http://www.w3.org/2000/svg" xmlns:xlink="http://www.w3.org/1999/xlink"><defs><path id="a" d="M215.445 21.32h6.596v6.65h-6.596z"/></defs><g fill="none" fill-rule="evenodd"><path d="M64.147 31.403c4.005-14.54 10.615-21.754 12.892-21.391.003 0 .29.104.29.104.284.179.44.54.468 1.07l.001.165c0 3.508-5.004 13.851-13.259 20.313l-.594.467.202-.728zM50.411 32.57c-.303-6.13 3.534-18.058 11.257-23.6.786-.564 1.4-.672 1.823-.324.315.274.468.789.464 1.538-.037 4.132-5.053 15.841-13.138 22.564l-.38.32-.026-.498zm-7.622-9.297c.579.025.985.314 1.175.831.68 1.873-1.72 6.682-5.387 9.42-.694.523-1.428.988-2.053 1.374l-.333.203-.044-.388a6.57 6.57 0 01-.037-.719 8.5 8.5 0 01.065-1.033c.528-4.327 3.829-9.801 6.614-9.688zM62.52 6.405c-6.858 4.05-12.933 15.961-14.31 24.547-.222 1.38-.32 2.642-.291 3.749l.002.149-.641.374c-2.19 1.234-4.427 1.968-6.647 2.188-.587.058-1.184.079-1.772.062l-.22-.016c-.525-.05-.939-.19-1.28-.42l-.29-.2.281-.21c.696-.522 1.055-.845 1.15-.965l.02-.023.025-.02c4.744-3.619 8.128-9.463 8.198-12.444.019-.791-.181-1.367-.592-1.712-.309-.26-.74-.396-1.286-.402-1.768-.025-4.066 1.33-6.307 3.718-2.798 2.986-5.504 7.74-5.504 11.313 0 .158.004.314.015.469l.012.174-.274.126c-.642.294-1.357.573-2.12.83l-1 .3c.072.282.228.8.514 1.227.28.432.607.652.975.652.424 0 1.355-.336 2.49-.895l.176-.085.124.15c.826.996 2.222 1.523 4.147 1.567 3.225.06 6.725-1.162 9.852-3.444l.3-.214.087.36c.506 2.091 1.533 3.037 3.436 3.166l.262.02c2.183.08 6.989-2.922 8.957-4.471l.364-.289.034.467c.175 2.346.78 4.12 1.588 4.63.105.068.318.156.74.177.895.046 2.065-.221 2.737-.522a10.009 10.009 0 01-1.103-1.093 2.5 2.5 0 00-.151-.215l-.03-.042-.104-.16-.05-.096v.002l-.071-.14-.046-.11-.051-.132c-.007-.017-.036-.112-.036-.112a3.062 3.062 0 01-.039-.121l-.003-.009-.06-.26a7.23 7.23 0 00-.017-.123c.004.034-.021-.123-.021-.123l-.012-.095a4.573 4.573 0 01-.011-.192c0 .024-.005-.041-.005-.041l-.002-.046-.003-.171.005-.135.007-.14.01-.134.01-.128.008-.038c.001-.03.018-.132.018-.132l.025-.17.014-.08c.002-.02.05-.247.05-.247-.002.016.012-.047.012-.047.002-.018.167-.626.167-.626l.103-.307c.014-.035.035-.079.035-.079-.014.026.057-.162.057-.162l.021-.057a13.783 13.783 0 01.135-.32l.043-.098.075-.172.022-.048.04-.072c-.003.003.061-.132.061-.132l.046-.094.126-.245.037-.072.06-.104c-.012.016.098-.18.098-.18l.021-.035.046-.079.146-.25.033-.062.04-.058.127-.199a.673.673 0 00.048-.069v-.002l-.025.036.192-.29a16.77 16.77 0 011.688-2.105c.016-.021 1.902-1.722 1.902-1.722.019-.017.8-.558.8-.558.4-.252.794-.47 1.175-.649l.037-.018.761-.303a.565.565 0 01.07-.02.592.592 0 01.06-.021l.264-.077c.037-.011.417-.092.417-.092l.04-.01.043-.007.278-.039.048-.007c.027-.004.732-.018.732-.018l.094.01c-.01-.003.27.032.27.032l.08.013a43.103 43.103 0 00.393.093l.252.083.085.034c.01.006.324.149.324.149.94.506 1.38 1.007 1.348 1.541-.066 1.075-2.041 1.832-4.543 2.792-2.767 1.063-5.904 2.27-6.37 3.968-.165.601.019 1.23.562 1.925 3.69 4.731 20.672 2.921 25.032 1.292a.806.806 0 00.519-.52c.048-.137.066-.29.066-.46 0-.917-.61-2.2-1.061-2.967-1.18.733-7.221 4.24-15.108 4.398-5.441.108-7.113-1.197-7.556-2.313-.383-.966.074-1.978.697-2.552 1.058-.996 2.226-1.244 3.996-1.62 1.274-.27 2.86-.606 4.975-1.339.025-.007.34-.124.34-.124a574.322 574.322 0 01.426-.171c.019-.01.066-.03.066-.03l.133-.06c.014-.01.092-.042.092-.042.023-.007.128-.064.128-.064l.067-.033c-.007.002.065-.037.065-.037l.119-.06.075-.042a5.59 5.59 0 01.07-.041l.038-.023.14-.088.082-.053c.01-.005.186-.123.186-.123s.037-.027.04-.027c0-.004.176-.144.176-.144l.035-.025.137-.123.046-.042.117-.112c-.004.002.025-.03.025-.03l.062-.072.09-.102.114-.16.058-.092.027-.042.06-.115.032-.063c-.005.01.103-.291.103-.291l.01-.046.022-.102.007-.039.01-.094.004-.038.002-.025c.002-.023.002-.101.002-.101l-.002-.07-.007-.104c.002.032-.005-.047-.005-.047l-.016-.096a26.017 26.017 0 00-.013-.065l-.018-.065-.01-.041-.048-.148a.743.743 0 00-.018-.046l-.051-.116c0-.003-.039-.081-.039-.081l-.03-.058-.039-.062-.023-.039-.093-.146a.552.552 0 01-.03-.04.826.826 0 01-.037-.05l-.025-.033a1.266 1.266 0 01-.048-.062l-.085-.104-.517-.476a1.719 1.719 0 00-.091-.072l-.069-.052a14.942 14.942 0 00-.195-.137l-.153-.094-.196-.119c-1.678-.945-3.958-1.216-6.098-.727l-.802.184.57-.6c3.033-3.204 5.133-6.212 6.605-9.468.914-2.017 1.375-3.73 1.375-5.09 0-2.676-1.753-3.066-2.507-3.109a3.843 3.843 0 00-2.003.463c-4.15 2.305-13.375 12.678-15.871 26.217l-.021.102-.085.057c-.947.663-5.81 3.946-8.438 3.462a2.766 2.766 0 01-.922-.326c-.578-.354-.938-.938-1.209-1.961l-.04-.149.116-.103c2.883-2.59 5.961-5.982 9.147-10.08 7.397-9.482 8.692-15.62 7.557-17.993-.016-.024-.094-.184-.094-.184-.3-.522-.738-.865-1.303-1.014-.983-.262-2.28.06-3.745.928zM36.06.215c-.59.185-1.91.915-2.397 1.19.887 1.885 1.459 4.608 1.459 6.972 0 .114 0 .225-.003.337-.162 6.647-1.43 12.885-3.774 18.545-2.159 5.177-4.18 7.992-6.178 8.605-.458.138-.866.071-1.216-.199-1.06-.819-1.52-3.601-1.404-8.505l.056-1.68.138-2.828c.067-2.81.235-6.73.935-12.096.082-.575.141-1.295.151-1.66.003-.133-.04-.225-.141-.295-.542-.369-2.212.02-2.635.172-3.194 7.26-7.394 17.345-12.488 29.982l-.477-.09c-.253-9.912-.845-17.672-1.766-23.058-.731-4.35-1.225-5.987-1.509-6.593-.375-.763-.946-.997-1.794-.737-.629.192-1.651.69-3.018 1.462.448.98 1.308 3.37 1.348 3.481.72 2.387 1.32 5.387 1.833 9.186.648 4.876.975 10.083.975 15.514 0 1.095-.013 2.198-.04 3.31-.059 2.461-.28 4.559-.644 6.288 1.96-.894 3.262-1.667 3.817-2.287.593-.66 1.441-2.351 2.521-5.023l.76-2.006c1.965-5.014 4.818-11.549 8.485-19.423l.588-1.323-.116 1.45c-.328 4.134-.527 7.431-.58 9.53-.122 5.069.132 8.564.755 10.395.585 1.744 1.61 2.362 3.137 1.888 1.447-.44 3.2-1.995 5.206-4.622 2.036-2.671 3.905-5.877 5.552-9.527 3.612-7.965 5.524-15.388 5.684-22.063l-.013-1.284C39.222 1.93 39 1.025 38.612.538c-.46-.584-1.317-.694-2.551-.322zm65.957 31.996c3.831 0 5.353-1.118 5.353-3.04 0-1.942-1.596-3.073-5.353-3.073h-1.715v6.113h1.715zm8.661 5.074h-3.482l-3.46-3.41c-.524.046-1.07.079-1.621.079h-1.813v3.33h-3.015V24.327h4.828c5.352 0 8.315 1.875 8.315 4.846 0 2.003-1.32 3.369-3.86 4.11l4.108 4.003zm3.862-12.96h12.265v1.773h-9.258v5.032h8.189v1.732h-8.189v2.65h9.658v1.772H114.54zm15.127 10.445l2.466-.91c.92 1.006 2.089 1.803 4.43 1.803 1.969 0 3.357-.703 3.357-1.766 0-1.126-1.145-1.618-3.234-2.245l-1.27-.386c-2.814-.843-4.527-1.791-4.527-3.792 0-1.928 2.214-3.3 5.424-3.3 2.564 0 4.284.65 5.452 2.038l-2.366.968c-.724-.855-1.592-1.256-3.086-1.256-1.543 0-2.491.632-2.491 1.509 0 .975.825 1.417 2.764 1.98l1.27.386c3.286.968 5.055 2 5.055 4.076 0 2.272-2.64 3.584-6.273 3.584-3.685 0-5.9-1.217-6.97-2.688m32.877-3.958c0-2.771-2.837-4.843-6.87-4.843-4.033 0-6.89 2.072-6.89 4.843 0 2.759 2.857 4.839 6.89 4.839 4.033 0 6.87-2.08 6.87-4.84m-16.825 0c0-3.871 4.432-6.66 9.956-6.66 5.496 0 9.931 2.789 9.931 6.66 0 3.868-4.435 6.647-9.931 6.647-5.524 0-9.956-2.779-9.956-6.646m28.228 1.398c3.83 0 5.35-1.118 5.35-3.04 0-1.942-1.568-3.073-5.35-3.073h-1.693v6.113h1.693zm8.659 5.074h-3.46l-3.463-3.41a19.44 19.44 0 01-1.639.079h-1.79v3.33h-3.013V24.327h4.803c5.35 0 8.337 1.875 8.337 4.846 0 2.003-1.34 3.369-3.857 4.11l4.082 4.003zm7.89-11.187h-5.725v-1.773h14.434v1.773h-5.722v11.187h-2.987zm10.153 8.672l2.462-.91c.9 1.006 2.071 1.803 4.435 1.803 1.94 0 3.335-.703 3.335-1.766 0-1.126-1.122-1.618-3.238-2.245l-1.268-.386c-2.814-.843-4.506-1.791-4.506-3.792 0-1.928 2.218-3.3 5.403-3.3 2.563 0 4.3.65 5.444 2.038l-2.337.968c-.743-.855-1.592-1.256-3.107-1.256-1.52 0-2.488.632-2.488 1.509 0 .975.814 1.417 2.788 1.98l1.246.386c3.279.968 5.046 2 5.046 4.076 0 2.272-2.638 3.584-6.27 3.584-3.661 0-5.875-1.217-6.944-2.688" fill="#5D5D66"/><mask id="b" fill="#fff"><use xlink:href="#a"/></mask><path d="M219.362 23.372c-.162-.086-.42-.136-.773-.136h-.544v1.323h.578c.27 0 .468-.022.607-.079.248-.098.373-.291.373-.574 0-.261-.08-.442-.241-.534zm-.687-.57c.446 0 .777.041.987.128.375.16.562.469.562.923 0 .329-.12.571-.352.726-.127.075-.303.14-.525.177.286.042.491.163.622.36.128.192.196.378.196.559v.268c0 .084 0 .174.012.273a.634.634 0 00.03.189l.017.045h-.591l-.012-.038c0-.01-.008-.023-.008-.038l-.014-.12v-.288c0-.42-.117-.699-.343-.831-.135-.08-.37-.118-.713-.118h-.498v1.433h-.642v-3.648h1.272zm-1.943-.19a2.775 2.775 0 00-.826 2.027c0 .798.274 1.474.822 2.034a2.704 2.704 0 002.007.847c.788 0 1.46-.284 2.008-.847.555-.56.829-1.236.829-2.034a2.76 2.76 0 00-.83-2.026 2.718 2.718 0 00-2.007-.84 2.71 2.71 0 00-2.003.84zm4.34 4.382a3.172 3.172 0 01-2.337.976 3.16 3.16 0 01-2.334-.976c-.637-.647-.956-1.436-.956-2.358 0-.92.327-1.699.968-2.349a3.15 3.15 0 012.322-.967c.912 0 1.693.321 2.338.967.642.647.968 1.43.968 2.349 0 .922-.326 1.704-.968 2.358z" fill="#5D5D66" mask="url(#b)"/></g></svg>