<svg xmlns="http://www.w3.org/2000/svg" xmlns:xlink="http://www.w3.org/1999/xlink" width="24" height="24" viewBox="0 0 24 24">
  <defs>
    <polygon id="dining-a" points=".767 .42 11 .42 11 10 .767 10"/>
  </defs>
  <g fill="none" fill-rule="evenodd">
    <path fill="#FFF" d="M23.6778087 2.1853C23.6768 1.3713 23.4008.6853 22.8568.1453 22.6768-.0337 22.3908-.0487 22.1928.1093 22.0978.1853 20.4318 1.8373.9408 21.3563.3548 21.9433.3538 22.8973.9378 23.4813 1.2228 23.7663 1.5998 23.9223 1.9998 23.9223 2.3998 23.9223 2.7758 23.7663 3.0578 23.4833L9.4228 17.1173C11.8748 14.6653 12.9368 14.3253 13.5218 14.2833 14.6208 14.2043 15.5688 13.7943 16.2648 13.0993 19.4498 9.9133 23.6848 5.3163 23.6778087 2.1853M4.0235 8.966C4.0255 8.969 4.0275 8.973 4.0295 8.976 4.7105 9.645 5.6455 10.041 6.7345 10.12 7.3125 10.163 8.0445 10.54 8.9725 11.273 9.0645 11.345 9.1735 11.381 9.2835 11.381 9.4125 11.381 9.5405 11.332 9.6365 11.234L11.2345 9.636C11.4135 9.456 11.4295 9.172 11.2725 8.972 10.2265 7.648 10.1115 6.973 10.1155 6.581 10.1255 5.692 9.7525 4.803 9.0645 4.117L8.9355 4.008C8.9355 4.008 8.9335 4.007 8.9335 4.007L4.4335.194C4.2225.015 3.9065.042 3.7295.252 3.5505.463 3.5775.778 3.7875.957L7.8745 4.419 6.5005 5.793 2.3535 1.647C2.1585 1.451 1.8415 1.451 1.6465 1.647 1.4515 1.842 1.4515 2.158 1.6465 2.354L5.7935 6.5 4.3885 7.904.8645 4.157C.6745 3.956.3585 3.947.1575 4.136-.0435 4.325-.0525 4.642.1355 4.843L4.0135 8.959C4.0155 8.962 4.0205 8.963 4.0235 8.966"/>
    <g transform="translate(13 14)">
      <mask id="dining-b" fill="#fff">
        <use xlink:href="#dining-a"/>
      </mask>
      <path fill="#FFF" d="M10.5606,7.4395 L3.6876,0.5665 C3.5236,0.4015 3.2686,0.3725 3.0726,0.4945 C2.5196,0.8345 1.8826,1.0675 1.1816,1.1885 C0.9976,1.2195 0.8466,1.3515 0.7896,1.5295 C0.7336,1.7075 0.7816,1.9015 0.9136,2.0345 L8.4396,9.5605 C8.7226,9.8435 9.0996,10.0005 9.4996,10.0005 C9.9006,10.0005 10.2776,9.8435 10.5606,9.5605 C10.8436,9.2775 10.9996,8.9005 10.9996,8.5005 C10.9996,8.0995 10.8436,7.7225 10.5606,7.4395" mask="url(#dining-b)"/>
    </g>
  </g>
</svg>
