<?xml version="1.0" encoding="UTF-8"?>
<svg width="32px" height="37px" viewBox="0 0 32 37" version="1.1" xmlns="http://www.w3.org/2000/svg" xmlns:xlink="http://www.w3.org/1999/xlink">
    <!-- Generator: sketchtool 57 (101010) - https://sketch.com -->
    <title>E4E107A2-574C-4ED9-9989-A291D17D7351</title>
    <desc>Created with sketchtool.</desc>
    <defs>
        <polygon id="path-1" points="0.9952 0.9995 6 0.9995 6 2.9995 0.9952 2.9995"></polygon>
    </defs>
    <g id="Batch-1-Desktop" stroke="none" stroke-width="1" fill="none" fill-rule="evenodd">
        <g id="-Local-Area-Desktop" transform="translate(-473.000000, -3979.000000)">
            <g id="Desktop-/-Pattern-/-Explore-The-Area" transform="translate(0.000000, 3109.000000)">
                <g id="Bitmap">
                    <g transform="translate(405.000000, 426.000000)">
                        <g id="Desktop-/-Icon-/-Map-/-Outdoor-Activities" transform="translate(68.000000, 444.000000)">
                            <g>
                                <path d="M32,0 L32,32 L20.485,32 L16,36.4852814 L11.514,32 L0,32 L0,0 L32,0 Z" id="Combined-Shape" fill="#5D5D66"></path>
                                <g id="Group-46" transform="translate(4.000000, 5.000000)">
                                    <path d="M23.5,14 L0.5,14 C0.224,14 0,14.224 0,14.5 C0,14.776 0.224,15 0.5,15 L23.5,15 C23.776,15 24,14.776 24,14.5 C24,14.224 23.776,14 23.5,14" id="Fill-1" fill="#FFFFFF"></path>
                                    <path d="M11,16.5 C11,16.224 10.776,16 10.5,16 L6.5,16 C6.224,16 6,16.224 6,16.5 C6,16.776 6.224,17 6.5,17 L10.5,17 C10.776,17 11,16.776 11,16.5" id="Fill-3" fill="#FFFFFF"></path>
                                    <path d="M18.5,17 L14.5,17 C14.224,17 14,17.224 14,17.5 C14,17.776 14.224,18 14.5,18 L18.5,18 C18.776,18 19,17.776 19,17.5 C19,17.224 18.776,17 18.5,17" id="Fill-5" fill="#FFFFFF"></path>
                                    <path d="M13,19.5 C13,19.224 12.776,19 12.5,19 L9.5,19 C9.224,19 9,19.224 9,19.5 C9,19.776 9.224,20 9.5,20 L12.5,20 C12.776,20 13,19.776 13,19.5" id="Fill-7" fill="#FFFFFF"></path>
                                    <path d="M12.5195,17 L12.5095,17 C12.5075,17 12.5065,17.001 12.5045,17.001 C12.5025,17.001 12.5015,17 12.4995,17 C12.2235,17 11.9995,17.224 11.9995,17.5 C11.9995,17.776 12.2235,18 12.4995,18 C12.5035,18 12.5055,17.998 12.5095,17.998 C12.5135,17.998 12.5155,18 12.5195,18 C12.7955,18 13.0195,17.776 13.0195,17.5 C13.0195,17.224 12.7955,17 12.5195,17" id="Fill-9" fill="#FFFFFF"></path>
                                    <path d="M14.5195,19 L14.5095,19 C14.5075,19 14.5065,19.001 14.5045,19.001 C14.5025,19.001 14.5015,19 14.4995,19 C14.2235,19 13.9995,19.224 13.9995,19.5 C13.9995,19.776 14.2235,20 14.4995,20 C14.5035,20 14.5055,19.998 14.5095,19.998 C14.5135,19.998 14.5155,20 14.5195,20 C14.7955,20 15.0195,19.776 15.0195,19.5 C15.0195,19.224 14.7955,19 14.5195,19" id="Fill-11" fill="#FFFFFF"></path>
                                    <path d="M7.5195,19 L7.5095,19 C7.5075,19 7.5065,19.001 7.5045,19.001 C7.5025,19.001 7.5015,19 7.4995,19 C7.2235,19 6.9995,19.224 6.9995,19.5 C6.9995,19.776 7.2235,20 7.4995,20 C7.5035,20 7.5055,19.998 7.5095,19.998 C7.5135,19.998 7.5155,20 7.5195,20 C7.7955,20 8.0195,19.776 8.0195,19.5 C8.0195,19.224 7.7955,19 7.5195,19" id="Fill-13" fill="#FFFFFF"></path>
                                    <path d="M10.5195,21 L10.5095,21 C10.5075,21 10.5065,21.001 10.5045,21.001 C10.5025,21.001 10.5015,21 10.4995,21 C10.2235,21 9.9995,21.224 9.9995,21.5 C9.9995,21.776 10.2235,22 10.4995,22 C10.5035,22 10.5055,21.998 10.5095,21.998 C10.5135,21.998 10.5155,22 10.5195,22 C10.7955,22 11.0195,21.776 11.0195,21.5 C11.0195,21.224 10.7955,21 10.5195,21" id="Fill-15" fill="#FFFFFF"></path>
                                    <path d="M12.5195,21 L12.5095,21 C12.5075,21 12.5065,21.001 12.5045,21.001 C12.5025,21.001 12.5015,21 12.4995,21 C12.2235,21 11.9995,21.224 11.9995,21.5 C11.9995,21.776 12.2235,22 12.4995,22 C12.5035,22 12.5055,21.998 12.5095,21.998 C12.5135,21.998 12.5155,22 12.5195,22 C12.7955,22 13.0195,21.776 13.0195,21.5 C13.0195,21.224 12.7955,21 12.5195,21" id="Fill-17" fill="#FFFFFF"></path>
                                    <path d="M14.5195,21 L14.5095,21 C14.5075,21 14.5065,21.001 14.5045,21.001 C14.5025,21.001 14.5015,21 14.4995,21 C14.2235,21 13.9995,21.224 13.9995,21.5 C13.9995,21.776 14.2235,22 14.4995,22 C14.5035,22 14.5055,21.998 14.5095,21.998 C14.5135,21.998 14.5155,22 14.5195,22 C14.7955,22 15.0195,21.776 15.0195,21.5 C15.0195,21.224 14.7955,21 14.5195,21" id="Fill-19" fill="#FFFFFF"></path>
                                    <g id="Group-23" transform="translate(18.000000, 1.000000)">
                                        <mask id="mask-2" fill="white">
                                            <use xlink:href="#path-1"></use>
                                        </mask>
                                        <g id="Clip-22"></g>
                                        <path d="M1.4902,1.9995 C1.6982,2.0205 2.5102,2.4505 3.2262,2.9185 C3.3102,2.9735 3.4052,2.9995 3.5002,2.9995 C3.6172,2.9995 3.7332,2.9585 3.8272,2.8785 C4.1582,2.5915 5.0032,1.9995 5.5002,1.9995 C5.7762,1.9995 6.0002,1.7765 6.0002,1.4995 C6.0002,1.2235 5.7762,0.9995 5.5002,0.9995 C4.7582,0.9995 3.9112,1.5525 3.4682,1.8865 C2.8352,1.4905 1.9572,0.9995 1.5002,0.9995 C1.2232,0.9995 0.9952,1.2235 0.9952,1.4995 C0.9952,1.7755 1.2142,1.9995 1.4902,1.9995" id="Fill-21" fill="#FFFFFF" mask="url(#mask-2)"></path>
                                    </g>
                                    <path d="M11.5,13 C13.981,13 16,10.981 16,8.5 C16,6.019 13.981,4 11.5,4 C9.019,4 7,6.019 7,8.5 C7,10.981 9.019,13 11.5,13" id="Fill-24" fill="#FFFFFF"></path>
                                    <path d="M11.5,3 C11.776,3 12,2.776 12,2.5 L12,0.5 C12,0.224 11.776,0 11.5,0 C11.224,0 11,0.224 11,0.5 L11,2.5 C11,2.776 11.224,3 11.5,3" id="Fill-26" fill="#FFFFFF"></path>
                                    <path d="M8.0674,3.5537 C8.1594,3.7147 8.3284,3.8037 8.5004,3.8037 C8.5854,3.8037 8.6714,3.7827 8.7504,3.7367 C8.9894,3.5987 9.0714,3.2927 8.9324,3.0537 L7.9324,1.3217 C7.7954,1.0817 7.4884,1.0017 7.2504,1.1387 C7.0104,1.2767 6.9284,1.5827 7.0674,1.8217 L8.0674,3.5537 Z" id="Fill-28" fill="#FFFFFF"></path>
                                    <path d="M4.3223,4.9331 L6.0533,5.9331 C6.1333,5.9781 6.2183,6.0001 6.3033,6.0001 C6.4753,6.0001 6.6443,5.9111 6.7363,5.7501 C6.8753,5.5111 6.7933,5.2051 6.5533,5.0671 L4.8223,4.0671 C4.5833,3.9301 4.2763,4.0101 4.1393,4.2501 C4.0013,4.4891 4.0833,4.7951 4.3223,4.9331" id="Fill-30" fill="#FFFFFF"></path>
                                    <path d="M16.4463,11.9331 L18.1773,12.9331 C18.2573,12.9781 18.3423,13.0001 18.4273,13.0001 C18.5993,13.0001 18.7683,12.9111 18.8603,12.7501 C18.9993,12.5111 18.9173,12.2051 18.6773,12.0671 L16.9463,11.0671 C16.7083,10.9311 16.4013,11.0101 16.2633,11.2501 C16.1253,11.4891 16.2073,11.7951 16.4463,11.9331" id="Fill-32" fill="#FFFFFF"></path>
                                    <path d="M3.5,9 L5.5,9 C5.776,9 6,8.776 6,8.5 C6,8.224 5.776,8 5.5,8 L3.5,8 C3.224,8 3,8.224 3,8.5 C3,8.776 3.224,9 3.5,9" id="Fill-34" fill="#FFFFFF"></path>
                                    <path d="M17.5,8 C17.224,8 17,8.224 17,8.5 C17,8.776 17.224,9 17.5,9 L19.5,9 C19.776,9 20,8.776 20,8.5 C20,8.224 19.776,8 19.5,8 L17.5,8 Z" id="Fill-36" fill="#FFFFFF"></path>
                                    <path d="M6.0537,11.0669 L4.3227,12.0669 C4.0827,12.2049 4.0007,12.5109 4.1397,12.7499 C4.2317,12.9109 4.4007,12.9999 4.5727,12.9999 C4.6577,12.9999 4.7427,12.9789 4.8227,12.9329 L6.5537,11.9329 C6.7927,11.7949 6.8747,11.4889 6.7367,11.2499 C6.5997,11.0099 6.2927,10.9289 6.0537,11.0669" id="Fill-38" fill="#FFFFFF"></path>
                                    <path d="M16.6963,6 C16.7813,6 16.8673,5.979 16.9463,5.933 L18.6773,4.933 C18.9173,4.795 18.9993,4.489 18.8603,4.25 C18.7223,4.01 18.4153,3.928 18.1773,4.067 L16.4463,5.067 C16.2073,5.205 16.1253,5.511 16.2633,5.75 C16.3553,5.911 16.5243,6 16.6963,6" id="Fill-40" fill="#FFFFFF"></path>
                                    <path d="M14.25,3.7368 C14.329,3.7818 14.415,3.8038 14.5,3.8038 C14.672,3.8038 14.841,3.7148 14.933,3.5538 L15.933,1.8218 C16.071,1.5828 15.989,1.2768 15.75,1.1388 C15.512,1.0028 15.205,1.0818 15.067,1.3218 L14.067,3.0538 C13.929,3.2928 14.011,3.5988 14.25,3.7368" id="Fill-42" fill="#FFFFFF"></path>
                                    <path d="M4.5,16 C4.224,16 4,16.224 4,16.5 C4,16.776 4.224,17 4.5,17 C4.776,17 5,16.776 5,16.5 C5,16.224 4.776,16 4.5,16" id="Fill-44" fill="#FFFFFF"></path>
                                </g>
                            </g>
                        </g>
                    </g>
                </g>
            </g>
        </g>
    </g>
</svg>