<svg xmlns="http://www.w3.org/2000/svg" xmlns:xlink="http://www.w3.org/1999/xlink" width="32" height="37" viewBox="0 0 32 37">
  <defs>
    <polygon id="shopping-a" points="0 0 21 0 21 12 0 12"/>
    <polygon id="shopping-c" points="0 .174 23 .174 23 7 0 7"/>
  </defs>
  <g fill="none" fill-rule="evenodd">
    <path fill="#5D5D66" d="M20.4852814,32 L16,36.4852814 L11.5147186,32 L0,32 L0,0 L32,0 L32,32 L20.4852814,32 Z"/>
    <g transform="translate(5 6)">
      <g transform="translate(1 7)">
        <mask id="shopping-b" fill="#fff">
          <use xlink:href="#shopping-a"/>
        </mask>
        <path fill="#FFF" d="M17.9808,2.6372 L15.9808,9.6372 C15.9178,9.8572 15.7178,10.0002 15.5008,10.0002 C15.4548,10.0002 15.4088,9.9932 15.3628,9.9812 C15.0968,9.9052 14.9428,9.6282 15.0188,9.3632 L17.0188,2.3632 C17.0948,2.0962 17.3758,1.9462 17.6368,2.0192 C17.9028,2.0952 18.0568,2.3722 17.9808,2.6372 L17.9808,2.6372 Z M13.4948,9.5712 C13.4598,9.8202 13.2458,10.0002 13.0008,10.0002 C12.9768,10.0002 12.9528,9.9982 12.9288,9.9952 C12.6558,9.9562 12.4658,9.7022 12.5048,9.4292 L13.5048,2.4292 C13.5438,2.1562 13.7968,1.9672 14.0708,2.0052 C14.3438,2.0442 14.5338,2.2972 14.4948,2.5712 L13.4948,9.5712 Z M10.9998,9.5002 C10.9998,9.7762 10.7758,10.0002 10.4998,10.0002 C10.2238,10.0002 9.9998,9.7762 9.9998,9.5002 L9.9998,2.5002 C9.9998,2.2232 10.2238,2.0002 10.4998,2.0002 C10.7758,2.0002 10.9998,2.2232 10.9998,2.5002 L10.9998,9.5002 Z M8.0708,9.9952 C8.0468,9.9982 8.0228,10.0002 7.9998,10.0002 C7.7538,10.0002 7.5408,9.8202 7.5048,9.5712 L6.5048,2.5712 C6.4658,2.2972 6.6558,2.0442 6.9288,2.0052 C7.2028,1.9622 7.4558,2.1552 7.4948,2.4292 L8.4948,9.4292 C8.5338,9.7022 8.3438,9.9562 8.0708,9.9952 L8.0708,9.9952 Z M5.6368,9.9812 C5.5908,9.9932 5.5448,10.0002 5.4998,10.0002 C5.2818,10.0002 5.0818,9.8572 5.0188,9.6372 L3.0188,2.6372 C2.9428,2.3722 3.0968,2.0952 3.3628,2.0192 C3.6258,1.9472 3.9048,2.0962 3.9808,2.3632 L5.9808,9.3632 C6.0568,9.6282 5.9028,9.9052 5.6368,9.9812 L5.6368,9.9812 Z M20.6308,0.0172 C20.3668,-0.0548 20.0898,0.1012 20.0178,0.3682 L19.9818,0.5002 L1.0188,0.5002 L0.9818,0.3682 C0.9098,0.1012 0.6338,-0.0538 0.3688,0.0172 C0.1018,0.0902 -0.0552,0.3652 0.0178,0.6312 L2.6158,10.1582 C2.9118,11.2422 3.9028,12.0002 5.0278,12.0002 L15.9718,12.0002 C17.0968,12.0002 18.0878,11.2422 18.3838,10.1582 L20.9818,0.6312 C21.0548,0.3652 20.8978,0.0902 20.6308,0.0172 L20.6308,0.0172 Z" mask="url(#shopping-b)"/>
      </g>
      <g transform="translate(0 1)">
        <mask id="shopping-d" fill="#fff">
          <use xlink:href="#shopping-c"/>
        </mask>
        <path fill="#FFF" d="M22.4998,6 L21.9808,6 C21.7628,3.144 19.6878,0.805 16.9668,0.174 C16.9808,0.282 16.9998,0.388 16.9998,0.5 C16.9998,0.745 16.9538,0.976 16.8878,1.2 C19.0908,1.778 20.7668,3.672 20.9778,6 L2.0218,6 C2.2328,3.672 3.9088,1.778 6.1118,1.2 C6.0458,0.976 5.9998,0.745 5.9998,0.5 C5.9998,0.388 6.0188,0.282 6.0328,0.174 C3.3118,0.805 1.2378,3.144 1.0188,6 L0.4998,6 C0.2238,6 -0.0002,6.224 -0.0002,6.5 C-0.0002,6.776 0.2238,7 0.4998,7 L22.4998,7 C22.7758,7 22.9998,6.776 22.9998,6.5 C22.9998,6.224 22.7758,6 22.4998,6" mask="url(#shopping-d)"/>
      </g>
      <path fill="#FFF" d="M14.9998 1.5C14.9998 1.776 15.2238 2 15.4998 2 15.6358 2 15.7628 2.028 15.8958 2.038 15.9608 1.871 15.9998 1.69 15.9998 1.5 15.9998 1.331 15.9658 1.171 15.9138 1.02 15.7768 1.011 15.6398 1 15.4998 1 15.2238 1 14.9998 1.224 14.9998 1.5M7.9998 1.5C7.9998 1.224 7.7758 1 7.4998 1 7.3598 1 7.2238 1.011 7.0858 1.02 7.0338 1.171 6.9998 1.331 6.9998 1.5 6.9998 1.69 7.0388 1.871 7.1038 2.038 7.2368 2.028 7.3648 2 7.4998 2 7.7758 2 7.9998 1.776 7.9998 1.5"/>
      <path fill="#FFF" d="M14.4998,3 L8.4998,3 C7.6728,3 6.9998,2.327 6.9998,1.5 C6.9998,0.673 7.6728,0 8.4998,0 L14.4998,0 C15.3268,0 15.9998,0.673 15.9998,1.5 C15.9998,2.327 15.3268,3 14.4998,3 L14.4998,3 Z"/>
    </g>
  </g>
</svg>
